<?xml version="1.0" encoding="UTF-8"?>
<svg id="Layer_1" data-name="Layer 1" xmlns="http://www.w3.org/2000/svg" viewBox="0 0 779.03 103.37">
  <defs>
    <style>
      .cls-1 {
        fill: #fff;
        stroke: #fff;
        stroke-miterlimit: 10;
      }
    </style>
  </defs>
  <path class="cls-1" d="m98.64,94.76c.28.8.42,1.48.42,2.04,0,.66-.19,1.13-.56,1.41-.47.38-1.32.56-2.54.56-.85,0-1.65-.05-2.4-.14-.75-.09-1.36-.14-1.83-.14h-17.48c-2.07.1-4.18.1-6.34,0-1.13-.09-2-.3-2.61-.63-.61-.33-1.15-.96-1.62-1.9-.47-.85-1.13-2.54-1.97-5.08-3.29-8.65-8.13-21.62-14.52-38.92-.47-1.32-1.18-1.97-2.12-1.97-.38,0-1.32.19-2.82.56-3.01.75-5.22,1.5-6.63,2.26-2.54,1.22-4.47,2.28-5.78,3.17-1.32.89-2.11,2.09-2.4,3.6v1.27c.37,3.1,1.74,7.47,4.09,13.11,1.5,3.86,3.67,7.99,6.49,12.41l3.38,5.36c.28.38.96,1.2,2.04,2.47,1.08,1.27,1.62,2.28,1.62,3.03,0,.94-.94,1.41-2.82,1.41l-3.24-.14H5.15c-1.6,0-2.77-.14-3.52-.42-.75-.38-1.13-1.08-1.13-2.12,0-.38.14-1.27.42-2.68,1.13-3.95,3.43-12.17,6.91-24.67L24.61,9.67c.19-.56.59-1.97,1.2-4.23.61-2.26,1.36-3.62,2.26-4.09.89-.47,2.23-.71,4.02-.71l4.79.14c5.17,0,9.4.05,12.69.14,9.87,0,14.99.05,15.37.14.94.38,1.83,1.88,2.68,4.51,7.24,18.89,14.15,38.77,20.73,59.64.94,3.1,2.11,6.63,3.52,10.58s2.44,6.86,3.1,8.74l3.1,8.74c.09.19.28.68.56,1.48Zm-54.71-51.25c0-.56-.19-1.39-.56-2.47-.38-1.08-.61-1.85-.71-2.33l-2.96-7.9-4.65-14.1c-.09-.28-.24-.94-.42-1.97-.19-1.03-.56-1.6-1.13-1.69-.94-.09-1.97.99-3.1,3.24-1.97,3.67-3.48,8.32-4.51,13.96-.66,3.57-.99,7.29-.99,11.14,0,2.45.14,4.89.42,7.33,0,.19.02.54.07,1.06.05.52.19.87.42,1.06.23.19.63.28,1.2.28s1.81-.42,3.74-1.27c1.93-.85,3.17-1.36,3.74-1.55l2.96-.99c2.63-.75,4.51-1.41,5.64-1.97l.56-.56c.19-.19.28-.61.28-1.27Z"/>
  <path class="cls-1" d="m210.31,58.87c1.88,3.76,2.82,7.76,2.82,11.99,0,2.91-.49,5.71-1.48,8.39-.99,2.68-2.42,5.01-4.3,6.98-8.27,8.27-17.44,12.78-27.5,13.54-5.73.47-14.15.89-25.24,1.27-1.97.09-5.03.05-9.16-.14l-3.1-.14-15.23-.42c-.75-.09-1.72-.09-2.89,0-1.18.09-2.19.14-3.03.14-2.16,0-4.04-.33-5.64-.99-.19,0-.38-.09-.56-.28-1.13-.75-1.69-2.07-1.69-3.95,0-.85.07-1.64.21-2.4.14-.75.21-1.5.21-2.26l.14-12.27v-24.53c0-12.03-.05-21.06-.14-27.07v-13.68l-.14-5.5c0-2.16.21-3.55.63-4.16.42-.61,1.2-.92,2.33-.92,1.6,0,4.09.09,7.47.28,2.44.28,4.89.42,7.33.42,4.51,0,11.37-.19,20.59-.56,2.26-.09,5.08-.19,8.46-.28,3.38-.09,7.33-.14,11.84-.14,5.17,0,9.63.42,13.4,1.27,2.63.75,4.56,1.41,5.78,1.97,3.01,1.41,5.36,3.41,7.05,5.99,1.69,2.59,2.54,5.43,2.54,8.53,0,1.41-.24,3.06-.71,4.94-1.6,5.55-4.89,9.54-9.87,11.99-3.57,1.69-7.71,2.91-12.41,3.67l-16.36,2.82c-2.16.28-3.81.59-4.94.92-1.13.33-2.16.92-3.1,1.76-.56.56-.85,1.22-.85,1.97,0,.56.19,1.01.56,1.34.37.33.89.45,1.55.35,2.35-.37,4.32-.85,5.92-1.41,6.3-2.07,12.92-3.1,19.88-3.1,2.54,0,5.08.14,7.61.42,4.89.38,9.49,1.88,13.82,4.51,3.57,2.07,6.3,4.98,8.18,8.74Zm-20.16,19.18c0-1.97-.47-3.85-1.41-5.64-.94-1.79-2.26-3.34-3.95-4.65-3.1-2.35-6.3-3.57-9.59-3.67-2.45-.19-4.28-.23-5.5-.14-4.51.28-9.12-.56-13.82-2.54-2.16-.75-4.09-1.88-5.78-3.38-2.45-2.16-3.67-4.46-3.67-6.91s1.17-4.75,3.52-6.91c.75-.75,1.74-1.5,2.96-2.26,1.22-.75,2.12-1.31,2.68-1.69l3.24-2.26c2.63-1.69,4.56-3.05,5.78-4.09,3.1-2.82,4.65-6.16,4.65-10.01,0-1.78-.33-3.48-.99-5.08-1.41-3.38-4.09-5.78-8.04-7.19-3.95-1.22-7.85-1.83-11.7-1.83-1.6,0-2.77.05-3.52.14-1.41.19-2.35.8-2.82,1.83-.47,1.04-.71,2.4-.71,4.09,0,3.38-.09,8.37-.28,14.95-.19,10.53-.28,18.38-.28,23.55v8.74c0,3.57.09,8.93.28,16.07,0,3.48.05,6.06.14,7.75,0,2.26.05,3.95.14,5.08,0,.85.05,1.5.14,1.97,0,.38.14.71.42.99.37.38,1.06.59,2.04.63.99.05,1.67.07,2.04.07,9.02,0,15.79.09,20.3.28,7.52.28,14.33-2.96,20.44-9.73,2.16-2.44,3.24-5.17,3.24-8.18Z"/>
  <path class="cls-1" d="m323.39,43.51c0,7.61-.99,14.59-2.96,20.94-1.97,6.34-4.98,12.29-9.02,17.84-7.71,10.62-18.33,16.87-31.87,18.75-4.04.66-8.13,1.22-12.27,1.69-.85.09-2.12.14-3.81.14-7.8,0-14.69-2.28-20.66-6.84-5.97-4.56-10.08-10.5-12.34-17.84-2.16-7.52-3.24-14.9-3.24-22.14,0-7.61,1.17-14.95,3.53-22,5.26-15.6,15.88-25.9,31.87-30.88,5.92-1.78,11.98-2.68,18.19-2.68,4.98,0,10.1.56,15.37,1.69,5.36,1.04,10.9,3.95,16.64,8.74,1.78,1.41,3.48,3.95,5.08,7.61,4.04,9.68,5.87,18,5.5,24.96Zm-12.27-23.27c0-1.69-.56-3.1-1.69-4.23s-2.68-1.78-4.65-1.97c-1.41,0-2.45.05-3.1.14-.85.19-2.21.42-4.09.71-1.88.28-3.53.66-4.94,1.13-19.18,5.92-34.59,16.55-46.25,31.87-4.98,6.58-7.33,13.96-7.05,22.14-.38,4.33.52,9.45,2.68,15.37,2.26,5.92,6.35,8.88,12.27,8.88,3.85,0,7.99-.94,12.41-2.82,9.02-4.04,15.46-10.06,19.32-18.05,1.69-3.38,4.14-8.55,7.33-15.51l2.11-4.94c2.16-5.55,4.21-10.29,6.13-14.24,1.93-3.95,4.16-7.66,6.7-11.14.56-.66,1.03-1.48,1.41-2.47.37-.99.66-1.62.85-1.9.37-.85.56-1.83.56-2.96Z"/>
  <path class="cls-1" d="m429.14,22.35c0,3.48-.38,6.58-1.13,9.31-.47,2.26-.94,4.18-1.41,5.78-1.22,5.45-2.16,9.31-2.82,11.56-1.6,5.55-2.4,11.61-2.4,18.19.09,5.55.14,13.77.14,24.67,0,2.26-.05,3.95-.14,5.08v.71c0,1.13-.38,1.83-1.13,2.12-.09,0-.28.07-.56.21-.28.14-.56.21-.85.21l-30.88.28c-1.5,0-2.12-.52-1.83-1.55.28-.94.71-1.74,1.27-2.4,1.32-1.78,2.07-3.38,2.26-4.79,0-.19.07-.54.21-1.06.14-.52.07-.82-.21-.92h-.42c-.66,0-1.08.05-1.27.14l-3.95,1.83c-6.2,3.01-10.86,5.17-13.96,6.49-3.38,1.5-6.96,2.26-10.72,2.26-3.2,0-6.44-.56-9.73-1.69-3.95-1.32-6.77-3.85-8.46-7.62-2.45-5.17-3.67-10.9-3.67-17.2,0-8.55,1.36-17.06,4.09-25.52,1.13-3.76,2.04-7.61,2.75-11.56.7-3.95,1.34-8.55,1.9-13.82.09-.75.14-1.88.14-3.38,0-2.07-.05-3.62-.14-4.65-.09-.56-.21-1.48-.35-2.75-.14-1.27-.35-2.37-.63-3.31-.09-.37-.54-1.15-1.34-2.33-.8-1.17-1.11-2.09-.92-2.75v-.14c.47-.66,2.07-.99,4.79-.99,10.06,0,17.58-.09,22.56-.28,1.41-.09,2.42.05,3.03.42.61.38,1.24,1.18,1.9,2.4,2.07,3.95,3.1,7.71,3.1,11.28,0,5.08-1.69,10.01-5.08,14.81-1.79,2.54-3.81,5.03-6.06,7.47-2.26,2.45-3.57,3.86-3.95,4.23-4.14,4.42-8.37,9.96-12.69,16.64-1.79,2.82-3.1,5.9-3.95,9.24-.85,3.34-1.46,7.07-1.83,11.21v.71c.19,4.42,1.36,7.9,3.53,10.43,2.16,2.54,5.12,3.81,8.88,3.81,1.78,0,3.9-.38,6.34-1.13,5.17-1.6,9.87-4.46,14.1-8.6,6.49-6.58,11.65-14.66,15.51-24.25,3.29-8.65,5.54-16.92,6.77-24.82.38-2.16.56-4.6.56-7.33,0-3.48-.42-6.91-1.27-10.29-.75-3.01-1.88-5.73-3.38-8.18-.28-.47-.99-1.46-2.12-2.96-1.13-1.5-1.69-2.68-1.69-3.52s.75-1.27,2.26-1.27c5.92-.09,14.76-.14,26.51-.14,1.97,0,3.29.24,3.95.71.66.47,1.27,1.65,1.83,3.52,1.69,5.55,2.54,10.72,2.54,15.51Z"/>
  <path class="cls-1" d="m524.74,20.24c.19.94.28,1.65.28,2.11,0,1.13-.4,1.88-1.2,2.26-.8.38-1.81.56-3.03.56-5.73,0-10.06.05-12.97.14l-13.11.14h-3.95c-1.79,0-3.15.05-4.09.14-2.07.09-3.74.8-5,2.12-1.27,1.32-1.9,2.91-1.9,4.79,0,.85.14,1.69.42,2.54,1.22,3.57,3.29,6.82,6.2,9.73,4.79,5.08,9.02,9.78,12.69,14.1,4.98,6.3,8.51,13.16,10.58,20.59.56,2.26.85,4.51.85,6.77,0,1.97-.28,3.9-.85,5.78-.19.66-.56,1.55-1.13,2.68-.19.38-.35.78-.49,1.2-.14.42-.35.87-.63,1.34-.19.28-.42.73-.71,1.34-.28.61-.63,1.08-1.06,1.41-.42.33-.92.49-1.48.49h-4.51c-4.79.09-9.68.17-14.66.21-4.98.05-8.6.03-10.86-.07-.09,0-.33.02-.71.07-.38.05-.66-.02-.85-.21-.28-.28-.42-.61-.42-.99,0-.47.16-1.06.49-1.76.33-.71.54-1.15.63-1.34,2.16-4.7,3.34-10.43,3.53-17.2.09-1.41.14-3.48.14-6.2,0-7.42-.8-14.47-2.4-21.15-.19-.56-.38-1.6-.56-3.1-.38-2.07-.71-3.62-.99-4.65-.47-2.35-.71-4.42-.71-6.2,0-2.73.38-5.5,1.13-8.32.09-.28.38-1.55.85-3.81-1.32-.09-3.29-.14-5.92-.14-3.38,0-6.39.19-9.02.56-2.26.28-5.31.61-9.17.99h-.42c-1.32,0-2.21-.56-2.68-1.69-1.22-3.57-2.21-7.24-2.96-11-.1-.75-.26-1.83-.49-3.24-.24-1.41-.35-2.63-.35-3.67.09-1.5.52-2.51,1.27-3.03.75-.52,1.97-.82,3.67-.92,4.6-.28,17.48-.68,38.63-1.2,21.15-.52,32.33-.68,33.56-.49.94.19,1.6.63,1.97,1.34.37.71.71,1.81.99,3.31.38,1.5.66,3.71.85,6.63l.28,4.65c0,.66.09,1.46.28,2.4Z"/>
  <path class="cls-1" d="m673.07,22.35c0,3.48-.38,6.58-1.13,9.31-.47,2.26-.94,4.18-1.41,5.78-1.22,5.45-2.16,9.31-2.82,11.56-1.6,5.55-2.4,11.61-2.4,18.19.09,5.55.14,13.77.14,24.67,0,2.26-.05,3.95-.14,5.08v.71c0,1.13-.38,1.83-1.13,2.12-.09,0-.28.07-.56.21-.28.14-.56.21-.85.21l-30.88.28c-1.5,0-2.12-.52-1.83-1.55.28-.94.71-1.74,1.27-2.4,1.32-1.78,2.07-3.38,2.26-4.79,0-.19.07-.54.21-1.06.14-.52.07-.82-.21-.92h-.42c-.66,0-1.08.05-1.27.14l-3.95,1.83c-6.2,3.01-10.86,5.17-13.96,6.49-3.38,1.5-6.96,2.26-10.72,2.26-3.2,0-6.44-.56-9.73-1.69-3.95-1.32-6.77-3.85-8.46-7.62-2.45-5.17-3.67-10.9-3.67-17.2,0-8.55,1.36-17.06,4.09-25.52,1.13-3.76,2.04-7.61,2.75-11.56.71-3.95,1.34-8.55,1.9-13.82.09-.75.14-1.88.14-3.38,0-2.07-.05-3.62-.14-4.65-.09-.56-.21-1.48-.35-2.75-.14-1.27-.35-2.37-.63-3.31-.09-.37-.54-1.15-1.34-2.33-.8-1.17-1.11-2.09-.92-2.75v-.14c.47-.66,2.07-.99,4.79-.99,10.06,0,17.58-.09,22.56-.28,1.41-.09,2.42.05,3.03.42.61.38,1.25,1.18,1.9,2.4,2.07,3.95,3.1,7.71,3.1,11.28,0,5.08-1.69,10.01-5.08,14.81-1.79,2.54-3.81,5.03-6.06,7.47-2.26,2.45-3.57,3.86-3.95,4.23-4.14,4.42-8.37,9.96-12.69,16.64-1.79,2.82-3.1,5.9-3.95,9.24-.85,3.34-1.46,7.07-1.83,11.21v.71c.19,4.42,1.36,7.9,3.53,10.43,2.16,2.54,5.12,3.81,8.88,3.81,1.78,0,3.9-.38,6.34-1.13,5.17-1.6,9.87-4.46,14.1-8.6,6.49-6.58,11.65-14.66,15.51-24.25,3.29-8.65,5.54-16.92,6.77-24.82.38-2.16.56-4.6.56-7.33,0-3.48-.42-6.91-1.27-10.29-.75-3.01-1.88-5.73-3.38-8.18-.28-.47-.99-1.46-2.12-2.96-1.13-1.5-1.69-2.68-1.69-3.52s.75-1.27,2.26-1.27c5.92-.09,14.76-.14,26.51-.14,1.97,0,3.29.24,3.95.71.66.47,1.27,1.65,1.83,3.52,1.69,5.55,2.54,10.72,2.54,15.51Z"/>
  <path class="cls-1" d="m778.53,71.56c0,4.7-1.36,9.26-4.09,13.68-7.33,11.56-17.81,17.34-31.44,17.34-6.39,0-14.24-1.27-23.55-3.81-5.27-1.32-9.26-2.26-11.99-2.82-1.22-.38-2.68-.56-4.37-.56-3.38,0-6.54,1.18-9.45,3.53-.75.56-1.46.85-2.12.85-.56,0-.99-.19-1.27-.56-2.07-2.91-3.1-6.01-3.1-9.31,0-1.69.33-3.67.99-5.92,1.69-5.45,5.78-8.79,12.27-10.01,2.44-.38,4.28-.56,5.5-.56,6.11,0,11.8,2.07,17.06,6.2,4.04,3.29,7.66,6.39,10.86,9.31l2.12,1.97c2.07,1.88,3.62,3.24,4.65,4.09,2.35,1.97,5.4,2.96,9.17,2.96,2.16,0,4.09-.56,5.78-1.69,1.69-1.13,2.96-2.72,3.81-4.79.75-1.79,1.13-3.76,1.13-5.92,0-1.69-.24-3.24-.71-4.65-.19-.85-.66-1.83-1.41-2.96-.75-1.13-1.5-2.07-2.26-2.82-1.41-1.32-2.89-2.4-4.44-3.24s-3.15-1.62-4.79-2.33c-1.65-.71-2.8-1.2-3.46-1.48-2.54-1.22-5.26-2.12-8.18-2.68-6.68-1.41-13.54-2.68-20.59-3.81-5.17-.94-9.35-2.58-12.55-4.94-2.26-1.6-3.95-3.05-5.08-4.37-3.95-5.17-6.34-11-7.19-17.48-.19-1.5-.28-2.68-.28-3.52,0-5.73,2.21-10.95,6.63-15.65,3.85-4.04,7.99-7.12,12.41-9.24,4.42-2.11,9.35-3.26,14.8-3.45,10.15-.28,20.91.8,32.29,3.24,3.48.75,6.72,1.13,9.73,1.13,2.26,0,3.9-.05,4.94-.14.75-.09,1.71-.21,2.89-.35,1.17-.14,2.23-.16,3.17-.07.38.09.56.33.56.71-.19.66-.68,1.46-1.48,2.4-.8.94-1.25,1.5-1.34,1.69l-4.93,5.5c-3.57,3.95-6.96,7.43-10.15,10.43-.19.19-.56.59-1.13,1.2-.56.61-1.08.92-1.55.92-.56,0-1.46-.61-2.68-1.83l-3.1-3.81c-1.32-1.69-2.63-3.29-3.95-4.79-3.57-3.76-6.58-6.53-9.02-8.32-2.92-2.07-6.16-3.1-9.73-3.1-4.04,0-7.61,1.41-10.72,4.23-2.45,2.26-3.67,4.79-3.67,7.61,0,.47.09,1.27.28,2.4.47,2.63,1.55,4.56,3.24,5.78,2.26,1.6,3.95,2.68,5.08,3.24,7.99,4.23,15.27,7,21.86,8.32,5.64,1.04,10.72,2.63,15.23,4.79,7.42,3.2,12.92,8.51,16.5,15.93,1.88,3.67,2.82,7.52,2.82,11.56Z"/>
</svg>