<svg width="212" height="167" viewBox="0 0 212 167" fill="none" xmlns="http://www.w3.org/2000/svg">
<path d="M34.2496 58.6471L37.06 54.1749C38.0519 52.4634 40.8623 47.9471 44.1686 43.5743M34.2496 58.6471L31.1086 64.7755L28.9595 69.082M34.2496 58.6471C36.7928 59.135 42.5026 60.5172 45.3376 62.1979M65.9904 98.7307L63.18 100.718L55.5755 105.19L51.4425 107.344L50.0813 107.831C47.9191 108.604 45.6397 109 43.3431 109H41.6889H41.5171C39.5484 109 37.5905 108.709 35.7067 108.137L34.1543 107.666C33.448 107.452 32.7641 107.17 32.1121 106.824V106.824C30.9018 106.182 29.8164 105.328 28.9072 104.303L27.637 102.872L27.4518 102.602C26.3703 101.026 25.556 99.282 25.0415 97.4411V97.4411C24.7884 96.5355 24.6092 95.6109 24.5055 94.6763L24.227 92.1645C24.0761 90.8035 24.0653 89.4307 24.1949 88.0675L24.6613 83.161L25.8185 78.0263L27.6617 72.2223C27.9754 71.2345 28.3654 70.2726 28.8281 69.3453L28.9595 69.082M65.9904 98.7307L72.7684 94.0929L82.522 86.3081M65.9904 98.7307C65.9904 99.3932 66.5855 101.149 68.9661 102.872C71.9418 105.025 91.2838 108.669 136.581 108.669C166.183 108.669 180.002 99.9733 185.032 93.2375C186.867 90.7789 188.764 87.978 188.982 84.9173C189.489 77.7636 179.425 69.0044 172.467 64.3239C171.583 63.729 170.744 63.0777 169.884 62.4489C166.685 60.1113 162.057 58.2466 156.749 56.7713M82.522 86.3081L88.1428 80.6765L94.7555 73.9476M82.522 86.3081C83.3486 87.9644 85.8284 91.0783 89.1347 90.2833C93.2676 89.2895 96.2433 78.8131 94.7555 73.9476M83.6793 9.95046L87.0434 8.3233C87.9952 7.86288 88.9822 7.47867 89.9948 7.17429L93.4329 6.14087L97.7312 4.31889L100.911 3.11345C102.853 2.37728 104.912 2 106.989 2V2H112.114H113.021C114.068 2 115.113 2.08214 116.146 2.24567L116.525 2.30557C119.39 2.75874 122.118 3.84241 124.512 5.47833V5.47833L125.882 6.28919C127.374 7.17274 128.648 8.38141 129.609 9.82529V9.82529C130.176 10.6779 130.628 11.6023 130.951 12.574L131.088 12.9845C131.442 14.0502 131.674 15.1528 131.779 16.2711L131.952 18.121C132.062 19.2964 132.054 20.4799 131.928 21.6537V21.6537C131.725 23.5562 131.214 25.4132 130.417 27.1523L128.811 30.6548L121.537 42.9118L115.143 51.6904M83.6793 9.95046L70.9499 19.0604M83.6793 9.95046L84.1771 10.0502C85.495 10.3143 86.783 10.7106 88.0214 11.233L89.3 11.7724L94.1033 14.4722C95.4156 15.2097 96.6404 16.0931 97.7544 17.1055L103.187 22.0418L104.422 23.2793C106.334 25.1949 108.091 27.4498 108.33 30.1457C108.444 31.4314 108.297 32.5082 107.998 33.3947C107.075 36.1328 104.019 38.2282 101.151 37.8784C100.732 37.8274 100.323 37.7458 99.9392 37.6473C98.8902 37.3782 98.0003 36.7216 97.2352 35.9551V35.9551L96.5953 35.2224C96.2512 34.8284 95.8703 34.4682 95.4576 34.1466V34.1466C94.8819 33.6979 94.3685 33.1745 93.9311 32.5901L93.6181 32.172C93.2747 31.7132 92.8991 31.2794 92.4943 30.8738L91.4491 29.8266L89.3 27.839L86.9856 26.1827L84.1093 24.6457C82.7253 23.9061 81.2591 23.332 79.7409 22.9352L78.2238 22.5387L77.1686 22.1863C75.8915 21.7598 74.6608 21.2054 73.4952 20.5316L70.9499 19.0604M70.9499 19.0604C67.1605 22.2473 61.2609 27.3094 55.9061 32.1142M44.1686 43.5743C45.8154 41.3964 50.5925 36.8819 55.9061 32.1142M44.1686 43.5743C49.1832 45.4515 60.039 49.1396 63.3453 48.8746C67.4782 48.5433 71.7765 58.8127 78.0585 60.8003C82.1251 62.087 84.3011 59.4115 85.217 57.0565C85.6083 56.0505 85.9044 54.9932 86.054 53.9242C87.2913 45.0855 71.8237 39.6737 69.7927 38.1084C68.0734 36.7833 59.8186 33.5601 55.9061 32.1142M45.3376 62.1979C45.3898 62.2289 45.441 62.2599 45.4911 62.291C47.0335 63.2477 47.1881 63.344 46.8137 63.1123M45.3376 62.1979C45.8749 62.5309 46.5139 62.9267 46.8137 63.1123M46.8137 63.1123L54.973 70.0868C56.2512 71.1794 57.3984 72.4209 58.3097 73.8341C58.9264 74.7903 59.5585 75.8249 60.0419 76.728C60.8156 78.1733 60.9547 79.8876 60.4334 81.442C59.7512 83.4757 58.1811 85.3755 55.1206 85.2309C51.4292 85.0566 48.9107 81.7144 46.5832 78.8439C45.7475 77.8132 44.8541 76.8562 44.0033 76.2043C39.8153 73.8302 30.9433 69.082 28.9595 69.082M115.143 51.6904L112.61 55.1687L98.7231 69.9102L94.7555 73.9476M115.143 51.6904C116.705 51.7024 118.466 51.7427 120.38 51.8168M109.799 59.9721C111.91 61.5226 115.816 67.6553 116.933 80.5546C117.346 85.3201 119.39 92.1527 123.786 90.2674C124.662 89.8915 125.53 89.1686 126.331 87.9644C129.505 83.1941 128.976 72.3947 128.315 67.5913C127.013 62.9274 123.604 53.243 120.38 51.8168M120.38 51.8168C126.387 52.0494 133.888 52.6149 141.375 53.682M141.375 53.682C144.02 56.6069 149.409 65.0074 149.806 75.2105C149.49 79.5572 149.711 86.7942 152.044 89.9262C153.78 92.2571 157.862 91.8834 159.921 89.8328C161.912 87.851 163.416 83.5772 162.37 75.2105C160.63 61.2972 157.898 57.1205 156.749 56.7713M141.375 53.682C146.687 54.4391 151.991 55.4488 156.749 56.7713" stroke="white" stroke-width="4"/>
<path d="M80.5415 149.016C80.8615 149.64 81.0215 150.296 81.0215 150.984C81.0215 151.784 80.7895 152.56 80.3255 153.312C79.0775 155.28 77.2935 156.264 74.9735 156.264C73.8855 156.264 72.5495 156.048 70.9655 155.616C70.0695 155.392 69.3895 155.232 68.9255 155.136C68.7175 155.072 68.4695 155.04 68.1815 155.04C67.6055 155.04 67.0695 155.24 66.5735 155.64C66.4455 155.736 66.3255 155.784 66.2135 155.784C66.1175 155.784 66.0455 155.752 65.9975 155.688C65.6455 155.192 65.4695 154.664 65.4695 154.104C65.4695 153.816 65.5255 153.48 65.6375 153.096C65.9255 152.168 66.6215 151.6 67.7255 151.392C68.1415 151.328 68.4535 151.296 68.6615 151.296C69.7015 151.296 70.6695 151.648 71.5655 152.352C72.2535 152.912 72.8695 153.44 73.4135 153.936L73.7735 154.272C74.1255 154.592 74.3895 154.824 74.5655 154.968C74.9655 155.304 75.4855 155.472 76.1255 155.472C76.4935 155.472 76.8215 155.376 77.1095 155.184C77.3975 154.992 77.6135 154.72 77.7575 154.368C77.8855 154.064 77.9495 153.728 77.9495 153.36C77.9495 153.072 77.9095 152.808 77.8295 152.568C77.7975 152.424 77.7175 152.256 77.5895 152.064C77.4615 151.872 77.3335 151.712 77.2055 151.584C76.9655 151.36 76.7095 151.176 76.4375 151.032C76.1815 150.888 75.9095 150.76 75.6215 150.648C75.3495 150.52 75.1575 150.432 75.0455 150.384C74.6135 150.176 74.1495 150.024 73.6535 149.928C72.5175 149.688 71.3495 149.472 70.1495 149.28C69.2695 149.12 68.5575 148.84 68.0135 148.44C67.6295 148.168 67.3415 147.92 67.1495 147.696C66.4775 146.816 66.0695 145.824 65.9255 144.72C65.8935 144.464 65.8775 144.264 65.8775 144.12C65.8775 143.144 66.2535 142.256 67.0055 141.456C67.6615 140.768 68.3655 140.248 69.1175 139.896C69.8695 139.528 70.7095 139.328 71.6375 139.296C73.3655 139.248 75.1975 139.432 77.1335 139.848C77.7255 139.976 78.2775 140.04 78.7895 140.04C79.1735 140.04 79.4535 140.032 79.6295 140.016C79.7575 140 79.9175 139.984 80.1095 139.968C80.3175 139.936 80.5015 139.928 80.6615 139.944C80.7255 139.96 80.7575 140 80.7575 140.064C80.7255 140.176 80.6375 140.312 80.4935 140.472C80.3655 140.632 80.2935 140.728 80.2775 140.76L79.4375 141.696C78.8295 142.368 78.2535 142.96 77.7095 143.472C77.6775 143.504 77.6135 143.576 77.5175 143.688C77.4215 143.784 77.3335 143.832 77.2535 143.832C77.1575 143.832 77.0055 143.728 76.7975 143.52L76.2695 142.872C76.0455 142.584 75.8215 142.312 75.5975 142.056C74.9895 141.416 74.4775 140.944 74.0615 140.64C73.5655 140.288 73.0135 140.112 72.4055 140.112C71.7175 140.112 71.1095 140.352 70.5815 140.832C70.1655 141.216 69.9575 141.648 69.9575 142.128C69.9575 142.208 69.9735 142.344 70.0055 142.536C70.0855 142.984 70.2695 143.312 70.5575 143.52C70.9415 143.792 71.2295 143.976 71.4215 144.072C72.7815 144.792 74.0215 145.264 75.1415 145.488C76.1015 145.664 76.9655 145.936 77.7335 146.304C78.9975 146.848 79.9335 147.752 80.5415 149.016ZM97.2467 141.84C97.2467 141.952 97.2627 142.088 97.2947 142.248C97.3267 142.408 97.3427 142.528 97.3427 142.608C97.3427 142.8 97.2707 142.928 97.1267 142.992C96.9987 143.056 96.8307 143.088 96.6227 143.088C95.6467 143.088 94.9107 143.096 94.4147 143.112L92.1827 143.136H91.5107C91.2067 143.136 90.9747 143.144 90.8147 143.16C90.4627 143.176 90.1747 143.296 89.9507 143.52C89.7427 143.744 89.6387 144.016 89.6387 144.336C89.6387 144.48 89.6627 144.624 89.7107 144.768C89.9187 145.376 90.2707 145.928 90.7667 146.424C91.5827 147.288 92.3027 148.088 92.9267 148.824C93.7747 149.896 94.3747 151.064 94.7267 152.328C94.8227 152.712 94.8707 153.096 94.8707 153.48C94.8707 153.816 94.8227 154.144 94.7267 154.464C94.6947 154.576 94.6307 154.728 94.5347 154.92C94.5027 154.984 94.4707 155.056 94.4387 155.136C94.4227 155.2 94.3907 155.272 94.3427 155.352C94.3107 155.4 94.2707 155.48 94.2227 155.592C94.1747 155.688 94.1107 155.768 94.0307 155.832C93.9667 155.88 93.8867 155.904 93.7907 155.904H93.0227C92.2067 155.92 91.3747 155.936 90.5267 155.952C89.6787 155.952 89.0627 155.944 88.6787 155.928C88.6627 155.928 88.6227 155.936 88.5587 155.952C88.4947 155.952 88.4467 155.936 88.4147 155.904C88.3667 155.856 88.3427 155.8 88.3427 155.736C88.3427 155.656 88.3667 155.56 88.4147 155.448C88.4787 155.32 88.5187 155.24 88.5347 155.208C88.9027 154.408 89.1027 153.432 89.1347 152.28C89.1507 152.04 89.1587 151.688 89.1587 151.224C89.1587 149.96 89.0227 148.76 88.7507 147.624C88.7187 147.528 88.6867 147.352 88.6547 147.096C88.5907 146.744 88.5347 146.48 88.4867 146.304C88.4067 145.904 88.3667 145.552 88.3667 145.248C88.3667 144.784 88.4307 144.312 88.5587 143.832C88.5747 143.784 88.6227 143.568 88.7027 143.184C88.4787 143.168 88.1427 143.16 87.6947 143.16C87.1187 143.16 86.6067 143.192 86.1587 143.256C85.7747 143.304 85.2547 143.36 84.5987 143.424H84.5267C84.3027 143.424 84.1507 143.328 84.0707 143.136C83.8627 142.528 83.6947 141.904 83.5667 141.264C83.5507 141.136 83.5187 140.952 83.4707 140.712C83.4387 140.472 83.4227 140.264 83.4227 140.088C83.4387 139.832 83.5107 139.664 83.6387 139.584C83.7667 139.488 83.9747 139.432 84.2627 139.416C85.0467 139.368 87.2387 139.304 90.8387 139.224C94.4387 139.128 96.3427 139.096 96.5507 139.128C96.7107 139.16 96.8227 139.24 96.8867 139.368C96.9507 139.48 97.0067 139.664 97.0547 139.92C97.1187 140.176 97.1667 140.552 97.1987 141.048L97.2467 141.84ZM114.135 155.568C114.135 155.776 114.119 155.936 114.087 156.048C114.071 156.16 114.015 156.216 113.919 156.216C113.871 156.216 113.823 156.208 113.775 156.192C113.727 156.176 113.687 156.16 113.655 156.144L113.151 156C111.999 155.52 110.743 155.264 109.383 155.232L108.663 155.208C107.607 155.208 106.207 155.328 104.463 155.568C103.023 155.76 101.567 155.928 100.095 156.072H100.023C99.8312 156.072 99.7352 155.976 99.7352 155.784C99.7352 155.672 99.7752 155.56 99.8552 155.448C100.511 154.424 100.839 153.208 100.839 151.8C100.839 151.368 100.815 150.936 100.767 150.504C100.607 149.304 100.375 147.896 100.071 146.28C99.8472 145.048 99.7352 143.976 99.7352 143.064C99.7352 142.632 99.7912 142.216 99.9032 141.816C100.031 141.4 100.207 140.944 100.431 140.448C100.751 139.824 101.271 139.448 101.991 139.32C102.439 139.224 103.007 139.176 103.695 139.176C105.183 139.176 106.559 139.32 107.823 139.608C108.575 139.784 109.231 139.888 109.791 139.92C109.951 139.936 110.191 139.944 110.511 139.944C110.943 139.944 111.319 139.912 111.639 139.848C111.959 139.8 112.247 139.704 112.503 139.56C112.599 139.512 112.743 139.424 112.935 139.296C112.951 139.28 112.991 139.24 113.055 139.176C113.135 139.096 113.207 139.08 113.271 139.128C113.287 139.144 113.303 139.2 113.319 139.296C113.351 139.392 113.375 139.456 113.391 139.488C113.439 139.632 113.487 139.808 113.535 140.016C113.599 140.224 113.647 140.376 113.679 140.472L113.775 140.952C113.903 141.496 113.983 141.904 114.015 142.176C114.015 142.224 114.031 142.344 114.063 142.536C114.095 142.712 114.111 142.88 114.111 143.04C114.111 143.328 114.055 143.512 113.943 143.592C113.879 143.656 113.799 143.712 113.703 143.76C113.479 143.888 113.311 143.968 113.199 144C112.991 144.08 112.783 144.136 112.575 144.168C112.367 144.184 112.103 144.192 111.783 144.192C110.263 144.192 108.879 143.84 107.631 143.136C107.199 142.912 106.671 142.576 106.047 142.128L105.447 141.72C104.919 141.368 104.623 141.168 104.559 141.12C103.951 140.704 103.487 140.4 103.167 140.208C102.895 140.048 102.631 139.968 102.375 139.968C102.087 139.968 101.831 140.072 101.607 140.28C101.399 140.472 101.263 140.744 101.199 141.096C101.167 141.288 101.151 141.448 101.151 141.576C101.151 141.768 101.175 141.952 101.223 142.128C101.431 142.848 101.655 143.392 101.895 143.76L102.615 144.816C103.287 145.744 103.759 146.464 104.031 146.976L104.223 147.36C104.239 147.376 104.255 147.416 104.271 147.48C104.303 147.544 104.335 147.592 104.367 147.624C104.399 147.64 104.439 147.648 104.487 147.648C104.567 147.648 104.655 147.632 104.751 147.6C104.863 147.568 104.943 147.544 104.991 147.528L106.143 147.096C106.559 146.936 106.871 146.808 107.079 146.712L108.423 146.184C108.471 146.168 108.679 146.088 109.047 145.944C109.415 145.784 109.631 145.768 109.695 145.896C109.711 145.928 109.719 146 109.719 146.112C109.719 146.304 109.695 146.592 109.647 146.976C109.599 147.344 109.567 147.584 109.551 147.696C109.455 148.336 109.375 148.848 109.311 149.232C109.295 149.28 109.279 149.36 109.263 149.472C109.247 149.584 109.199 149.64 109.119 149.64C109.039 149.64 108.951 149.584 108.855 149.472C108.775 149.36 108.703 149.28 108.639 149.232C108.415 149.056 108.191 148.912 107.967 148.8C107.519 148.56 107.015 148.416 106.455 148.368C106.343 148.368 106.191 148.368 105.999 148.368C105.823 148.352 105.663 148.352 105.519 148.368C105.391 148.368 105.239 148.392 105.063 148.44C104.903 148.488 104.815 148.552 104.799 148.632V148.68C104.799 148.744 104.823 148.872 104.871 149.064L105.111 150.024C105.271 150.696 105.375 151.2 105.423 151.536C105.471 151.856 105.495 152.352 105.495 153.024V154.608C105.559 154.608 105.631 154.616 105.711 154.632C105.807 154.632 105.911 154.624 106.023 154.608L106.695 154.488C108.039 154.264 109.055 154.072 109.743 153.912C110.943 153.64 112.007 153.144 112.935 152.424C112.999 152.376 113.103 152.296 113.247 152.184C113.391 152.072 113.535 151.992 113.679 151.944C113.871 151.896 113.999 151.904 114.063 151.968C114.111 152.016 114.135 152.112 114.135 152.256V153.672V154.392V155.28V155.568ZM129.692 139.656C130.252 139.896 130.684 140.24 130.988 140.688C131.292 141.136 131.444 141.64 131.444 142.2C131.444 143.352 131.004 144.328 130.124 145.128C129.052 146.104 127.764 146.776 126.26 147.144L125.252 147.408C124.628 147.552 124.188 147.664 123.932 147.744C123.34 147.936 122.828 148.16 122.396 148.416C121.692 148.832 121.34 149.408 121.34 150.144L121.316 153.864L121.34 154.968V155.232C121.34 155.424 121.324 155.56 121.292 155.64C121.228 155.832 121.068 155.928 120.812 155.928C120.684 155.928 120.532 155.92 120.356 155.904C120.18 155.888 120.036 155.888 119.924 155.904H118.916L116.9 155.952C116.756 155.952 116.66 155.88 116.612 155.736C116.564 155.592 116.54 155.44 116.54 155.28C116.524 154.912 116.524 154.504 116.54 154.056C116.572 153.592 116.588 153.272 116.588 153.096C116.62 152.264 116.636 151.64 116.636 151.224C116.636 150.632 116.62 149.712 116.588 148.464C116.572 147.568 116.564 146.224 116.564 144.432V140.4L116.54 139.968C116.54 139.664 116.58 139.464 116.66 139.368H116.684C116.748 139.304 116.908 139.28 117.164 139.296C117.42 139.296 117.596 139.296 117.692 139.296L124.076 139.2L124.82 139.176C125.492 139.144 125.98 139.128 126.284 139.128C127.116 139.128 127.852 139.192 128.492 139.32C128.572 139.336 128.74 139.376 128.996 139.44C129.252 139.488 129.484 139.56 129.692 139.656ZM125.588 144.192C125.908 143.728 126.068 143.264 126.068 142.8C126.068 142.368 125.932 141.976 125.66 141.624C125.388 141.256 125.012 140.976 124.532 140.784C124.468 140.768 124.396 140.744 124.316 140.712C124.236 140.68 124.14 140.656 124.028 140.64C123.196 140.512 122.444 140.456 121.772 140.472C121.74 140.472 121.66 140.48 121.532 140.496C121.42 140.512 121.34 140.536 121.292 140.568C121.228 140.616 121.18 140.688 121.148 140.784C121.132 140.864 121.124 140.976 121.124 141.12C121.092 141.344 121.076 141.68 121.076 142.128C121.076 142.272 121.076 142.456 121.076 142.68C121.092 142.904 121.092 143.168 121.076 143.472C121.044 144.304 121.028 145.552 121.028 147.216C121.028 147.472 121.092 147.6 121.22 147.6C121.332 147.6 121.492 147.52 121.7 147.36L122.948 146.424C123.78 145.816 124.396 145.352 124.796 145.032C125.132 144.76 125.396 144.48 125.588 144.192ZM146.072 139.776C146.2 139.776 146.272 139.872 146.288 140.064C146.32 140.256 146.328 140.448 146.312 140.64C146.312 141.248 146.296 142.16 146.264 143.376L146.24 144.744V146.04C146.24 147.928 146.296 150.2 146.408 152.856L146.456 154.272C146.456 154.384 146.464 154.504 146.48 154.632C146.496 154.744 146.504 154.856 146.504 154.968C146.504 155.304 146.376 155.52 146.12 155.616C145.848 155.712 145.576 155.768 145.304 155.784C145.048 155.8 144.672 155.808 144.176 155.808C143.808 155.808 143.456 155.784 143.12 155.736C143.072 155.736 142.96 155.728 142.784 155.712C142.624 155.696 142.496 155.656 142.4 155.592C142.256 155.512 142.184 155.336 142.184 155.064C142.184 154.616 142.2 153.912 142.232 152.952L142.304 146.04L142.28 145.512C142.248 145.128 142.216 144.84 142.184 144.648C142.12 144.12 141.896 143.616 141.512 143.136L141.152 142.728C141.136 142.712 141.112 142.688 141.08 142.656C141.048 142.624 141.032 142.6 141.032 142.584C141.048 142.552 141.08 142.52 141.128 142.488C141.176 142.456 141.288 142.416 141.464 142.368C141.64 142.32 141.776 142.28 141.872 142.248C142.112 142.184 142.336 142.112 142.544 142.032C142.896 141.904 143.152 141.792 143.312 141.696L144.128 141.216L144.8 140.736C145.216 140.416 145.44 140.24 145.472 140.208C145.52 140.176 145.6 140.104 145.712 139.992C145.824 139.864 145.936 139.792 146.048 139.776H146.072Z" fill="white"/>
</svg>
