<svg width="212" height="161" viewBox="0 0 212 161" fill="none" xmlns="http://www.w3.org/2000/svg">
<path d="M43 48.2561L124.942 4.2281C125.23 4.07346 125.493 3.87726 125.724 3.64583V3.64583C126.709 2.65722 128.218 2.38817 129.472 3.00223C159.712 17.8184 167.12 40.7921 166.999 50.625V82.8657C166.999 93.9114 158.044 102.866 146.999 102.866H63C51.9543 102.866 43 93.9114 43 82.8657V48.2561ZM43 48.2561L166.129 50.2509" stroke="white" stroke-width="4"/>
<circle cx="74.9256" cy="68.1638" r="10.0672" stroke="white" stroke-width="3"/>
<circle cx="119.343" cy="62.6118" r="6.36567" stroke="white" stroke-width="3"/>
<circle cx="99.4478" cy="88.9854" r="4.97761" stroke="white" stroke-width="3"/>
<circle cx="154.507" cy="70.9399" r="6.36567" stroke="white" stroke-width="3"/>
<path d="M55.0298 102.866C56.0731 99.2564 59.4868 91.9833 64.7952 91.7694C71.4307 91.502 75.8126 98.3205 76.3134 101.797" stroke="white" stroke-width="4"/>
<path d="M135.537 82.5314C140.033 82.2403 149.103 84.5274 149.418 96.0047C149.243 97.668 148.396 101.369 146.406 102.866" stroke="white" stroke-width="4"/>
<path d="M136.463 82.5078C133.032 82.6784 126.016 85.2963 125.398 94.4035C125.098 97.3881 126.351 103.255 133.761 102.846" stroke="white" stroke-width="4"/>
<path d="M76.9556 143.016C77.2756 143.64 77.4356 144.296 77.4356 144.984C77.4356 145.784 77.2036 146.56 76.7396 147.312C75.4916 149.28 73.7076 150.264 71.3876 150.264C70.2996 150.264 68.9636 150.048 67.3796 149.616C66.4836 149.392 65.8036 149.232 65.3396 149.136C65.1316 149.072 64.8836 149.04 64.5956 149.04C64.0196 149.04 63.4836 149.24 62.9876 149.64C62.8596 149.736 62.7396 149.784 62.6276 149.784C62.5316 149.784 62.4596 149.752 62.4116 149.688C62.0596 149.192 61.8836 148.664 61.8836 148.104C61.8836 147.816 61.9396 147.48 62.0516 147.096C62.3396 146.168 63.0356 145.6 64.1396 145.392C64.5556 145.328 64.8676 145.296 65.0756 145.296C66.1156 145.296 67.0836 145.648 67.9796 146.352C68.6676 146.912 69.2836 147.44 69.8276 147.936L70.1876 148.272C70.5396 148.592 70.8036 148.824 70.9796 148.968C71.3796 149.304 71.8996 149.472 72.5396 149.472C72.9076 149.472 73.2356 149.376 73.5236 149.184C73.8116 148.992 74.0276 148.72 74.1716 148.368C74.2996 148.064 74.3636 147.728 74.3636 147.36C74.3636 147.072 74.3236 146.808 74.2436 146.568C74.2116 146.424 74.1316 146.256 74.0036 146.064C73.8756 145.872 73.7476 145.712 73.6196 145.584C73.3796 145.36 73.1236 145.176 72.8516 145.032C72.5956 144.888 72.3236 144.76 72.0356 144.648C71.7636 144.52 71.5716 144.432 71.4596 144.384C71.0276 144.176 70.5636 144.024 70.0676 143.928C68.9316 143.688 67.7636 143.472 66.5636 143.28C65.6836 143.12 64.9716 142.84 64.4276 142.44C64.0436 142.168 63.7556 141.92 63.5636 141.696C62.8916 140.816 62.4836 139.824 62.3396 138.72C62.3076 138.464 62.2916 138.264 62.2916 138.12C62.2916 137.144 62.6676 136.256 63.4196 135.456C64.0756 134.768 64.7796 134.248 65.5316 133.896C66.2836 133.528 67.1236 133.328 68.0516 133.296C69.7796 133.248 71.6116 133.432 73.5476 133.848C74.1396 133.976 74.6916 134.04 75.2036 134.04C75.5876 134.04 75.8676 134.032 76.0436 134.016C76.1716 134 76.3316 133.984 76.5236 133.968C76.7316 133.936 76.9156 133.928 77.0756 133.944C77.1396 133.96 77.1716 134 77.1716 134.064C77.1396 134.176 77.0516 134.312 76.9076 134.472C76.7796 134.632 76.7076 134.728 76.6916 134.76L75.8516 135.696C75.2436 136.368 74.6676 136.96 74.1236 137.472C74.0916 137.504 74.0276 137.576 73.9316 137.688C73.8356 137.784 73.7476 137.832 73.6676 137.832C73.5716 137.832 73.4196 137.728 73.2116 137.52L72.6836 136.872C72.4596 136.584 72.2356 136.312 72.0116 136.056C71.4036 135.416 70.8916 134.944 70.4756 134.64C69.9796 134.288 69.4276 134.112 68.8196 134.112C68.1316 134.112 67.5236 134.352 66.9956 134.832C66.5796 135.216 66.3716 135.648 66.3716 136.128C66.3716 136.208 66.3876 136.344 66.4196 136.536C66.4996 136.984 66.6836 137.312 66.9716 137.52C67.3556 137.792 67.6436 137.976 67.8356 138.072C69.1956 138.792 70.4356 139.264 71.5556 139.488C72.5156 139.664 73.3796 139.936 74.1476 140.304C75.4116 140.848 76.3476 141.752 76.9556 143.016ZM93.6607 135.84C93.6607 135.952 93.6767 136.088 93.7087 136.248C93.7407 136.408 93.7567 136.528 93.7567 136.608C93.7567 136.8 93.6847 136.928 93.5407 136.992C93.4127 137.056 93.2447 137.088 93.0367 137.088C92.0607 137.088 91.3247 137.096 90.8287 137.112L88.5967 137.136H87.9247C87.6207 137.136 87.3887 137.144 87.2287 137.16C86.8767 137.176 86.5887 137.296 86.3647 137.52C86.1567 137.744 86.0527 138.016 86.0527 138.336C86.0527 138.48 86.0767 138.624 86.1247 138.768C86.3327 139.376 86.6847 139.928 87.1807 140.424C87.9967 141.288 88.7167 142.088 89.3407 142.824C90.1887 143.896 90.7887 145.064 91.1407 146.328C91.2367 146.712 91.2847 147.096 91.2847 147.48C91.2847 147.816 91.2367 148.144 91.1407 148.464C91.1087 148.576 91.0447 148.728 90.9487 148.92C90.9167 148.984 90.8847 149.056 90.8527 149.136C90.8367 149.2 90.8047 149.272 90.7567 149.352C90.7247 149.4 90.6847 149.48 90.6367 149.592C90.5887 149.688 90.5247 149.768 90.4447 149.832C90.3807 149.88 90.3007 149.904 90.2047 149.904H89.4367C88.6207 149.92 87.7887 149.936 86.9407 149.952C86.0927 149.952 85.4767 149.944 85.0927 149.928C85.0767 149.928 85.0367 149.936 84.9727 149.952C84.9087 149.952 84.8607 149.936 84.8287 149.904C84.7807 149.856 84.7567 149.8 84.7567 149.736C84.7567 149.656 84.7807 149.56 84.8287 149.448C84.8927 149.32 84.9327 149.24 84.9487 149.208C85.3167 148.408 85.5167 147.432 85.5487 146.28C85.5647 146.04 85.5727 145.688 85.5727 145.224C85.5727 143.96 85.4367 142.76 85.1647 141.624C85.1327 141.528 85.1007 141.352 85.0687 141.096C85.0047 140.744 84.9487 140.48 84.9007 140.304C84.8207 139.904 84.7807 139.552 84.7807 139.248C84.7807 138.784 84.8447 138.312 84.9727 137.832C84.9887 137.784 85.0367 137.568 85.1167 137.184C84.8927 137.168 84.5567 137.16 84.1087 137.16C83.5327 137.16 83.0207 137.192 82.5727 137.256C82.1887 137.304 81.6687 137.36 81.0127 137.424H80.9407C80.7167 137.424 80.5647 137.328 80.4847 137.136C80.2767 136.528 80.1087 135.904 79.9807 135.264C79.9647 135.136 79.9327 134.952 79.8847 134.712C79.8527 134.472 79.8367 134.264 79.8367 134.088C79.8527 133.832 79.9247 133.664 80.0527 133.584C80.1807 133.488 80.3887 133.432 80.6767 133.416C81.4607 133.368 83.6527 133.304 87.2527 133.224C90.8527 133.128 92.7567 133.096 92.9647 133.128C93.1247 133.16 93.2367 133.24 93.3007 133.368C93.3647 133.48 93.4207 133.664 93.4687 133.92C93.5327 134.176 93.5807 134.552 93.6127 135.048L93.6607 135.84ZM110.549 149.568C110.549 149.776 110.533 149.936 110.501 150.048C110.485 150.16 110.429 150.216 110.333 150.216C110.285 150.216 110.237 150.208 110.189 150.192C110.141 150.176 110.101 150.16 110.069 150.144L109.565 150C108.413 149.52 107.157 149.264 105.797 149.232L105.077 149.208C104.021 149.208 102.621 149.328 100.877 149.568C99.4372 149.76 97.9812 149.928 96.5092 150.072H96.4372C96.2452 150.072 96.1492 149.976 96.1492 149.784C96.1492 149.672 96.1892 149.56 96.2692 149.448C96.9252 148.424 97.2532 147.208 97.2532 145.8C97.2532 145.368 97.2292 144.936 97.1812 144.504C97.0212 143.304 96.7892 141.896 96.4852 140.28C96.2612 139.048 96.1492 137.976 96.1492 137.064C96.1492 136.632 96.2052 136.216 96.3172 135.816C96.4452 135.4 96.6212 134.944 96.8452 134.448C97.1652 133.824 97.6852 133.448 98.4052 133.32C98.8532 133.224 99.4212 133.176 100.109 133.176C101.597 133.176 102.973 133.32 104.237 133.608C104.989 133.784 105.645 133.888 106.205 133.92C106.365 133.936 106.605 133.944 106.925 133.944C107.357 133.944 107.733 133.912 108.053 133.848C108.373 133.8 108.661 133.704 108.917 133.56C109.013 133.512 109.157 133.424 109.349 133.296C109.365 133.28 109.405 133.24 109.469 133.176C109.549 133.096 109.621 133.08 109.685 133.128C109.701 133.144 109.717 133.2 109.733 133.296C109.765 133.392 109.789 133.456 109.805 133.488C109.853 133.632 109.901 133.808 109.949 134.016C110.013 134.224 110.061 134.376 110.093 134.472L110.189 134.952C110.317 135.496 110.397 135.904 110.429 136.176C110.429 136.224 110.445 136.344 110.477 136.536C110.509 136.712 110.525 136.88 110.525 137.04C110.525 137.328 110.469 137.512 110.357 137.592C110.293 137.656 110.213 137.712 110.117 137.76C109.893 137.888 109.725 137.968 109.613 138C109.405 138.08 109.197 138.136 108.989 138.168C108.781 138.184 108.517 138.192 108.197 138.192C106.677 138.192 105.293 137.84 104.045 137.136C103.613 136.912 103.085 136.576 102.461 136.128L101.861 135.72C101.333 135.368 101.037 135.168 100.973 135.12C100.365 134.704 99.9012 134.4 99.5812 134.208C99.3092 134.048 99.0452 133.968 98.7892 133.968C98.5012 133.968 98.2452 134.072 98.0212 134.28C97.8132 134.472 97.6772 134.744 97.6132 135.096C97.5812 135.288 97.5652 135.448 97.5652 135.576C97.5652 135.768 97.5892 135.952 97.6372 136.128C97.8452 136.848 98.0692 137.392 98.3092 137.76L99.0292 138.816C99.7012 139.744 100.173 140.464 100.445 140.976L100.637 141.36C100.653 141.376 100.669 141.416 100.685 141.48C100.717 141.544 100.749 141.592 100.781 141.624C100.813 141.64 100.853 141.648 100.901 141.648C100.981 141.648 101.069 141.632 101.165 141.6C101.277 141.568 101.357 141.544 101.405 141.528L102.557 141.096C102.973 140.936 103.285 140.808 103.493 140.712L104.837 140.184C104.885 140.168 105.093 140.088 105.461 139.944C105.829 139.784 106.045 139.768 106.109 139.896C106.125 139.928 106.133 140 106.133 140.112C106.133 140.304 106.109 140.592 106.061 140.976C106.013 141.344 105.981 141.584 105.965 141.696C105.869 142.336 105.789 142.848 105.725 143.232C105.709 143.28 105.693 143.36 105.677 143.472C105.661 143.584 105.613 143.64 105.533 143.64C105.453 143.64 105.365 143.584 105.269 143.472C105.189 143.36 105.117 143.28 105.053 143.232C104.829 143.056 104.605 142.912 104.381 142.8C103.933 142.56 103.429 142.416 102.869 142.368C102.757 142.368 102.605 142.368 102.413 142.368C102.237 142.352 102.077 142.352 101.933 142.368C101.805 142.368 101.653 142.392 101.477 142.44C101.317 142.488 101.229 142.552 101.213 142.632V142.68C101.213 142.744 101.237 142.872 101.285 143.064L101.525 144.024C101.685 144.696 101.789 145.2 101.837 145.536C101.885 145.856 101.909 146.352 101.909 147.024V148.608C101.973 148.608 102.045 148.616 102.125 148.632C102.221 148.632 102.325 148.624 102.437 148.608L103.109 148.488C104.453 148.264 105.469 148.072 106.157 147.912C107.357 147.64 108.421 147.144 109.349 146.424C109.413 146.376 109.517 146.296 109.661 146.184C109.805 146.072 109.949 145.992 110.093 145.944C110.285 145.896 110.413 145.904 110.477 145.968C110.525 146.016 110.549 146.112 110.549 146.256V147.672V148.392V149.28V149.568ZM126.106 133.656C126.666 133.896 127.098 134.24 127.402 134.688C127.706 135.136 127.858 135.64 127.858 136.2C127.858 137.352 127.418 138.328 126.538 139.128C125.466 140.104 124.178 140.776 122.674 141.144L121.666 141.408C121.042 141.552 120.602 141.664 120.346 141.744C119.754 141.936 119.242 142.16 118.81 142.416C118.106 142.832 117.754 143.408 117.754 144.144L117.73 147.864L117.754 148.968V149.232C117.754 149.424 117.738 149.56 117.706 149.64C117.642 149.832 117.482 149.928 117.226 149.928C117.098 149.928 116.946 149.92 116.77 149.904C116.594 149.888 116.45 149.888 116.338 149.904H115.33L113.314 149.952C113.17 149.952 113.074 149.88 113.026 149.736C112.978 149.592 112.954 149.44 112.954 149.28C112.938 148.912 112.938 148.504 112.954 148.056C112.986 147.592 113.002 147.272 113.002 147.096C113.034 146.264 113.05 145.64 113.05 145.224C113.05 144.632 113.034 143.712 113.002 142.464C112.986 141.568 112.978 140.224 112.978 138.432V134.4L112.954 133.968C112.954 133.664 112.994 133.464 113.074 133.368H113.098C113.162 133.304 113.322 133.28 113.578 133.296C113.834 133.296 114.01 133.296 114.106 133.296L120.49 133.2L121.234 133.176C121.906 133.144 122.394 133.128 122.698 133.128C123.53 133.128 124.266 133.192 124.906 133.32C124.986 133.336 125.154 133.376 125.41 133.44C125.666 133.488 125.898 133.56 126.106 133.656ZM122.002 138.192C122.322 137.728 122.482 137.264 122.482 136.8C122.482 136.368 122.346 135.976 122.074 135.624C121.802 135.256 121.426 134.976 120.946 134.784C120.882 134.768 120.81 134.744 120.73 134.712C120.65 134.68 120.554 134.656 120.442 134.64C119.61 134.512 118.858 134.456 118.186 134.472C118.154 134.472 118.074 134.48 117.946 134.496C117.834 134.512 117.754 134.536 117.706 134.568C117.642 134.616 117.594 134.688 117.562 134.784C117.546 134.864 117.538 134.976 117.538 135.12C117.506 135.344 117.49 135.68 117.49 136.128C117.49 136.272 117.49 136.456 117.49 136.68C117.506 136.904 117.506 137.168 117.49 137.472C117.458 138.304 117.442 139.552 117.442 141.216C117.442 141.472 117.506 141.6 117.634 141.6C117.746 141.6 117.906 141.52 118.114 141.36L119.362 140.424C120.194 139.816 120.81 139.352 121.21 139.032C121.546 138.76 121.81 138.48 122.002 138.192ZM138.502 148.728C138.614 148.712 138.742 148.656 138.886 148.56C139.03 148.464 139.134 148.4 139.198 148.368C139.854 147.952 140.51 147.64 141.166 147.432C141.71 147.272 142.486 147.104 143.494 146.928C144.678 146.736 145.734 146.512 146.662 146.256C147.734 145.952 148.47 145.384 148.87 144.552C148.966 144.312 149.078 144.216 149.206 144.264C149.27 144.296 149.326 144.344 149.374 144.408C149.422 144.456 149.462 144.512 149.494 144.576C149.91 145.312 150.118 146.032 150.118 146.736C150.118 147.328 149.99 147.912 149.734 148.488C149.382 149.272 148.814 149.808 148.03 150.096C147.406 150.32 146.782 150.408 146.158 150.36C145.438 150.296 144.606 150.184 143.662 150.024C143.086 149.912 142.51 149.768 141.934 149.592L141.502 149.496C140.974 149.352 140.43 149.28 139.87 149.28C139.39 149.28 138.958 149.344 138.574 149.472C138.494 149.504 138.39 149.552 138.262 149.616C138.134 149.664 138.03 149.688 137.95 149.688C137.822 149.688 137.726 149.616 137.662 149.472C137.582 149.328 137.534 149.168 137.518 148.992C137.502 148.816 137.494 148.704 137.494 148.656C137.462 148.272 137.446 147.984 137.446 147.792C137.446 145.216 138.526 143.136 140.686 141.552C141.166 141.2 141.854 140.744 142.75 140.184L143.926 139.416C144.422 139.096 144.958 138.712 145.534 138.264C146.062 137.864 146.526 137.304 146.926 136.584C147.07 136.296 147.142 136.032 147.142 135.792C147.142 135.408 146.99 135.096 146.686 134.856C146.382 134.616 146.03 134.512 145.63 134.544C145.102 134.624 144.822 134.672 144.79 134.688C143.398 135.024 142.318 135.8 141.55 137.016C141.326 137.368 141.038 137.912 140.686 138.648L140.302 139.416L140.158 139.68C140.158 139.696 140.142 139.736 140.11 139.8C140.094 139.864 140.07 139.904 140.038 139.92C140.022 139.936 139.998 139.944 139.966 139.944C139.918 139.944 139.838 139.888 139.726 139.776L137.638 135.912C137.606 135.848 137.574 135.752 137.542 135.624C137.542 135.544 137.55 135.496 137.566 135.48C137.598 135.464 137.662 135.448 137.758 135.432C138.11 135.384 138.478 135.296 138.862 135.168C139.262 135.056 139.958 134.808 140.95 134.424C141.798 134.104 142.75 133.888 143.806 133.776C144.126 133.744 144.374 133.728 144.55 133.728C145.302 133.728 146.086 133.88 146.902 134.184C147.67 134.488 148.31 135 148.822 135.72C149.334 136.424 149.59 137.2 149.59 138.048C149.59 139.088 149.198 140.056 148.414 140.952C148.11 141.272 147.758 141.56 147.358 141.816C146.846 142.136 146.174 142.512 145.342 142.944L143.254 144.024C142.326 144.504 141.63 144.872 141.166 145.128C140.158 145.688 139.358 146.568 138.766 147.768L138.574 148.224C138.558 148.256 138.526 148.32 138.478 148.416C138.43 148.512 138.414 148.6 138.43 148.68C138.43 148.712 138.446 148.728 138.478 148.728H138.502Z" fill="white"/>
</svg>
