<svg width="411" height="52" viewBox="0 0 411 52" fill="none" xmlns="http://www.w3.org/2000/svg">
<path d="M79.8664 32.664C82.5757 30.488 84.6984 28.7067 86.2344 27.32C87.7704 25.912 89.061 24.4507 90.1064 22.936C91.173 21.4 91.7064 19.896 91.7064 18.424C91.7064 17.0373 91.365 15.9493 90.6824 15.16C90.021 14.3493 88.9437 13.944 87.4504 13.944C85.9997 13.944 84.869 14.4027 84.0584 15.32C83.269 16.216 82.8424 17.4213 82.7784 18.936H79.9624C80.0477 16.5467 80.773 14.7013 82.1384 13.4C83.5037 12.0987 85.2637 11.448 87.4184 11.448C89.6157 11.448 91.3544 12.056 92.6344 13.272C93.9357 14.488 94.5864 16.1627 94.5864 18.296C94.5864 20.0667 94.053 21.7947 92.9864 23.48C91.941 25.144 90.7464 26.616 89.4024 27.896C88.0584 29.1547 86.341 30.6267 84.2504 32.312H95.2584V34.744H79.8664V32.664ZM98.6246 23.192C98.6246 19.5227 99.222 16.664 100.417 14.616C101.611 12.5467 103.702 11.512 106.689 11.512C109.654 11.512 111.734 12.5467 112.929 14.616C114.123 16.664 114.721 19.5227 114.721 23.192C114.721 26.9253 114.123 29.8267 112.929 31.896C111.734 33.9653 109.654 35 106.689 35C103.702 35 101.611 33.9653 100.417 31.896C99.222 29.8267 98.6246 26.9253 98.6246 23.192ZM111.841 23.192C111.841 21.336 111.713 19.768 111.457 18.488C111.222 17.1867 110.721 16.1413 109.953 15.352C109.206 14.5627 108.118 14.168 106.689 14.168C105.238 14.168 104.129 14.5627 103.361 15.352C102.614 16.1413 102.113 17.1867 101.857 18.488C101.622 19.768 101.505 21.336 101.505 23.192C101.505 25.112 101.622 26.7227 101.857 28.024C102.113 29.3253 102.614 30.3707 103.361 31.16C104.129 31.9493 105.238 32.344 106.689 32.344C108.118 32.344 109.206 31.9493 109.953 31.16C110.721 30.3707 111.222 29.3253 111.457 28.024C111.713 26.7227 111.841 25.112 111.841 23.192ZM118.366 32.664C121.076 30.488 123.198 28.7067 124.734 27.32C126.27 25.912 127.561 24.4507 128.606 22.936C129.673 21.4 130.206 19.896 130.206 18.424C130.206 17.0373 129.865 15.9493 129.182 15.16C128.521 14.3493 127.444 13.944 125.95 13.944C124.5 13.944 123.369 14.4027 122.558 15.32C121.769 16.216 121.342 17.4213 121.278 18.936H118.462C118.548 16.5467 119.273 14.7013 120.638 13.4C122.004 12.0987 123.764 11.448 125.918 11.448C128.116 11.448 129.854 12.056 131.134 13.272C132.436 14.488 133.086 16.1627 133.086 18.296C133.086 20.0667 132.553 21.7947 131.486 23.48C130.441 25.144 129.246 26.616 127.902 27.896C126.558 29.1547 124.841 30.6267 122.75 32.312H133.758V34.744H118.366V32.664ZM137.061 17.688C137.21 15.7253 137.967 14.1893 139.333 13.08C140.698 11.9707 142.469 11.416 144.645 11.416C146.095 11.416 147.343 11.6827 148.389 12.216C149.455 12.728 150.255 13.432 150.789 14.328C151.343 15.224 151.621 16.2373 151.621 17.368C151.621 18.6907 151.237 19.832 150.469 20.792C149.722 21.752 148.741 22.3707 147.525 22.648V22.808C148.911 23.1493 150.01 23.8213 150.821 24.824C151.631 25.8267 152.037 27.1387 152.037 28.76C152.037 29.976 151.759 31.0747 151.205 32.056C150.65 33.016 149.818 33.7733 148.709 34.328C147.599 34.8827 146.266 35.16 144.709 35.16C142.447 35.16 140.591 34.5733 139.141 33.4C137.69 32.2053 136.879 30.52 136.709 28.344H139.525C139.674 29.624 140.197 30.6693 141.093 31.48C141.989 32.2907 143.183 32.696 144.677 32.696C146.17 32.696 147.301 32.312 148.069 31.544C148.858 30.7547 149.253 29.7413 149.253 28.504C149.253 26.904 148.719 25.752 147.653 25.048C146.586 24.344 144.975 23.992 142.821 23.992H142.085V21.56H142.853C144.815 21.5387 146.298 21.2187 147.301 20.6C148.303 19.96 148.805 18.9787 148.805 17.656C148.805 16.5253 148.431 15.6187 147.685 14.936C146.959 14.2533 145.914 13.912 144.549 13.912C143.226 13.912 142.159 14.2533 141.349 14.936C140.538 15.6187 140.058 16.536 139.909 17.688H137.061ZM172.052 35.224C170.58 35.224 169.257 34.968 168.084 34.456C166.932 33.9227 166.025 33.1973 165.364 32.28C164.702 31.3413 164.361 30.264 164.34 29.048H167.444C167.55 30.0933 167.977 30.9787 168.724 31.704C169.492 32.408 170.601 32.76 172.052 32.76C173.438 32.76 174.526 32.4187 175.316 31.736C176.126 31.032 176.532 30.136 176.532 29.048C176.532 28.1947 176.297 27.5013 175.828 26.968C175.358 26.4347 174.772 26.0293 174.068 25.752C173.364 25.4747 172.414 25.176 171.22 24.856C169.748 24.472 168.564 24.088 167.668 23.704C166.793 23.32 166.036 22.7227 165.396 21.912C164.777 21.08 164.468 19.9707 164.468 18.584C164.468 17.368 164.777 16.2907 165.396 15.352C166.014 14.4133 166.878 13.688 167.988 13.176C169.118 12.664 170.409 12.408 171.86 12.408C173.95 12.408 175.657 12.9307 176.98 13.976C178.324 15.0213 179.081 16.408 179.252 18.136H176.052C175.945 17.2827 175.497 16.536 174.708 15.896C173.918 15.2347 172.873 14.904 171.572 14.904C170.356 14.904 169.364 15.224 168.596 15.864C167.828 16.4827 167.444 17.3573 167.444 18.488C167.444 19.2987 167.668 19.96 168.116 20.472C168.585 20.984 169.15 21.3787 169.812 21.656C170.494 21.912 171.444 22.2107 172.66 22.552C174.132 22.9573 175.316 23.3627 176.212 23.768C177.108 24.152 177.876 24.76 178.516 25.592C179.156 26.4027 179.476 27.512 179.476 28.92C179.476 30.008 179.188 31.032 178.612 31.992C178.036 32.952 177.182 33.7307 176.052 34.328C174.921 34.9253 173.588 35.224 172.052 35.224ZM199.313 17.464V35H196.401V32.408C195.846 33.304 195.068 34.008 194.065 34.52C193.084 35.0107 191.996 35.256 190.801 35.256C189.436 35.256 188.209 34.9787 187.121 34.424C186.033 33.848 185.169 32.9947 184.529 31.864C183.91 30.7333 183.601 29.3573 183.601 27.736V17.464H186.481V27.352C186.481 29.08 186.918 30.4133 187.793 31.352C188.668 32.2693 189.862 32.728 191.377 32.728C192.934 32.728 194.161 32.248 195.057 31.288C195.953 30.328 196.401 28.9307 196.401 27.096V17.464H199.313ZM207.142 20.696C207.718 19.6933 208.571 18.8613 209.702 18.2C210.854 17.5173 212.187 17.176 213.702 17.176C215.259 17.176 216.667 17.5493 217.926 18.296C219.206 19.0427 220.208 20.0987 220.934 21.464C221.659 22.808 222.022 24.376 222.022 26.168C222.022 27.9387 221.659 29.5173 220.934 30.904C220.208 32.2907 219.206 33.368 217.926 34.136C216.667 34.904 215.259 35.288 213.702 35.288C212.208 35.288 210.886 34.9573 209.734 34.296C208.603 33.6133 207.739 32.7707 207.142 31.768V43.32H204.23V17.464H207.142V20.696ZM219.046 26.168C219.046 24.8453 218.779 23.6933 218.246 22.712C217.712 21.7307 216.987 20.984 216.07 20.472C215.174 19.96 214.182 19.704 213.094 19.704C212.027 19.704 211.035 19.9707 210.118 20.504C209.222 21.016 208.496 21.7733 207.942 22.776C207.408 23.7573 207.142 24.8987 207.142 26.2C207.142 27.5227 207.408 28.6853 207.942 29.688C208.496 30.6693 209.222 31.4267 210.118 31.96C211.035 32.472 212.027 32.728 213.094 32.728C214.182 32.728 215.174 32.472 216.07 31.96C216.987 31.4267 217.712 30.6693 218.246 29.688C218.779 28.6853 219.046 27.512 219.046 26.168ZM241.855 25.56C241.855 26.1147 241.823 26.7013 241.759 27.32H227.743C227.849 29.048 228.436 30.4027 229.503 31.384C230.591 32.344 231.903 32.824 233.439 32.824C234.697 32.824 235.743 32.536 236.575 31.96C237.428 31.3627 238.025 30.5733 238.367 29.592H241.503C241.033 31.2773 240.095 32.6533 238.687 33.72C237.279 34.7653 235.529 35.288 233.439 35.288C231.775 35.288 230.281 34.9147 228.959 34.168C227.657 33.4213 226.633 32.3653 225.887 31C225.14 29.6133 224.767 28.0133 224.767 26.2C224.767 24.3867 225.129 22.7973 225.855 21.432C226.58 20.0667 227.593 19.0213 228.895 18.296C230.217 17.5493 231.732 17.176 233.439 17.176C235.103 17.176 236.575 17.5387 237.855 18.264C239.135 18.9893 240.116 19.992 240.799 21.272C241.503 22.5307 241.855 23.96 241.855 25.56ZM238.847 24.952C238.847 23.8427 238.601 22.8933 238.111 22.104C237.62 21.2933 236.948 20.6853 236.095 20.28C235.263 19.8533 234.335 19.64 233.311 19.64C231.839 19.64 230.58 20.1093 229.535 21.048C228.511 21.9867 227.924 23.288 227.775 24.952H238.847ZM248.61 20.312C249.122 19.3093 249.848 18.5307 250.786 17.976C251.746 17.4213 252.909 17.144 254.274 17.144V20.152H253.506C250.242 20.152 248.61 21.9227 248.61 25.464V35H245.698V17.464H248.61V20.312ZM264.708 35.224C263.236 35.224 261.913 34.968 260.74 34.456C259.588 33.9227 258.681 33.1973 258.02 32.28C257.359 31.3413 257.017 30.264 256.996 29.048H260.1C260.207 30.0933 260.633 30.9787 261.38 31.704C262.148 32.408 263.257 32.76 264.708 32.76C266.095 32.76 267.183 32.4187 267.972 31.736C268.783 31.032 269.188 30.136 269.188 29.048C269.188 28.1947 268.953 27.5013 268.484 26.968C268.015 26.4347 267.428 26.0293 266.724 25.752C266.02 25.4747 265.071 25.176 263.876 24.856C262.404 24.472 261.22 24.088 260.324 23.704C259.449 23.32 258.692 22.7227 258.052 21.912C257.433 21.08 257.124 19.9707 257.124 18.584C257.124 17.368 257.433 16.2907 258.052 15.352C258.671 14.4133 259.535 13.688 260.644 13.176C261.775 12.664 263.065 12.408 264.516 12.408C266.607 12.408 268.313 12.9307 269.636 13.976C270.98 15.0213 271.737 16.408 271.908 18.136H268.708C268.601 17.2827 268.153 16.536 267.364 15.896C266.575 15.2347 265.529 14.904 264.228 14.904C263.012 14.904 262.02 15.224 261.252 15.864C260.484 16.4827 260.1 17.3573 260.1 18.488C260.1 19.2987 260.324 19.96 260.772 20.472C261.241 20.984 261.807 21.3787 262.468 21.656C263.151 21.912 264.1 22.2107 265.316 22.552C266.788 22.9573 267.972 23.3627 268.868 23.768C269.764 24.152 270.532 24.76 271.172 25.592C271.812 26.4027 272.132 27.512 272.132 28.92C272.132 30.008 271.844 31.032 271.268 31.992C270.692 32.952 269.839 33.7307 268.708 34.328C267.577 34.9253 266.244 35.224 264.708 35.224ZM291.969 17.464V35H289.057V32.408C288.502 33.304 287.724 34.008 286.721 34.52C285.74 35.0107 284.652 35.256 283.457 35.256C282.092 35.256 280.865 34.9787 279.777 34.424C278.689 33.848 277.825 32.9947 277.185 31.864C276.566 30.7333 276.257 29.3573 276.257 27.736V17.464H279.137V27.352C279.137 29.08 279.574 30.4133 280.449 31.352C281.324 32.2693 282.518 32.728 284.033 32.728C285.59 32.728 286.817 32.248 287.713 31.288C288.609 30.328 289.057 28.9307 289.057 27.096V17.464H291.969ZM299.798 20.728C300.395 19.6827 301.27 18.8293 302.422 18.168C303.574 17.5067 304.886 17.176 306.358 17.176C307.937 17.176 309.355 17.5493 310.614 18.296C311.873 19.0427 312.865 20.0987 313.59 21.464C314.315 22.808 314.678 24.376 314.678 26.168C314.678 27.9387 314.315 29.5173 313.59 30.904C312.865 32.2907 311.862 33.368 310.582 34.136C309.323 34.904 307.915 35.288 306.358 35.288C304.843 35.288 303.51 34.9573 302.358 34.296C301.227 33.6347 300.374 32.792 299.798 31.768V35H296.886V11.32H299.798V20.728ZM311.702 26.168C311.702 24.8453 311.435 23.6933 310.902 22.712C310.369 21.7307 309.643 20.984 308.726 20.472C307.83 19.96 306.838 19.704 305.75 19.704C304.683 19.704 303.691 19.9707 302.774 20.504C301.878 21.016 301.153 21.7733 300.598 22.776C300.065 23.7573 299.798 24.8987 299.798 26.2C299.798 27.5227 300.065 28.6853 300.598 29.688C301.153 30.6693 301.878 31.4267 302.774 31.96C303.691 32.472 304.683 32.728 305.75 32.728C306.838 32.728 307.83 32.472 308.726 31.96C309.643 31.4267 310.369 30.6693 310.902 29.688C311.435 28.6853 311.702 27.512 311.702 26.168ZM324.719 35.288C323.375 35.288 322.17 35.064 321.103 34.616C320.036 34.1467 319.194 33.5067 318.575 32.696C317.956 31.864 317.615 30.9147 317.551 29.848H320.559C320.644 30.7227 321.05 31.4373 321.775 31.992C322.522 32.5467 323.492 32.824 324.687 32.824C325.796 32.824 326.671 32.5787 327.311 32.088C327.951 31.5973 328.271 30.9787 328.271 30.232C328.271 29.464 327.93 28.8987 327.247 28.536C326.564 28.152 325.508 27.7787 324.079 27.416C322.778 27.0747 321.711 26.7333 320.879 26.392C320.068 26.0293 319.364 25.5067 318.767 24.824C318.191 24.12 317.903 23.2027 317.903 22.072C317.903 21.176 318.17 20.3547 318.703 19.608C319.236 18.8613 319.994 18.2747 320.975 17.848C321.956 17.4 323.076 17.176 324.335 17.176C326.276 17.176 327.844 17.6667 329.039 18.648C330.234 19.6293 330.874 20.9733 330.959 22.68H328.047C327.983 21.7627 327.61 21.0267 326.927 20.472C326.266 19.9173 325.37 19.64 324.239 19.64C323.194 19.64 322.362 19.864 321.743 20.312C321.124 20.76 320.815 21.3467 320.815 22.072C320.815 22.648 320.996 23.128 321.359 23.512C321.743 23.8747 322.212 24.1733 322.767 24.408C323.343 24.6213 324.132 24.8667 325.135 25.144C326.394 25.4853 327.418 25.8267 328.207 26.168C328.996 26.488 329.668 26.9787 330.223 27.64C330.799 28.3013 331.098 29.1653 331.119 30.232C331.119 31.192 330.852 32.056 330.319 32.824C329.786 33.592 329.028 34.2 328.047 34.648C327.087 35.0747 325.978 35.288 324.719 35.288Z" fill="white"/>
<circle cx="52" cy="26" r="18" stroke="white" stroke-width="2"/>
<path d="M41.0166 23.832C41.0166 21.656 41.5073 19.704 42.4886 17.976C43.47 16.2267 44.8033 14.8613 46.4886 13.88C48.1953 12.8987 50.0833 12.408 52.1526 12.408C54.5846 12.408 56.7073 12.9947 58.5206 14.168C60.334 15.3413 61.6566 17.0053 62.4886 19.16H59.0006C58.382 17.816 57.486 16.7813 56.3126 16.056C55.1606 15.3307 53.774 14.968 52.1526 14.968C50.5953 14.968 49.198 15.3307 47.9606 16.056C46.7233 16.7813 45.7526 17.816 45.0486 19.16C44.3446 20.4827 43.9926 22.04 43.9926 23.832C43.9926 25.6027 44.3446 27.16 45.0486 28.504C45.7526 29.8267 46.7233 30.8507 47.9606 31.576C49.198 32.3013 50.5953 32.664 52.1526 32.664C53.774 32.664 55.1606 32.312 56.3126 31.608C57.486 30.8827 58.382 29.848 59.0006 28.504H62.4886C61.6566 30.6373 60.334 32.2907 58.5206 33.464C56.7073 34.616 54.5846 35.192 52.1526 35.192C50.0833 35.192 48.1953 34.712 46.4886 33.752C44.8033 32.7707 43.47 31.416 42.4886 29.688C41.5073 27.96 41.0166 26.008 41.0166 23.832Z" fill="white"/>
</svg>
