<?xml version="1.0" encoding="UTF-8"?>
<svg id="Layer_1" data-name="Layer 1" xmlns="http://www.w3.org/2000/svg" viewBox="0 0 515.76 273.04">
  <defs>
    <style>
      .cls-1 {
        fill: none;
      }

      .cls-1, .cls-2 {
        stroke: #fff;
        stroke-miterlimit: 10;
        stroke-width: 3px;
      }

      .cls-2 {
        fill: #fff;
      }
    </style>
  </defs>
  <path class="cls-1" d="m92.87,71.32c0,4.7-1.36,9.26-4.09,13.68-7.33,11.56-17.81,17.34-31.44,17.34-6.39,0-14.24-1.27-23.55-3.81-5.27-1.32-9.26-2.26-11.98-2.82-1.22-.37-2.68-.56-4.37-.56-3.38,0-6.53,1.18-9.45,3.52-.75.56-1.46.85-2.12.85-.56,0-.99-.19-1.27-.56-2.07-2.91-3.1-6.01-3.1-9.31,0-1.69.33-3.67.99-5.92,1.69-5.45,5.78-8.79,12.27-10.01,2.44-.37,4.28-.56,5.5-.56,6.11,0,11.8,2.07,17.06,6.2,4.04,3.29,7.66,6.39,10.86,9.31l2.11,1.97c2.07,1.88,3.62,3.24,4.65,4.09,2.35,1.97,5.4,2.96,9.17,2.96,2.16,0,4.09-.56,5.78-1.69s2.96-2.73,3.81-4.79c.75-1.78,1.13-3.76,1.13-5.92,0-1.69-.24-3.24-.71-4.65-.19-.85-.66-1.83-1.41-2.96-.75-1.13-1.5-2.07-2.26-2.82-1.41-1.32-2.89-2.4-4.44-3.24-1.55-.85-3.15-1.62-4.79-2.33-1.65-.7-2.8-1.2-3.45-1.48-2.54-1.22-5.27-2.11-8.18-2.68-6.68-1.41-13.54-2.68-20.59-3.81-5.17-.94-9.35-2.58-12.55-4.94-2.26-1.6-3.95-3.05-5.08-4.37-3.95-5.17-6.34-11-7.19-17.48-.19-1.5-.28-2.68-.28-3.52,0-5.73,2.21-10.95,6.63-15.65,3.85-4.04,7.99-7.12,12.41-9.24,4.42-2.11,9.35-3.26,14.81-3.45,10.15-.28,20.91.8,32.29,3.24,3.48.75,6.72,1.13,9.73,1.13,2.26,0,3.9-.05,4.94-.14.75-.09,1.71-.21,2.89-.35,1.17-.14,2.23-.16,3.17-.07.37.09.56.33.56.71-.19.66-.68,1.46-1.48,2.4-.8.94-1.25,1.5-1.34,1.69l-4.94,5.5c-3.57,3.95-6.96,7.43-10.15,10.43-.19.19-.56.59-1.13,1.2-.56.61-1.08.92-1.55.92-.56,0-1.46-.61-2.68-1.83l-3.1-3.81c-1.32-1.69-2.63-3.29-3.95-4.79-3.57-3.76-6.58-6.53-9.02-8.32-2.91-2.07-6.16-3.1-9.73-3.1-4.04,0-7.61,1.41-10.72,4.23-2.45,2.26-3.67,4.79-3.67,7.61,0,.47.09,1.27.28,2.4.47,2.63,1.55,4.56,3.24,5.78,2.26,1.6,3.95,2.68,5.08,3.24,7.99,4.23,15.27,7,21.85,8.32,5.64,1.04,10.72,2.63,15.23,4.79,7.42,3.2,12.92,8.51,16.5,15.93,1.88,3.67,2.82,7.52,2.82,11.56Z"/>
  <path class="cls-1" d="m198.62,22.11c0,3.48-.38,6.58-1.13,9.31-.47,2.26-.94,4.18-1.41,5.78-1.22,5.45-2.16,9.31-2.82,11.56-1.6,5.55-2.4,11.61-2.4,18.19.09,5.55.14,13.77.14,24.67,0,2.26-.05,3.95-.14,5.08v.71c0,1.13-.38,1.83-1.13,2.11-.09,0-.28.07-.56.21-.28.14-.56.21-.85.21l-30.88.28c-1.5,0-2.11-.52-1.83-1.55.28-.94.71-1.74,1.27-2.4,1.32-1.78,2.07-3.38,2.26-4.79,0-.19.07-.54.21-1.06.14-.52.07-.82-.21-.92h-.42c-.66,0-1.08.05-1.27.14l-3.95,1.83c-6.2,3.01-10.86,5.17-13.96,6.49-3.38,1.5-6.96,2.26-10.72,2.26-3.2,0-6.44-.56-9.73-1.69-3.95-1.32-6.77-3.85-8.46-7.61-2.45-5.17-3.67-10.9-3.67-17.2,0-8.55,1.36-17.06,4.09-25.52,1.13-3.76,2.04-7.61,2.75-11.56.7-3.95,1.34-8.55,1.9-13.82.09-.75.14-1.88.14-3.38,0-2.07-.05-3.62-.14-4.65-.09-.56-.21-1.48-.35-2.75-.14-1.27-.35-2.37-.63-3.31-.09-.37-.54-1.15-1.34-2.33-.8-1.17-1.11-2.09-.92-2.75v-.14c.47-.66,2.07-.99,4.79-.99,10.06,0,17.58-.09,22.56-.28,1.41-.09,2.42.05,3.03.42.61.38,1.24,1.18,1.9,2.4,2.07,3.95,3.1,7.71,3.1,11.28,0,5.08-1.69,10.01-5.08,14.81-1.79,2.54-3.81,5.03-6.06,7.47-2.26,2.45-3.57,3.86-3.95,4.23-4.14,4.42-8.37,9.96-12.69,16.64-1.79,2.82-3.1,5.9-3.95,9.24-.85,3.34-1.46,7.07-1.83,11.21v.71c.19,4.42,1.36,7.9,3.53,10.43,2.16,2.54,5.12,3.81,8.88,3.81,1.78,0,3.9-.37,6.34-1.13,5.17-1.6,9.87-4.46,14.1-8.6,6.49-6.58,11.65-14.66,15.51-24.25,3.29-8.65,5.54-16.92,6.77-24.82.37-2.16.56-4.6.56-7.33,0-3.48-.42-6.91-1.27-10.29-.75-3.01-1.88-5.73-3.38-8.18-.28-.47-.99-1.46-2.11-2.96-1.13-1.5-1.69-2.68-1.69-3.52s.75-1.27,2.26-1.27c5.92-.09,14.76-.14,26.51-.14,1.97,0,3.29.24,3.95.71.66.47,1.27,1.65,1.83,3.52,1.69,5.55,2.54,10.72,2.54,15.51Z"/>
  <path class="cls-1" d="m297.6,10.83c1.78,2.63,2.68,5.59,2.68,8.88,0,6.77-2.59,12.5-7.75,17.2-6.3,5.73-13.87,9.68-22.7,11.84l-5.92,1.55c-3.67.85-6.25,1.5-7.75,1.97-3.48,1.13-6.49,2.45-9.02,3.95-4.14,2.45-6.2,5.83-6.2,10.15l-.14,21.85.14,6.49v1.55c0,1.13-.09,1.93-.28,2.4-.38,1.13-1.32,1.69-2.82,1.69-.75,0-1.65-.05-2.68-.14-1.04-.09-1.88-.09-2.54,0h-5.92l-11.84.28c-.85,0-1.41-.42-1.69-1.27-.28-.85-.42-1.74-.42-2.68-.09-2.16-.07-4.58.07-7.26.14-2.68.21-4.53.21-5.57.19-4.89.28-8.55.28-11,0-3.48-.09-8.88-.28-16.21-.09-5.26-.14-13.16-.14-23.69V9.14l-.14-2.54c0-1.78.23-2.96.71-3.52h.14c.37-.37,1.32-.54,2.82-.49,1.5.05,2.54.07,3.1.07l37.51-.56,4.37-.14c3.95-.19,6.81-.28,8.6-.28,4.89,0,9.21.38,12.97,1.13.47.09,1.46.31,2.96.63,1.5.33,2.87.78,4.09,1.34,3.29,1.41,5.83,3.43,7.61,6.06Zm-28.91,12.41c0-2.54-.8-4.86-2.4-6.98-1.6-2.12-3.81-3.74-6.63-4.86-.38-.09-.8-.23-1.27-.42-.47-.19-1.04-.33-1.69-.42-4.89-.75-9.31-1.08-13.25-.99-.19,0-.63.05-1.34.14-.71.09-1.2.24-1.48.42-.38.28-.63.68-.78,1.2-.14.52-.21,1.2-.21,2.04-.19,1.32-.28,3.29-.28,5.92,0,.85.02,1.93.07,3.24.05,1.32.02,2.87-.07,4.65-.19,4.89-.28,12.22-.28,22,0,1.5.37,2.26,1.13,2.26.66,0,1.6-.47,2.82-1.41l7.33-5.5c4.89-3.57,8.51-6.3,10.86-8.18,1.97-1.6,3.52-3.24,4.65-4.94,1.88-2.73,2.82-5.45,2.82-8.18Z"/>
  <path class="cls-1" d="m398.98,98.25c0,1.22-.09,2.16-.28,2.82-.09.66-.42.99-.99.99-.28,0-.56-.05-.85-.14-.28-.09-.52-.19-.71-.28l-2.96-.85c-6.77-2.82-14.15-4.32-22.14-4.51l-4.23-.14c-6.2,0-14.43.7-24.67,2.11-8.46,1.13-17.01,2.12-25.66,2.96h-.42c-1.13,0-1.69-.56-1.69-1.69,0-.66.23-1.32.71-1.97,3.85-6.01,5.78-13.16,5.78-21.43,0-2.54-.14-5.08-.42-7.61-.94-7.05-2.3-15.32-4.09-24.82-1.32-7.24-1.97-13.54-1.97-18.89,0-2.54.35-5.01,1.06-7.4s1.71-5.05,3.03-7.97c1.88-3.67,4.94-5.87,9.17-6.63,2.63-.56,5.97-.85,10.01-.85,8.74,0,16.83.85,24.25,2.54,4.42,1.04,8.27,1.65,11.56,1.83.94.09,2.35.14,4.23.14,2.54,0,4.75-.19,6.63-.56,1.88-.28,3.57-.85,5.08-1.69.56-.28,1.41-.8,2.54-1.55.09-.09.35-.35.78-.78.42-.42.82-.49,1.2-.21.09.09.21.42.35.99.14.56.26.94.35,1.13.28.85.59,1.88.92,3.1.33,1.22.59,2.11.78,2.68l.56,2.82c.75,3.2,1.22,5.59,1.41,7.19,0,.28.09.96.28,2.04.19,1.08.28,2.09.28,3.03,0,1.69-.33,2.77-.99,3.24-.38.38-.85.71-1.41.99-1.32.75-2.3,1.22-2.96,1.41-1.22.47-2.45.78-3.67.92-1.22.14-2.77.21-4.65.21-8.93,0-17.06-2.07-24.39-6.2-2.54-1.31-5.64-3.29-9.31-5.92l-3.52-2.4c-3.1-2.07-4.84-3.24-5.22-3.52-3.57-2.44-6.3-4.23-8.18-5.36-1.6-.94-3.15-1.41-4.65-1.41-1.69,0-3.17.59-4.44,1.76-1.27,1.18-2.09,2.8-2.47,4.86-.19,1.13-.28,2.07-.28,2.82,0,1.13.14,2.21.42,3.24,1.22,4.23,2.54,7.43,3.95,9.59l4.23,6.2c3.95,5.45,6.72,9.68,8.32,12.69l1.13,2.26c.09.09.21.33.35.7.14.38.3.63.49.78.19.14.42.21.7.21.47,0,1.01-.09,1.62-.28.61-.19,1.06-.33,1.34-.42l6.77-2.54c2.44-.94,4.28-1.69,5.5-2.26l7.9-3.1c.28-.09,1.5-.59,3.67-1.48,2.16-.89,3.43-.96,3.81-.21.09.19.14.61.14,1.27,0,1.13-.14,2.8-.42,5.01-.28,2.21-.47,3.64-.56,4.3-.56,3.76-1.04,6.77-1.41,9.02-.09.28-.19.75-.28,1.41-.09.66-.38.99-.85.99s-.96-.33-1.48-.99c-.52-.66-.96-1.13-1.34-1.41-1.32-1.03-2.63-1.88-3.95-2.54-2.63-1.41-5.59-2.26-8.88-2.54-.66,0-1.53-.02-2.61-.07-1.08-.05-2.04-.02-2.89.07-.75,0-1.62.14-2.61.42-.99.28-1.53.66-1.62,1.13v.28c0,.38.14,1.13.42,2.26l1.41,5.64c.94,3.95,1.55,6.91,1.83,8.88.28,1.88.42,4.79.42,8.74v9.31c.37,0,.82.02,1.34.07.52.05,1.1.02,1.76-.07l3.95-.7c7.9-1.32,13.86-2.44,17.91-3.38,7.05-1.6,13.3-4.51,18.75-8.74.38-.28.99-.75,1.83-1.41.85-.66,1.69-1.13,2.54-1.41,1.13-.28,1.88-.23,2.26.14.28.28.42.85.42,1.69v19.46Z"/>
  <path class="cls-1" d="m513.82,100.02c.42.52.54.92.35,1.2-.47.56-2.26,1.1-5.36,1.62-3.1.52-5.69.82-7.75.92-5.08.19-9.87-.42-14.38-1.83-2.16-.66-4-2.02-5.5-4.09-1.5-2.07-3.29-4.94-5.36-8.6-.38-.66-1.15-2.04-2.33-4.16-1.18-2.11-2.35-4.02-3.53-5.71-1.18-1.69-2.38-3.19-3.6-4.51-1.22-1.41-2.59-2.63-4.09-3.67-1.5-1.03-3.43-2.26-5.78-3.67-.38-.19-1.25-.68-2.61-1.48-1.36-.8-2.56-1.64-3.59-2.54-1.04-.89-1.83-1.85-2.4-2.89-.56-1.13-.85-2.3-.85-3.52,0-2.35.89-4.51,2.68-6.49.66-.66,1.74-1.55,3.24-2.68l2.26-1.69,2.68-1.97c3.01-2.26,5.12-3.99,6.35-5.22,3.19-3.19,4.79-6.96,4.79-11.28,0-2.16-.33-4.09-.99-5.78-1.5-3.95-4.23-6.63-8.18-8.04-3.76-1.5-7.61-2.26-11.56-2.26-.75,0-1.97.09-3.67.28-1.5.19-2.45.78-2.82,1.76-.38.99-.56,1.76-.56,2.33v80.79c0,1.6-.21,2.73-.63,3.38s-1.39,1.03-2.89,1.13c-8.27.19-14.43.28-18.47.28-2.73,0-4.44-.24-5.15-.71s-1.06-1.74-1.06-3.81l.14-9.87c.19-7.14.28-12.41.28-15.79v-10.01c0-13.54-.05-23.69-.14-30.46v-15.51l-.14-6.34c0-2.35.19-3.88.56-4.58.38-.71,1.17-1.06,2.4-1.06,2.63,0,5.36.14,8.18.42.94.09,2.07.19,3.38.28,1.32.09,2.87.14,4.65.14,5.45-.09,10.2-.23,14.24-.42,4.04-.19,7.38-.33,10.01-.42l12.13-.42c6.86-.19,12.41.33,16.64,1.55,2.63.75,4.56,1.46,5.78,2.12,3.1,1.6,5.47,3.86,7.12,6.77,1.64,2.91,2.47,6.11,2.47,9.59,0,2.07-.24,3.95-.71,5.64-1.69,6.49-4.98,11-9.87,13.54-2.73,1.41-5.78,2.59-9.17,3.52-1.6.38-2.68.61-3.24.71-1.69.38-4.84.99-9.45,1.83-.94.19-2.07.35-3.38.49-1.32.14-2.35.26-3.1.35-.38.09-1.25.21-2.61.35-1.36.14-2.47.54-3.31,1.2l-.71.56c-.09.19-.14.47-.14.85,0,.66.19,1.13.56,1.41.38.28,1.03.42,1.97.42h3.81c.37,0,.94-.02,1.69-.07.75-.05,1.41-.02,1.97.07l3.95.42c.85.09,1.57.24,2.19.42.61.19,1.15.33,1.62.42,7.61,1.88,13.82,5.03,18.61,9.45,2.72,2.45,4.79,5.05,6.2,7.83,1.41,2.77,3.19,6.89,5.36,12.34,1.13,3.38,2.16,5.88,3.1,7.47.66,1.13,1.55,2.21,2.68,3.24,1.13,1.04,2.26,1.97,3.38,2.82.66.56,1.2,1.11,1.62,1.62Z"/>
  <path class="cls-2" d="m92.87,240.52c0,4.7-1.36,9.26-4.09,13.68-7.33,11.56-17.81,17.34-31.44,17.34-6.39,0-14.24-1.27-23.55-3.81-5.27-1.32-9.26-2.26-11.98-2.82-1.22-.37-2.68-.56-4.37-.56-3.38,0-6.53,1.18-9.45,3.52-.75.56-1.46.85-2.12.85-.56,0-.99-.19-1.27-.56-2.07-2.91-3.1-6.01-3.1-9.31,0-1.69.33-3.67.99-5.92,1.69-5.45,5.78-8.79,12.27-10.01,2.44-.37,4.28-.56,5.5-.56,6.11,0,11.8,2.07,17.06,6.2,4.04,3.29,7.66,6.39,10.86,9.31l2.11,1.97c2.07,1.88,3.62,3.24,4.65,4.09,2.35,1.97,5.4,2.96,9.17,2.96,2.16,0,4.09-.56,5.78-1.69s2.96-2.73,3.81-4.79c.75-1.78,1.13-3.76,1.13-5.92,0-1.69-.24-3.24-.71-4.65-.19-.85-.66-1.83-1.41-2.96-.75-1.13-1.5-2.07-2.26-2.82-1.41-1.31-2.89-2.4-4.44-3.24-1.55-.85-3.15-1.62-4.79-2.33-1.65-.71-2.8-1.2-3.45-1.48-2.54-1.22-5.27-2.12-8.18-2.68-6.68-1.41-13.54-2.68-20.59-3.81-5.17-.94-9.35-2.58-12.55-4.93-2.26-1.6-3.95-3.05-5.08-4.37-3.95-5.17-6.34-11-7.19-17.48-.19-1.5-.28-2.68-.28-3.53,0-5.73,2.21-10.95,6.63-15.65,3.85-4.04,7.99-7.12,12.41-9.24,4.42-2.11,9.35-3.26,14.81-3.45,10.15-.28,20.91.8,32.29,3.24,3.48.75,6.72,1.13,9.73,1.13,2.26,0,3.9-.05,4.94-.14.75-.09,1.71-.21,2.89-.35,1.17-.14,2.23-.16,3.17-.07.37.09.56.33.56.71-.19.66-.68,1.46-1.48,2.4-.8.94-1.25,1.5-1.34,1.69l-4.94,5.5c-3.57,3.95-6.96,7.43-10.15,10.43-.19.19-.56.59-1.13,1.2-.56.61-1.08.92-1.55.92-.56,0-1.46-.61-2.68-1.83l-3.1-3.81c-1.32-1.69-2.63-3.29-3.95-4.79-3.57-3.76-6.58-6.53-9.02-8.32-2.91-2.07-6.16-3.1-9.73-3.1-4.04,0-7.61,1.41-10.72,4.23-2.45,2.26-3.67,4.79-3.67,7.61,0,.47.09,1.27.28,2.4.47,2.63,1.55,4.56,3.24,5.78,2.26,1.6,3.95,2.68,5.08,3.24,7.99,4.23,15.27,7,21.85,8.32,5.64,1.04,10.72,2.63,15.23,4.79,7.42,3.2,12.92,8.51,16.5,15.93,1.88,3.67,2.82,7.52,2.82,11.56Z"/>
  <path class="cls-2" d="m198.62,191.31c0,3.48-.38,6.58-1.13,9.31-.47,2.26-.94,4.18-1.41,5.78-1.22,5.45-2.16,9.31-2.82,11.56-1.6,5.55-2.4,11.61-2.4,18.19.09,5.55.14,13.77.14,24.67,0,2.26-.05,3.95-.14,5.08v.71c0,1.13-.38,1.83-1.13,2.12-.09,0-.28.07-.56.21-.28.14-.56.21-.85.21l-30.88.28c-1.5,0-2.11-.51-1.83-1.55.28-.94.71-1.74,1.27-2.4,1.32-1.79,2.07-3.38,2.26-4.79,0-.19.07-.54.21-1.06.14-.52.07-.82-.21-.92h-.42c-.66,0-1.08.05-1.27.14l-3.95,1.83c-6.2,3.01-10.86,5.17-13.96,6.49-3.38,1.5-6.96,2.26-10.72,2.26-3.2,0-6.44-.56-9.73-1.69-3.95-1.32-6.77-3.85-8.46-7.61-2.45-5.17-3.67-10.9-3.67-17.2,0-8.55,1.36-17.06,4.09-25.52,1.13-3.76,2.04-7.61,2.75-11.56.7-3.95,1.34-8.55,1.9-13.82.09-.75.14-1.88.14-3.38,0-2.07-.05-3.62-.14-4.65-.09-.56-.21-1.48-.35-2.75-.14-1.27-.35-2.37-.63-3.31-.09-.37-.54-1.15-1.34-2.33-.8-1.17-1.11-2.09-.92-2.75v-.14c.47-.66,2.07-.99,4.79-.99,10.06,0,17.58-.09,22.56-.28,1.41-.09,2.42.05,3.03.42.61.38,1.24,1.18,1.9,2.4,2.07,3.95,3.1,7.71,3.1,11.28,0,5.08-1.69,10.01-5.08,14.81-1.79,2.54-3.81,5.03-6.06,7.47-2.26,2.45-3.57,3.86-3.95,4.23-4.14,4.42-8.37,9.96-12.69,16.64-1.79,2.82-3.1,5.9-3.95,9.24-.85,3.34-1.46,7.07-1.83,11.21v.71c.19,4.42,1.36,7.9,3.53,10.43,2.16,2.54,5.12,3.81,8.88,3.81,1.78,0,3.9-.38,6.34-1.13,5.17-1.6,9.87-4.46,14.1-8.6,6.49-6.58,11.65-14.66,15.51-24.25,3.29-8.65,5.54-16.92,6.77-24.82.37-2.16.56-4.6.56-7.33,0-3.48-.42-6.91-1.27-10.29-.75-3.01-1.88-5.73-3.38-8.18-.28-.47-.99-1.46-2.11-2.96-1.13-1.5-1.69-2.68-1.69-3.52s.75-1.27,2.26-1.27c5.92-.09,14.76-.14,26.51-.14,1.97,0,3.29.24,3.95.71.66.47,1.27,1.65,1.83,3.52,1.69,5.55,2.54,10.72,2.54,15.51Z"/>
  <path class="cls-2" d="m309.72,227.83c1.88,3.76,2.82,7.75,2.82,11.99,0,2.92-.49,5.71-1.48,8.39-.99,2.68-2.42,5-4.3,6.98-8.27,8.27-17.44,12.78-27.5,13.54-5.73.47-14.15.89-25.24,1.27-1.97.09-5.03.05-9.16-.14l-3.1-.14-15.23-.42c-.75-.09-1.72-.09-2.89,0-1.18.09-2.19.14-3.03.14-2.16,0-4.04-.33-5.64-.99-.19,0-.38-.09-.56-.28-1.13-.75-1.69-2.07-1.69-3.95,0-.85.07-1.64.21-2.4.14-.75.21-1.5.21-2.26l.14-12.27v-24.53c0-12.03-.05-21.05-.14-27.07v-13.68l-.14-5.5c0-2.16.21-3.55.63-4.16.42-.61,1.2-.92,2.33-.92,1.6,0,4.09.09,7.47.28,2.44.28,4.89.42,7.33.42,4.51,0,11.37-.19,20.59-.56,2.26-.09,5.08-.19,8.46-.28,3.38-.09,7.33-.14,11.84-.14,5.17,0,9.63.42,13.4,1.27,2.63.75,4.56,1.41,5.78,1.97,3.01,1.41,5.36,3.41,7.05,5.99,1.69,2.59,2.54,5.43,2.54,8.53,0,1.41-.24,3.06-.71,4.94-1.6,5.55-4.89,9.54-9.87,11.98-3.57,1.69-7.71,2.92-12.41,3.67l-16.36,2.82c-2.16.28-3.81.59-4.94.92-1.13.33-2.16.92-3.1,1.76-.56.56-.85,1.22-.85,1.97,0,.56.19,1.01.56,1.34.37.33.89.45,1.55.35,2.35-.37,4.32-.85,5.92-1.41,6.3-2.07,12.92-3.1,19.88-3.1,2.54,0,5.08.14,7.61.42,4.89.38,9.49,1.88,13.82,4.51,3.57,2.07,6.3,4.98,8.18,8.74Zm-20.16,19.18c0-1.97-.47-3.85-1.41-5.64-.94-1.78-2.26-3.34-3.95-4.65-3.1-2.35-6.3-3.57-9.59-3.67-2.45-.19-4.28-.23-5.5-.14-4.51.28-9.12-.56-13.82-2.54-2.16-.75-4.09-1.88-5.78-3.38-2.45-2.16-3.67-4.46-3.67-6.91s1.17-4.75,3.52-6.91c.75-.75,1.74-1.5,2.96-2.26,1.22-.75,2.12-1.32,2.68-1.69l3.24-2.26c2.63-1.69,4.56-3.05,5.78-4.09,3.1-2.82,4.65-6.16,4.65-10.01,0-1.78-.33-3.48-.99-5.08-1.41-3.38-4.09-5.78-8.04-7.19-3.95-1.22-7.85-1.83-11.7-1.83-1.6,0-2.77.05-3.52.14-1.41.19-2.35.8-2.82,1.83-.47,1.04-.71,2.4-.71,4.09,0,3.38-.09,8.37-.28,14.95-.19,10.53-.28,18.38-.28,23.55v8.74c0,3.57.09,8.93.28,16.07,0,3.48.05,6.06.14,7.76,0,2.26.05,3.95.14,5.08,0,.85.05,1.5.14,1.97,0,.38.14.71.42.99.37.38,1.06.59,2.04.63.99.05,1.67.07,2.04.07,9.02,0,15.79.09,20.3.28,7.52.28,14.33-2.96,20.44-9.73,2.16-2.44,3.24-5.17,3.24-8.18Z"/>
  <path class="cls-2" d="m418.01,240.52c0,4.7-1.36,9.26-4.09,13.68-7.33,11.56-17.81,17.34-31.44,17.34-6.39,0-14.24-1.27-23.55-3.81-5.27-1.32-9.26-2.26-11.98-2.82-1.22-.37-2.68-.56-4.37-.56-3.38,0-6.53,1.18-9.45,3.52-.75.56-1.46.85-2.12.85-.56,0-.99-.19-1.27-.56-2.07-2.91-3.1-6.01-3.1-9.31,0-1.69.33-3.67.99-5.92,1.69-5.45,5.78-8.79,12.27-10.01,2.44-.37,4.28-.56,5.5-.56,6.11,0,11.8,2.07,17.06,6.2,4.04,3.29,7.66,6.39,10.86,9.31l2.12,1.97c2.07,1.88,3.62,3.24,4.65,4.09,2.35,1.97,5.4,2.96,9.17,2.96,2.16,0,4.09-.56,5.78-1.69,1.69-1.13,2.96-2.73,3.81-4.79.75-1.78,1.13-3.76,1.13-5.92,0-1.69-.24-3.24-.71-4.65-.19-.85-.66-1.83-1.41-2.96-.75-1.13-1.5-2.07-2.26-2.82-1.41-1.31-2.89-2.4-4.44-3.24-1.55-.85-3.15-1.62-4.79-2.33-1.65-.71-2.8-1.2-3.46-1.48-2.54-1.22-5.26-2.12-8.18-2.68-6.68-1.41-13.54-2.68-20.59-3.81-5.17-.94-9.35-2.58-12.55-4.93-2.26-1.6-3.95-3.05-5.08-4.37-3.95-5.17-6.34-11-7.19-17.48-.19-1.5-.28-2.68-.28-3.53,0-5.73,2.21-10.95,6.63-15.65,3.85-4.04,7.99-7.12,12.41-9.24,4.42-2.11,9.35-3.26,14.81-3.45,10.15-.28,20.91.8,32.29,3.24,3.48.75,6.72,1.13,9.73,1.13,2.26,0,3.9-.05,4.94-.14.75-.09,1.71-.21,2.89-.35,1.17-.14,2.23-.16,3.17-.07.38.09.56.33.56.71-.19.66-.68,1.46-1.48,2.4-.8.94-1.25,1.5-1.34,1.69l-4.93,5.5c-3.57,3.95-6.96,7.43-10.15,10.43-.19.19-.56.59-1.13,1.2-.56.61-1.08.92-1.55.92-.56,0-1.46-.61-2.68-1.83l-3.1-3.81c-1.32-1.69-2.63-3.29-3.95-4.79-3.57-3.76-6.58-6.53-9.02-8.32-2.92-2.07-6.16-3.1-9.73-3.1-4.04,0-7.61,1.41-10.72,4.23-2.45,2.26-3.67,4.79-3.67,7.61,0,.47.09,1.27.28,2.4.47,2.63,1.55,4.56,3.24,5.78,2.26,1.6,3.95,2.68,5.08,3.24,7.99,4.23,15.27,7,21.86,8.32,5.64,1.04,10.72,2.63,15.23,4.79,7.42,3.2,12.92,8.51,16.5,15.93,1.88,3.67,2.82,7.52,2.82,11.56Z"/>
  <path class="cls-2" d="m462.28,193.71c0,3.2-.28,5.83-.85,7.9-1.13,4.42-2.3,8.13-3.53,11.14l-.85,1.97-4.37,10.58-1.41,3.24c-.75,1.6-1.79,4-3.1,7.19-.66,1.32-1.18,2.54-1.55,3.67-.09.09-.17.21-.21.35-.05.14-.12.21-.21.21-.19,0-.28-.14-.28-.42l-.42-.99c-.09-.37-.19-.71-.28-.99-.09-.28-.19-.56-.28-.85l-1.41-3.52-2.54-6.77c-2.73-6.39-5.08-13.58-7.05-21.57-1.22-5.26-1.83-9.59-1.83-12.97s.49-6.3,1.48-8.74c.99-2.44,2.75-4.42,5.29-5.92,2.35-1.41,4.93-2.12,7.75-2.12,2.16,0,4.21.42,6.13,1.27,1.93.85,3.64,2.07,5.15,3.67,2.44,2.73,3.85,5.88,4.23,9.45.09.94.14,2.35.14,4.23Zm-6.27,56.89c2.3,2.3,3.46,4.96,3.46,7.97,0,3.48-1.27,6.39-3.81,8.74-2.54,2.35-5.73,3.52-9.59,3.52-2.82,0-5.41-1.2-7.75-3.59-2.35-2.4-3.53-5.05-3.53-7.97,0-3.19,1.32-6.04,3.95-8.53,2.63-2.49,5.64-3.74,9.02-3.74,3.19.09,5.94,1.29,8.25,3.6Z"/>
</svg>