<svg width="212" height="242" viewBox="0 0 212 242" fill="none" xmlns="http://www.w3.org/2000/svg">
<path d="M130 89.7414C133.571 90.4556 142 90.9414 147.143 87.1699" stroke="white" stroke-width="2"/>
<path d="M115 17.3125V22.0268C116.286 22.8839 119.886 24.5982 124 24.5982C129.143 24.5982 133.857 23.3125 134.714 22.0268C135.4 20.9982 135 18.4554 134.714 17.3125" stroke="white" stroke-width="2"/>
<path d="M112.429 6.16945V16.0266C114.714 16.8837 120.572 18.5123 125.714 18.1695C130.857 17.8266 135.857 16.0266 137.714 15.1695V5.31231M112.429 6.16945C114.143 3.59783 117.572 1.45516 124.429 1.02659C129.914 0.683736 135.572 3.74088 137.714 5.31231M112.429 6.16945C114 7.45523 118.514 10.0268 124 10.0268C129.486 10.0268 135.429 6.8838 137.714 5.31231" stroke="white" stroke-width="2"/>
<path d="M58.8571 82.0273V175.456L59.7143 178.456L60.5714 179.313L68.2857 182.313L76.4286 183.599H86.2857H100.857L108.571 182.313L112.857 180.599L116.714 178.456L117.571 175.027V80.313L116.714 78.1701M116.714 78.1701L114.143 76.0273L110.286 74.7416L109 73.8844M116.714 78.1701C116.714 78.8558 115.857 80.4558 115.429 81.1701C114.4 83.5701 103 86.1701 97.4286 87.1701C90.2857 86.8844 75.0571 86.313 71.2857 86.313C67.5143 86.313 61.1429 82.8844 58.4286 81.1701L58 79.0273L59.2857 77.313L61.8571 75.1701L67.8571 73.0273M109 73.8844C109.857 75.4558 108.571 78.6844 96.5714 79.0273C84.5714 79.3701 79.2857 79.1701 78.1429 79.0273C74.8571 78.1701 68.2857 75.9416 68.2857 73.8844L67.8571 73.0273M109 73.8844L108.571 65.7416C107.656 64.6952 106.321 63.2416 105.143 62.1045M67.8571 73.0273L68.2857 65.7416L73.4286 61.4558M73.4286 61.4558C76.5714 63.4558 84.3143 67.113 90.1429 65.7416C97.4286 64.0273 102.571 62.313 102.571 60.5987M73.4286 61.4558L80.7143 35.313L82 30.1702M102.571 60.5987L94.8571 30.5986M102.571 60.5987C102.571 59.8551 103.747 60.7578 105.143 62.1045M82 30.1702C83 29.313 86.0286 27.7702 90.1429 28.4559C94.2571 29.1416 95 30.1701 94.8571 30.5986M82 30.1702C80.6286 33.5989 84.8571 35.0274 87.1429 35.313C94.3429 34.6274 95.2857 31.8844 94.8571 30.5986M105.143 62.1045L117.571 24.5986C121.571 25.3129 130.171 26.3129 132.571 24.5986L153.143 83.7415L154 160.884C150.857 163.741 142.257 168.941 133 166.884L118 167.313" stroke="white" stroke-width="2"/>
<path d="M117.571 150.17C126.143 151.027 143.8 152.056 145.857 149.313L146.714 99.1699C143.428 100.884 133 104.056 117.571 103.027" stroke="white" stroke-width="2"/>
<path d="M77.0845 224.016C77.4045 224.64 77.5645 225.296 77.5645 225.984C77.5645 226.784 77.3325 227.56 76.8685 228.312C75.6205 230.28 73.8365 231.264 71.5165 231.264C70.4285 231.264 69.0925 231.048 67.5085 230.616C66.6125 230.392 65.9325 230.232 65.4685 230.136C65.2605 230.072 65.0125 230.04 64.7245 230.04C64.1485 230.04 63.6125 230.24 63.1165 230.64C62.9885 230.736 62.8685 230.784 62.7565 230.784C62.6605 230.784 62.5885 230.752 62.5405 230.688C62.1885 230.192 62.0125 229.664 62.0125 229.104C62.0125 228.816 62.0685 228.48 62.1805 228.096C62.4685 227.168 63.1645 226.6 64.2685 226.392C64.6845 226.328 64.9965 226.296 65.2045 226.296C66.2445 226.296 67.2125 226.648 68.1085 227.352C68.7965 227.912 69.4125 228.44 69.9565 228.936L70.3165 229.272C70.6685 229.592 70.9325 229.824 71.1085 229.968C71.5085 230.304 72.0285 230.472 72.6685 230.472C73.0365 230.472 73.3645 230.376 73.6525 230.184C73.9405 229.992 74.1565 229.72 74.3005 229.368C74.4285 229.064 74.4925 228.728 74.4925 228.36C74.4925 228.072 74.4525 227.808 74.3725 227.568C74.3405 227.424 74.2605 227.256 74.1325 227.064C74.0045 226.872 73.8765 226.712 73.7485 226.584C73.5085 226.36 73.2525 226.176 72.9805 226.032C72.7245 225.888 72.4525 225.76 72.1645 225.648C71.8925 225.52 71.7005 225.432 71.5885 225.384C71.1565 225.176 70.6925 225.024 70.1965 224.928C69.0605 224.688 67.8925 224.472 66.6925 224.28C65.8125 224.12 65.1005 223.84 64.5565 223.44C64.1725 223.168 63.8845 222.92 63.6925 222.696C63.0205 221.816 62.6125 220.824 62.4685 219.72C62.4365 219.464 62.4205 219.264 62.4205 219.12C62.4205 218.144 62.7965 217.256 63.5485 216.456C64.2045 215.768 64.9085 215.248 65.6605 214.896C66.4125 214.528 67.2525 214.328 68.1805 214.296C69.9085 214.248 71.7405 214.432 73.6765 214.848C74.2685 214.976 74.8205 215.04 75.3325 215.04C75.7165 215.04 75.9965 215.032 76.1725 215.016C76.3005 215 76.4605 214.984 76.6525 214.968C76.8605 214.936 77.0445 214.928 77.2045 214.944C77.2685 214.96 77.3005 215 77.3005 215.064C77.2685 215.176 77.1805 215.312 77.0365 215.472C76.9085 215.632 76.8365 215.728 76.8205 215.76L75.9805 216.696C75.3725 217.368 74.7965 217.96 74.2525 218.472C74.2205 218.504 74.1565 218.576 74.0605 218.688C73.9645 218.784 73.8765 218.832 73.7965 218.832C73.7005 218.832 73.5485 218.728 73.3405 218.52L72.8125 217.872C72.5885 217.584 72.3645 217.312 72.1405 217.056C71.5325 216.416 71.0205 215.944 70.6045 215.64C70.1085 215.288 69.5565 215.112 68.9485 215.112C68.2605 215.112 67.6525 215.352 67.1245 215.832C66.7085 216.216 66.5005 216.648 66.5005 217.128C66.5005 217.208 66.5165 217.344 66.5485 217.536C66.6285 217.984 66.8125 218.312 67.1005 218.52C67.4845 218.792 67.7725 218.976 67.9645 219.072C69.3245 219.792 70.5645 220.264 71.6845 220.488C72.6445 220.664 73.5085 220.936 74.2765 221.304C75.5405 221.848 76.4765 222.752 77.0845 224.016ZM93.7896 216.84C93.7896 216.952 93.8056 217.088 93.8376 217.248C93.8696 217.408 93.8856 217.528 93.8856 217.608C93.8856 217.8 93.8136 217.928 93.6696 217.992C93.5416 218.056 93.3736 218.088 93.1656 218.088C92.1896 218.088 91.4536 218.096 90.9576 218.112L88.7256 218.136H88.0536C87.7496 218.136 87.5176 218.144 87.3576 218.16C87.0056 218.176 86.7176 218.296 86.4936 218.52C86.2856 218.744 86.1816 219.016 86.1816 219.336C86.1816 219.48 86.2056 219.624 86.2536 219.768C86.4616 220.376 86.8136 220.928 87.3096 221.424C88.1256 222.288 88.8456 223.088 89.4696 223.824C90.3176 224.896 90.9176 226.064 91.2696 227.328C91.3656 227.712 91.4136 228.096 91.4136 228.48C91.4136 228.816 91.3656 229.144 91.2696 229.464C91.2376 229.576 91.1736 229.728 91.0776 229.92C91.0456 229.984 91.0136 230.056 90.9816 230.136C90.9656 230.2 90.9336 230.272 90.8856 230.352C90.8536 230.4 90.8136 230.48 90.7656 230.592C90.7176 230.688 90.6536 230.768 90.5736 230.832C90.5096 230.88 90.4296 230.904 90.3336 230.904H89.5656C88.7496 230.92 87.9176 230.936 87.0696 230.952C86.2216 230.952 85.6056 230.944 85.2216 230.928C85.2056 230.928 85.1656 230.936 85.1016 230.952C85.0376 230.952 84.9896 230.936 84.9576 230.904C84.9096 230.856 84.8856 230.8 84.8856 230.736C84.8856 230.656 84.9096 230.56 84.9576 230.448C85.0216 230.32 85.0616 230.24 85.0776 230.208C85.4456 229.408 85.6456 228.432 85.6776 227.28C85.6936 227.04 85.7016 226.688 85.7016 226.224C85.7016 224.96 85.5656 223.76 85.2936 222.624C85.2616 222.528 85.2296 222.352 85.1976 222.096C85.1336 221.744 85.0776 221.48 85.0296 221.304C84.9496 220.904 84.9096 220.552 84.9096 220.248C84.9096 219.784 84.9736 219.312 85.1016 218.832C85.1176 218.784 85.1656 218.568 85.2456 218.184C85.0216 218.168 84.6856 218.16 84.2376 218.16C83.6616 218.16 83.1496 218.192 82.7016 218.256C82.3176 218.304 81.7976 218.36 81.1416 218.424H81.0696C80.8456 218.424 80.6936 218.328 80.6136 218.136C80.4056 217.528 80.2376 216.904 80.1096 216.264C80.0936 216.136 80.0616 215.952 80.0136 215.712C79.9816 215.472 79.9656 215.264 79.9656 215.088C79.9816 214.832 80.0536 214.664 80.1816 214.584C80.3096 214.488 80.5176 214.432 80.8056 214.416C81.5896 214.368 83.7816 214.304 87.3816 214.224C90.9816 214.128 92.8856 214.096 93.0936 214.128C93.2536 214.16 93.3656 214.24 93.4296 214.368C93.4936 214.48 93.5496 214.664 93.5976 214.92C93.6616 215.176 93.7096 215.552 93.7416 216.048L93.7896 216.84ZM110.678 230.568C110.678 230.776 110.662 230.936 110.63 231.048C110.614 231.16 110.558 231.216 110.462 231.216C110.414 231.216 110.366 231.208 110.318 231.192C110.27 231.176 110.23 231.16 110.198 231.144L109.694 231C108.542 230.52 107.286 230.264 105.926 230.232L105.206 230.208C104.15 230.208 102.75 230.328 101.006 230.568C99.5661 230.76 98.1101 230.928 96.6381 231.072H96.5661C96.3741 231.072 96.2781 230.976 96.2781 230.784C96.2781 230.672 96.3181 230.56 96.3981 230.448C97.0541 229.424 97.3821 228.208 97.3821 226.8C97.3821 226.368 97.3581 225.936 97.3101 225.504C97.1501 224.304 96.9181 222.896 96.6141 221.28C96.3901 220.048 96.2781 218.976 96.2781 218.064C96.2781 217.632 96.3341 217.216 96.4461 216.816C96.5741 216.4 96.7501 215.944 96.9741 215.448C97.2941 214.824 97.8141 214.448 98.5341 214.32C98.9821 214.224 99.5501 214.176 100.238 214.176C101.726 214.176 103.102 214.32 104.366 214.608C105.118 214.784 105.774 214.888 106.334 214.92C106.494 214.936 106.734 214.944 107.054 214.944C107.486 214.944 107.862 214.912 108.182 214.848C108.502 214.8 108.79 214.704 109.046 214.56C109.142 214.512 109.286 214.424 109.478 214.296C109.494 214.28 109.534 214.24 109.598 214.176C109.678 214.096 109.75 214.08 109.814 214.128C109.83 214.144 109.846 214.2 109.862 214.296C109.894 214.392 109.918 214.456 109.934 214.488C109.982 214.632 110.03 214.808 110.078 215.016C110.142 215.224 110.19 215.376 110.222 215.472L110.318 215.952C110.446 216.496 110.526 216.904 110.558 217.176C110.558 217.224 110.574 217.344 110.606 217.536C110.638 217.712 110.654 217.88 110.654 218.04C110.654 218.328 110.598 218.512 110.486 218.592C110.422 218.656 110.342 218.712 110.246 218.76C110.022 218.888 109.854 218.968 109.742 219C109.534 219.08 109.326 219.136 109.118 219.168C108.91 219.184 108.646 219.192 108.326 219.192C106.806 219.192 105.422 218.84 104.174 218.136C103.742 217.912 103.214 217.576 102.59 217.128L101.99 216.72C101.462 216.368 101.166 216.168 101.102 216.12C100.494 215.704 100.03 215.4 99.7101 215.208C99.4381 215.048 99.1741 214.968 98.9181 214.968C98.6301 214.968 98.3741 215.072 98.1501 215.28C97.9421 215.472 97.8061 215.744 97.7421 216.096C97.7101 216.288 97.6941 216.448 97.6941 216.576C97.6941 216.768 97.7181 216.952 97.7661 217.128C97.9741 217.848 98.1981 218.392 98.4381 218.76L99.1581 219.816C99.8301 220.744 100.302 221.464 100.574 221.976L100.766 222.36C100.782 222.376 100.798 222.416 100.814 222.48C100.846 222.544 100.878 222.592 100.91 222.624C100.942 222.64 100.982 222.648 101.03 222.648C101.11 222.648 101.198 222.632 101.294 222.6C101.406 222.568 101.486 222.544 101.534 222.528L102.686 222.096C103.102 221.936 103.414 221.808 103.622 221.712L104.966 221.184C105.014 221.168 105.222 221.088 105.59 220.944C105.958 220.784 106.174 220.768 106.238 220.896C106.254 220.928 106.262 221 106.262 221.112C106.262 221.304 106.238 221.592 106.19 221.976C106.142 222.344 106.11 222.584 106.094 222.696C105.998 223.336 105.918 223.848 105.854 224.232C105.838 224.28 105.822 224.36 105.806 224.472C105.79 224.584 105.742 224.64 105.662 224.64C105.582 224.64 105.494 224.584 105.398 224.472C105.318 224.36 105.246 224.28 105.182 224.232C104.958 224.056 104.734 223.912 104.51 223.8C104.062 223.56 103.558 223.416 102.998 223.368C102.886 223.368 102.734 223.368 102.542 223.368C102.366 223.352 102.206 223.352 102.062 223.368C101.934 223.368 101.782 223.392 101.606 223.44C101.446 223.488 101.358 223.552 101.342 223.632V223.68C101.342 223.744 101.366 223.872 101.414 224.064L101.654 225.024C101.814 225.696 101.918 226.2 101.966 226.536C102.014 226.856 102.038 227.352 102.038 228.024V229.608C102.102 229.608 102.174 229.616 102.254 229.632C102.35 229.632 102.454 229.624 102.566 229.608L103.238 229.488C104.582 229.264 105.598 229.072 106.286 228.912C107.486 228.64 108.55 228.144 109.478 227.424C109.542 227.376 109.646 227.296 109.79 227.184C109.934 227.072 110.078 226.992 110.222 226.944C110.414 226.896 110.542 226.904 110.606 226.968C110.654 227.016 110.678 227.112 110.678 227.256V228.672V229.392V230.28V230.568ZM126.235 214.656C126.795 214.896 127.227 215.24 127.531 215.688C127.835 216.136 127.987 216.64 127.987 217.2C127.987 218.352 127.547 219.328 126.667 220.128C125.595 221.104 124.307 221.776 122.803 222.144L121.795 222.408C121.171 222.552 120.731 222.664 120.475 222.744C119.883 222.936 119.371 223.16 118.939 223.416C118.235 223.832 117.883 224.408 117.883 225.144L117.859 228.864L117.883 229.968V230.232C117.883 230.424 117.867 230.56 117.835 230.64C117.771 230.832 117.611 230.928 117.355 230.928C117.227 230.928 117.075 230.92 116.899 230.904C116.723 230.888 116.579 230.888 116.467 230.904H115.459L113.443 230.952C113.299 230.952 113.203 230.88 113.155 230.736C113.107 230.592 113.083 230.44 113.083 230.28C113.067 229.912 113.067 229.504 113.083 229.056C113.115 228.592 113.131 228.272 113.131 228.096C113.163 227.264 113.179 226.64 113.179 226.224C113.179 225.632 113.163 224.712 113.131 223.464C113.115 222.568 113.107 221.224 113.107 219.432V215.4L113.083 214.968C113.083 214.664 113.123 214.464 113.203 214.368H113.227C113.291 214.304 113.451 214.28 113.707 214.296C113.963 214.296 114.139 214.296 114.235 214.296L120.619 214.2L121.363 214.176C122.035 214.144 122.523 214.128 122.827 214.128C123.659 214.128 124.395 214.192 125.035 214.32C125.115 214.336 125.283 214.376 125.539 214.44C125.795 214.488 126.027 214.56 126.235 214.656ZM122.131 219.192C122.451 218.728 122.611 218.264 122.611 217.8C122.611 217.368 122.475 216.976 122.203 216.624C121.931 216.256 121.555 215.976 121.075 215.784C121.011 215.768 120.939 215.744 120.859 215.712C120.779 215.68 120.683 215.656 120.571 215.64C119.739 215.512 118.987 215.456 118.315 215.472C118.283 215.472 118.203 215.48 118.075 215.496C117.963 215.512 117.883 215.536 117.835 215.568C117.771 215.616 117.723 215.688 117.691 215.784C117.675 215.864 117.667 215.976 117.667 216.12C117.635 216.344 117.619 216.68 117.619 217.128C117.619 217.272 117.619 217.456 117.619 217.68C117.635 217.904 117.635 218.168 117.619 218.472C117.587 219.304 117.571 220.552 117.571 222.216C117.571 222.472 117.635 222.6 117.763 222.6C117.875 222.6 118.035 222.52 118.243 222.36L119.491 221.424C120.323 220.816 120.939 220.352 121.339 220.032C121.675 219.76 121.939 219.48 122.131 219.192ZM140.527 218.976C140.287 219.44 140.119 219.68 140.023 219.696C139.927 219.696 139.839 219.624 139.759 219.48C139.679 219.336 139.623 219.24 139.591 219.192L139.231 218.592C138.911 218.096 138.599 217.552 138.295 216.96C138.199 216.8 138.071 216.56 137.911 216.24C137.815 216.016 137.767 215.888 137.767 215.856C137.719 215.776 137.711 215.72 137.743 215.688C137.759 215.672 137.807 215.656 137.887 215.64C137.967 215.624 138.031 215.616 138.079 215.616C138.879 215.632 139.879 215.48 141.079 215.16C141.335 215.08 141.719 214.976 142.231 214.848L142.903 214.68C143.399 214.536 143.911 214.464 144.439 214.464C144.663 214.464 145.015 214.496 145.495 214.56C146.983 214.752 148.103 215.504 148.855 216.816C149.127 217.312 149.263 217.856 149.263 218.448C149.263 218.928 149.175 219.392 148.999 219.84C148.839 220.288 148.599 220.672 148.279 220.992C147.831 221.44 147.287 221.816 146.647 222.12L145.783 222.6L146.791 223.152C147.623 223.584 148.303 224.064 148.831 224.592C149.599 225.392 149.983 226.304 149.983 227.328C149.983 228.384 149.527 229.248 148.615 229.92C148.023 230.336 147.383 230.592 146.695 230.688C145.719 230.832 144.887 230.912 144.199 230.928C143.975 230.944 143.639 230.952 143.191 230.952C142.839 230.952 142.295 230.936 141.559 230.904C140.247 230.856 139.215 230.432 138.463 229.632C138.031 229.184 137.759 228.664 137.647 228.072C137.599 227.848 137.575 227.632 137.575 227.424C137.575 226.816 137.735 226.28 138.055 225.816C138.375 225.352 138.831 225.008 139.423 224.784C139.791 224.624 140.191 224.544 140.623 224.544H141.031C141.431 224.544 141.639 224.632 141.655 224.808V224.856C141.655 224.968 141.631 225.096 141.583 225.24C141.535 225.384 141.503 225.48 141.487 225.528C141.391 225.912 141.327 226.2 141.295 226.392C141.263 226.536 141.247 226.752 141.247 227.04C141.247 227.712 141.423 228.44 141.775 229.224C141.887 229.48 142.079 229.72 142.351 229.944C142.543 230.12 142.783 230.208 143.071 230.208C143.231 230.208 143.351 230.192 143.431 230.16C144.215 229.92 144.807 229.512 145.207 228.936C145.687 228.2 145.927 227.456 145.927 226.704C145.927 226.496 145.903 226.272 145.855 226.032C145.759 225.488 145.647 225.056 145.519 224.736C145.231 223.952 144.727 223.344 144.007 222.912C142.951 222.336 141.991 222.056 141.127 222.072H140.911C140.527 222.072 140.327 222 140.311 221.856C140.311 221.776 140.351 221.704 140.431 221.64C140.511 221.576 140.599 221.528 140.695 221.496C141.639 221.128 142.527 220.648 143.359 220.056C144.095 219.528 144.831 218.944 145.567 218.304C145.839 218.08 146.079 217.784 146.287 217.416C146.447 217.16 146.527 216.896 146.527 216.624C146.527 216.304 146.423 216.008 146.215 215.736C145.975 215.384 145.631 215.208 145.183 215.208C144.975 215.208 144.823 215.224 144.727 215.256C144.119 215.384 143.583 215.632 143.119 216C142.047 216.816 141.183 217.808 140.527 218.976Z" fill="white"/>
</svg>
