<svg width="290" height="47" viewBox="0 0 290 47" fill="none" xmlns="http://www.w3.org/2000/svg">
<rect x="1" y="1" width="43.4839" height="43.4839" rx="9" stroke="white" stroke-width="2"/>
<rect x="11.9165" y="11.9155" width="20.7419" height="20.7419" rx="10.371" stroke="white" stroke-width="2"/>
<circle cx="35.4776" cy="12.7349" r="1.81935" fill="white"/>
<path d="M93.9999 9.62903V2.69355L94 2H93.1714H92.3429H88.2H85.7143H83.2286H81.5714L79.0857 2.69355L76.6 3.3871L74.9429 4.77419L73.2857 6.85484L72.4571 9.62903V11.7097V14.4839V17.9516H65V26.2742H72.4571V45H84.0571V26.2742H92.3429V16.5645H84.0571C83.7809 14.2527 83.5599 9.62903 84.8857 9.62903H93.9999Z" fill="white"/>
<path d="M121.26 27.687L120.534 29.045L118.356 28.3658L116.178 25.6499L114.726 23.6127L114 21.5756V16.1433L114.726 12.7481L116.904 8.67388L119.082 6.63656L122.712 3.92061C123.438 2.56253 136.505 1.20446 139.409 2.56253C142.313 3.92061 149.572 5.27869 151.75 17.5014C153.492 27.2795 145.7 32.4402 141.587 33.7983L136.505 35.1564H135.053L130.697 33.1193L129.971 32.4402C129.39 31.897 129.245 32.2139 129.245 32.4402L128.519 35.8354L126.341 41.9468C125.373 43.3049 123.292 46.1568 122.712 46.7001C122.131 47.2433 121.986 46.9264 121.986 46.7001V39.9097V36.5145L124.163 27.687L125.615 23.6127L124.889 22.9337V18.1804L125.615 15.4643L127.067 13.4272H127.793L128.519 12.7481H130.697H132.149L132.875 13.4272L133.601 14.7852V16.8223V18.1804V20.2175L132.149 22.9337L131.423 26.3289V28.366L132.875 29.045L134.327 29.7241L136.505 30.4031L137.957 29.7241L140.861 29.045L143.038 25.6499L144.49 22.2547V18.1804V14.1062L143.038 12.0691L140.135 9.35292L138.683 7.99484L135.053 7.31581H129.245L126.341 8.67388L124.163 9.35292L122.712 10.711L121.986 11.39L121.26 12.7481C120.679 13.2913 120.05 15.2379 119.808 16.1433L119.082 18.8595V20.2175L119.808 21.5756L120.534 23.6127L121.986 24.9708V26.3289L121.26 27.687Z" fill="white"/>
<rect x="168.29" y="6.06445" width="59.129" height="40.9355" rx="10" fill="white"/>
<path d="M207.882 26.9223L192.917 35.1324L193.289 18.0674L207.882 26.9223Z" fill="#B50202"/>
<path d="M255.206 38.8817L257.691 37.1033L257.07 37.1032H255.827L253.964 36.5104L252.721 35.9176L251.478 34.732C250.981 34.732 249.614 31.9655 248.993 30.5823C250.236 31.1751 254.585 30.5823 253.342 30.5823C252.1 30.5823 248.993 28.2111 247.75 27.6183C246.756 27.1441 246.094 23.4687 245.886 21.6903C246.383 22.1645 248.579 22.6783 249.614 22.8759C248.372 21.6903 247.129 19.9119 245.886 17.5407C244.892 15.6437 246.301 12.0078 247.129 10.427C246.508 12.2054 253.964 15.7622 256.449 17.5407C258.437 18.9634 263.905 19.7143 266.39 19.9119C266.39 14.5766 267.011 13.9839 269.496 11.0199C271.485 8.64871 276.124 8.84631 278.195 9.24151L280.059 9.83432L281.302 10.4271C281.716 10.8223 282.668 11.6127 283.165 11.6127C283.663 11.6127 287.101 10.4271 288.757 9.83432C289.379 11.0199 284.408 14.5767 285.029 14.5767C285.527 14.5767 288.55 13.7863 290 13.3911C290 13.8654 287.101 16.3552 285.651 17.5408V18.1336V19.912L285.029 24.0616L284.408 25.84L282.544 30.5824L280.059 34.7321L278.195 36.5105L275.088 39.4745L272.603 41.2529L268.875 43.0313C267.384 43.9798 262.455 44.6121 260.177 44.8097C255.828 45.9953 243.401 41.2529 244.022 41.2529C244.644 41.2529 247.75 40.6601 248.993 40.6601C250.236 40.6601 251.478 40.0673 252.1 40.0673C252.597 40.0673 254.378 39.2769 255.206 38.8817Z" fill="white"/>
</svg>
