<svg width="82" height="18" viewBox="0 0 82 18" fill="none" xmlns="http://www.w3.org/2000/svg">
<path d="M15.5415 10.016C15.8615 10.64 16.0215 11.296 16.0215 11.984C16.0215 12.784 15.7895 13.56 15.3255 14.312C14.0775 16.28 12.2935 17.264 9.97353 17.264C8.88553 17.264 7.54953 17.048 5.96553 16.616C5.06953 16.392 4.38953 16.232 3.92553 16.136C3.71753 16.072 3.46953 16.04 3.18153 16.04C2.60553 16.04 2.06953 16.24 1.57353 16.64C1.44553 16.736 1.32553 16.784 1.21353 16.784C1.11753 16.784 1.04553 16.752 0.997531 16.688C0.645531 16.192 0.469531 15.664 0.469531 15.104C0.469531 14.816 0.525531 14.48 0.637531 14.096C0.925531 13.168 1.62153 12.6 2.72553 12.392C3.14153 12.328 3.45353 12.296 3.66153 12.296C4.70153 12.296 5.66953 12.648 6.56553 13.352C7.25353 13.912 7.86953 14.44 8.41353 14.936L8.77353 15.272C9.12553 15.592 9.38953 15.824 9.56553 15.968C9.96553 16.304 10.4855 16.472 11.1255 16.472C11.4935 16.472 11.8215 16.376 12.1095 16.184C12.3975 15.992 12.6135 15.72 12.7575 15.368C12.8855 15.064 12.9495 14.728 12.9495 14.36C12.9495 14.072 12.9095 13.808 12.8295 13.568C12.7975 13.424 12.7175 13.256 12.5895 13.064C12.4615 12.872 12.3335 12.712 12.2055 12.584C11.9655 12.36 11.7095 12.176 11.4375 12.032C11.1815 11.888 10.9095 11.76 10.6215 11.648C10.3495 11.52 10.1575 11.432 10.0455 11.384C9.61353 11.176 9.14953 11.024 8.65353 10.928C7.51753 10.688 6.34953 10.472 5.14953 10.28C4.26953 10.12 3.55753 9.84 3.01353 9.44C2.62953 9.168 2.34153 8.92 2.14953 8.696C1.47753 7.816 1.06953 6.824 0.925531 5.72C0.893531 5.464 0.877531 5.264 0.877531 5.12C0.877531 4.144 1.25353 3.256 2.00553 2.456C2.66153 1.768 3.36553 1.248 4.11753 0.896C4.86953 0.528 5.70953 0.328 6.63753 0.295999C8.36553 0.247999 10.1975 0.431999 12.1335 0.847999C12.7255 0.975999 13.2775 1.04 13.7895 1.04C14.1735 1.04 14.4535 1.032 14.6295 1.016C14.7575 0.999999 14.9175 0.983999 15.1095 0.967999C15.3175 0.935999 15.5015 0.927999 15.6615 0.943999C15.7255 0.959999 15.7575 0.999999 15.7575 1.064C15.7255 1.176 15.6375 1.312 15.4935 1.472C15.3655 1.632 15.2935 1.728 15.2775 1.76L14.4375 2.696C13.8295 3.368 13.2535 3.96 12.7095 4.472C12.6775 4.504 12.6135 4.576 12.5175 4.688C12.4215 4.784 12.3335 4.832 12.2535 4.832C12.1575 4.832 12.0055 4.728 11.7975 4.52L11.2695 3.872C11.0455 3.584 10.8215 3.312 10.5975 3.056C9.98953 2.416 9.47753 1.944 9.06153 1.64C8.56553 1.288 8.01353 1.112 7.40553 1.112C6.71753 1.112 6.10953 1.352 5.58153 1.832C5.16553 2.216 4.95753 2.648 4.95753 3.128C4.95753 3.208 4.97353 3.344 5.00553 3.536C5.08553 3.984 5.26953 4.312 5.55753 4.52C5.94153 4.792 6.22953 4.976 6.42153 5.072C7.78153 5.792 9.02153 6.264 10.1415 6.488C11.1015 6.664 11.9655 6.936 12.7335 7.304C13.9975 7.848 14.9335 8.752 15.5415 10.016ZM32.2467 2.84C32.2467 2.952 32.2627 3.088 32.2947 3.248C32.3267 3.408 32.3427 3.528 32.3427 3.608C32.3427 3.8 32.2707 3.928 32.1267 3.992C31.9987 4.056 31.8307 4.088 31.6227 4.088C30.6467 4.088 29.9107 4.096 29.4147 4.112L27.1827 4.136H26.5107C26.2067 4.136 25.9747 4.144 25.8147 4.16C25.4627 4.176 25.1747 4.296 24.9507 4.52C24.7427 4.744 24.6387 5.016 24.6387 5.336C24.6387 5.48 24.6627 5.624 24.7107 5.768C24.9187 6.376 25.2707 6.928 25.7667 7.424C26.5827 8.288 27.3027 9.088 27.9267 9.824C28.7747 10.896 29.3747 12.064 29.7267 13.328C29.8227 13.712 29.8707 14.096 29.8707 14.48C29.8707 14.816 29.8227 15.144 29.7267 15.464C29.6947 15.576 29.6307 15.728 29.5347 15.92C29.5027 15.984 29.4707 16.056 29.4387 16.136C29.4227 16.2 29.3907 16.272 29.3427 16.352C29.3107 16.4 29.2707 16.48 29.2227 16.592C29.1747 16.688 29.1107 16.768 29.0307 16.832C28.9667 16.88 28.8867 16.904 28.7907 16.904H28.0227C27.2067 16.92 26.3747 16.936 25.5267 16.952C24.6787 16.952 24.0627 16.944 23.6787 16.928C23.6627 16.928 23.6227 16.936 23.5587 16.952C23.4947 16.952 23.4467 16.936 23.4147 16.904C23.3667 16.856 23.3427 16.8 23.3427 16.736C23.3427 16.656 23.3667 16.56 23.4147 16.448C23.4787 16.32 23.5187 16.24 23.5347 16.208C23.9027 15.408 24.1027 14.432 24.1347 13.28C24.1507 13.04 24.1587 12.688 24.1587 12.224C24.1587 10.96 24.0227 9.76 23.7507 8.624C23.7187 8.528 23.6867 8.352 23.6547 8.096C23.5907 7.744 23.5347 7.48 23.4867 7.304C23.4067 6.904 23.3667 6.552 23.3667 6.248C23.3667 5.784 23.4307 5.312 23.5587 4.832C23.5747 4.784 23.6227 4.568 23.7027 4.184C23.4787 4.168 23.1427 4.16 22.6947 4.16C22.1187 4.16 21.6067 4.192 21.1587 4.256C20.7747 4.304 20.2547 4.36 19.5987 4.424H19.5267C19.3027 4.424 19.1507 4.328 19.0707 4.136C18.8627 3.528 18.6947 2.904 18.5667 2.264C18.5507 2.136 18.5187 1.952 18.4707 1.712C18.4387 1.472 18.4227 1.264 18.4227 1.088C18.4387 0.831999 18.5107 0.664 18.6387 0.584C18.7667 0.487999 18.9747 0.431999 19.2627 0.415999C20.0467 0.368 22.2387 0.303999 25.8387 0.223999C29.4387 0.127999 31.3427 0.0959992 31.5507 0.128C31.7107 0.159999 31.8227 0.239999 31.8867 0.368C31.9507 0.479999 32.0067 0.663999 32.0547 0.92C32.1187 1.176 32.1667 1.552 32.1987 2.048L32.2467 2.84ZM49.1352 16.568C49.1352 16.776 49.1192 16.936 49.0872 17.048C49.0712 17.16 49.0152 17.216 48.9192 17.216C48.8712 17.216 48.8232 17.208 48.7752 17.192C48.7272 17.176 48.6872 17.16 48.6552 17.144L48.1512 17C46.9992 16.52 45.7432 16.264 44.3832 16.232L43.6632 16.208C42.6072 16.208 41.2072 16.328 39.4632 16.568C38.0232 16.76 36.5672 16.928 35.0952 17.072H35.0232C34.8312 17.072 34.7352 16.976 34.7352 16.784C34.7352 16.672 34.7752 16.56 34.8552 16.448C35.5112 15.424 35.8392 14.208 35.8392 12.8C35.8392 12.368 35.8152 11.936 35.7672 11.504C35.6072 10.304 35.3752 8.896 35.0712 7.28C34.8472 6.048 34.7352 4.976 34.7352 4.064C34.7352 3.632 34.7912 3.216 34.9032 2.816C35.0312 2.4 35.2072 1.944 35.4312 1.448C35.7512 0.823999 36.2712 0.447999 36.9912 0.319999C37.4392 0.223999 38.0072 0.175999 38.6952 0.175999C40.1832 0.175999 41.5592 0.319999 42.8232 0.607999C43.5752 0.783999 44.2312 0.887999 44.7912 0.92C44.9512 0.935999 45.1912 0.943999 45.5112 0.943999C45.9432 0.943999 46.3192 0.911999 46.6392 0.847999C46.9592 0.799999 47.2472 0.703999 47.5032 0.559999C47.5992 0.511999 47.7432 0.423999 47.9352 0.295999C47.9512 0.279999 47.9912 0.239999 48.0552 0.175999C48.1352 0.0959992 48.2072 0.0799994 48.2712 0.128C48.2872 0.144 48.3032 0.199999 48.3192 0.295999C48.3512 0.391999 48.3752 0.455999 48.3912 0.487999C48.4392 0.631999 48.4872 0.808 48.5352 1.016C48.5992 1.224 48.6472 1.376 48.6792 1.472L48.7752 1.952C48.9032 2.496 48.9832 2.904 49.0152 3.176C49.0152 3.224 49.0312 3.344 49.0632 3.536C49.0952 3.712 49.1112 3.88 49.1112 4.04C49.1112 4.328 49.0552 4.512 48.9432 4.592C48.8792 4.656 48.7992 4.712 48.7032 4.76C48.4792 4.888 48.3112 4.968 48.1992 5C47.9912 5.08 47.7832 5.136 47.5752 5.168C47.3672 5.184 47.1032 5.192 46.7832 5.192C45.2632 5.192 43.8792 4.84 42.6312 4.136C42.1992 3.912 41.6712 3.576 41.0472 3.128L40.4472 2.72C39.9192 2.368 39.6232 2.168 39.5592 2.12C38.9512 1.704 38.4872 1.4 38.1672 1.208C37.8952 1.048 37.6312 0.967999 37.3752 0.967999C37.0872 0.967999 36.8312 1.072 36.6072 1.28C36.3992 1.472 36.2632 1.744 36.1992 2.096C36.1672 2.288 36.1512 2.448 36.1512 2.576C36.1512 2.768 36.1752 2.952 36.2232 3.128C36.4312 3.848 36.6552 4.392 36.8952 4.76L37.6152 5.816C38.2872 6.744 38.7592 7.464 39.0312 7.976L39.2232 8.36C39.2392 8.376 39.2552 8.416 39.2712 8.48C39.3032 8.544 39.3352 8.592 39.3672 8.624C39.3992 8.64 39.4392 8.648 39.4872 8.648C39.5672 8.648 39.6552 8.632 39.7512 8.6C39.8632 8.568 39.9432 8.544 39.9912 8.528L41.1432 8.096C41.5592 7.936 41.8712 7.808 42.0792 7.712L43.4232 7.184C43.4712 7.168 43.6792 7.088 44.0472 6.944C44.4152 6.784 44.6312 6.768 44.6952 6.896C44.7112 6.928 44.7192 7 44.7192 7.112C44.7192 7.304 44.6952 7.592 44.6472 7.976C44.5992 8.344 44.5672 8.584 44.5512 8.696C44.4552 9.336 44.3752 9.848 44.3112 10.232C44.2952 10.28 44.2792 10.36 44.2632 10.472C44.2472 10.584 44.1992 10.64 44.1192 10.64C44.0392 10.64 43.9512 10.584 43.8552 10.472C43.7752 10.36 43.7032 10.28 43.6392 10.232C43.4152 10.056 43.1912 9.912 42.9672 9.8C42.5192 9.56 42.0152 9.416 41.4552 9.368C41.3432 9.368 41.1912 9.368 40.9992 9.368C40.8232 9.352 40.6632 9.352 40.5192 9.368C40.3912 9.368 40.2392 9.392 40.0632 9.44C39.9032 9.488 39.8152 9.552 39.7992 9.632V9.68C39.7992 9.744 39.8232 9.872 39.8712 10.064L40.1112 11.024C40.2712 11.696 40.3752 12.2 40.4232 12.536C40.4712 12.856 40.4952 13.352 40.4952 14.024V15.608C40.5592 15.608 40.6312 15.616 40.7112 15.632C40.8072 15.632 40.9112 15.624 41.0232 15.608L41.6952 15.488C43.0392 15.264 44.0552 15.072 44.7432 14.912C45.9432 14.64 47.0072 14.144 47.9352 13.424C47.9992 13.376 48.1032 13.296 48.2472 13.184C48.3912 13.072 48.5352 12.992 48.6792 12.944C48.8712 12.896 48.9992 12.904 49.0632 12.968C49.1112 13.016 49.1352 13.112 49.1352 13.256V14.672V15.392V16.28V16.568ZM64.6918 0.655999C65.2518 0.895999 65.6838 1.24 65.9878 1.688C66.2918 2.136 66.4438 2.64 66.4438 3.2C66.4438 4.352 66.0038 5.328 65.1238 6.128C64.0518 7.104 62.7638 7.776 61.2598 8.144L60.2518 8.408C59.6278 8.552 59.1878 8.664 58.9318 8.744C58.3398 8.936 57.8278 9.16 57.3958 9.416C56.6918 9.832 56.3398 10.408 56.3398 11.144L56.3158 14.864L56.3398 15.968V16.232C56.3398 16.424 56.3238 16.56 56.2918 16.64C56.2278 16.832 56.0678 16.928 55.8118 16.928C55.6838 16.928 55.5318 16.92 55.3558 16.904C55.1798 16.888 55.0358 16.888 54.9238 16.904H53.9158L51.8998 16.952C51.7558 16.952 51.6598 16.88 51.6118 16.736C51.5638 16.592 51.5398 16.44 51.5398 16.28C51.5238 15.912 51.5238 15.504 51.5398 15.056C51.5718 14.592 51.5878 14.272 51.5878 14.096C51.6198 13.264 51.6358 12.64 51.6358 12.224C51.6358 11.632 51.6198 10.712 51.5878 9.464C51.5718 8.568 51.5638 7.224 51.5638 5.432V1.4L51.5398 0.967999C51.5398 0.663999 51.5798 0.463999 51.6598 0.368H51.6838C51.7478 0.303999 51.9078 0.279999 52.1638 0.295999C52.4198 0.295999 52.5958 0.295999 52.6918 0.295999L59.0758 0.199999L59.8198 0.175999C60.4918 0.144 60.9798 0.128 61.2838 0.128C62.1158 0.128 62.8518 0.191999 63.4918 0.319999C63.5718 0.335999 63.7398 0.375999 63.9958 0.439999C64.2518 0.487999 64.4838 0.559999 64.6918 0.655999ZM60.5878 5.192C60.9078 4.728 61.0678 4.264 61.0678 3.8C61.0678 3.368 60.9318 2.976 60.6598 2.624C60.3878 2.256 60.0118 1.976 59.5318 1.784C59.4678 1.768 59.3958 1.744 59.3158 1.712C59.2358 1.68 59.1398 1.656 59.0278 1.64C58.1958 1.512 57.4438 1.456 56.7718 1.472C56.7398 1.472 56.6598 1.48 56.5318 1.496C56.4198 1.512 56.3398 1.536 56.2918 1.568C56.2278 1.616 56.1798 1.688 56.1478 1.784C56.1318 1.864 56.1238 1.976 56.1238 2.12C56.0918 2.344 56.0758 2.68 56.0758 3.128C56.0758 3.272 56.0758 3.456 56.0758 3.68C56.0918 3.904 56.0918 4.168 56.0758 4.472C56.0438 5.304 56.0278 6.552 56.0278 8.216C56.0278 8.472 56.0918 8.6 56.2198 8.6C56.3318 8.6 56.4918 8.52 56.6998 8.36L57.9478 7.424C58.7798 6.816 59.3958 6.352 59.7958 6.032C60.1318 5.76 60.3958 5.48 60.5878 5.192ZM81.072 0.775999C81.2 0.775999 81.272 0.871999 81.288 1.064C81.32 1.256 81.328 1.448 81.312 1.64C81.312 2.248 81.296 3.16 81.264 4.376L81.24 5.744V7.04C81.24 8.928 81.296 11.2 81.408 13.856L81.456 15.272C81.456 15.384 81.464 15.504 81.48 15.632C81.496 15.744 81.504 15.856 81.504 15.968C81.504 16.304 81.376 16.52 81.12 16.616C80.848 16.712 80.576 16.768 80.304 16.784C80.048 16.8 79.672 16.808 79.176 16.808C78.808 16.808 78.456 16.784 78.12 16.736C78.072 16.736 77.96 16.728 77.784 16.712C77.624 16.696 77.496 16.656 77.4 16.592C77.256 16.512 77.184 16.336 77.184 16.064C77.184 15.616 77.2 14.912 77.232 13.952L77.304 7.04L77.28 6.512C77.248 6.128 77.216 5.84 77.184 5.648C77.12 5.12 76.896 4.616 76.512 4.136L76.152 3.728C76.136 3.712 76.112 3.688 76.08 3.656C76.048 3.624 76.032 3.6 76.032 3.584C76.048 3.552 76.08 3.52 76.128 3.488C76.176 3.456 76.288 3.416 76.464 3.368C76.64 3.32 76.776 3.28 76.872 3.248C77.112 3.184 77.336 3.112 77.544 3.032C77.896 2.904 78.152 2.792 78.312 2.696L79.128 2.216L79.8 1.736C80.216 1.416 80.44 1.24 80.472 1.208C80.52 1.176 80.6 1.104 80.712 0.991999C80.824 0.863999 80.936 0.791999 81.048 0.775999H81.072Z" fill="white"/>
</svg>
