<svg width="537" height="128" viewBox="0 0 537 128" fill="none" xmlns="http://www.w3.org/2000/svg">
<path d="M47.1088 32.175C48.1088 34.125 48.6088 36.175 48.6088 38.325C48.6088 40.825 47.8838 43.25 46.4338 45.6C42.5338 51.75 36.9588 54.825 29.7088 54.825C26.3088 54.825 22.1338 54.15 17.1838 52.8C14.3838 52.1 12.2588 51.6 10.8088 51.3C10.1588 51.1 9.38379 51 8.48379 51C6.68379 51 5.00879 51.625 3.45879 52.875C3.05879 53.175 2.68379 53.325 2.33379 53.325C2.03379 53.325 1.80879 53.225 1.65879 53.025C0.558789 51.475 0.00878912 49.825 0.00878912 48.075C0.00878912 47.175 0.183789 46.125 0.533789 44.925C1.43379 42.025 3.60879 40.25 7.05879 39.6C8.35879 39.4 9.33379 39.3 9.98379 39.3C13.2338 39.3 16.2588 40.4 19.0588 42.6C21.2088 44.35 23.1338 46 24.8338 47.55L25.9588 48.6C27.0588 49.6 27.8838 50.325 28.4338 50.775C29.6838 51.825 31.3088 52.35 33.3088 52.35C34.4588 52.35 35.4838 52.05 36.3838 51.45C37.2838 50.85 37.9588 50 38.4088 48.9C38.8088 47.95 39.0088 46.9 39.0088 45.75C39.0088 44.85 38.8838 44.025 38.6338 43.275C38.5338 42.825 38.2838 42.3 37.8838 41.7C37.4838 41.1 37.0838 40.6 36.6838 40.2C35.9338 39.5 35.1338 38.925 34.2838 38.475C33.4838 38.025 32.6338 37.625 31.7338 37.275C30.8838 36.875 30.2838 36.6 29.9338 36.45C28.5838 35.8 27.1338 35.325 25.5838 35.025C22.0338 34.275 18.3838 33.6 14.6338 33C11.8838 32.5 9.65879 31.625 7.95879 30.375C6.75879 29.525 5.85879 28.75 5.25879 28.05C3.15879 25.3 1.88379 22.2 1.43379 18.75C1.33379 17.95 1.28379 17.325 1.28379 16.875C1.28379 13.825 2.45879 11.05 4.80879 8.55C6.85879 6.4 9.05879 4.775 11.4088 3.675C13.7588 2.525 16.3838 1.9 19.2838 1.8C24.6838 1.65 30.4088 2.225 36.4588 3.525C38.3088 3.925 40.0338 4.125 41.6338 4.125C42.8338 4.125 43.7088 4.1 44.2588 4.05C44.6588 4 45.1588 3.95 45.7588 3.9C46.4088 3.8 46.9838 3.775 47.4838 3.825C47.6838 3.875 47.7838 4 47.7838 4.2C47.6838 4.55 47.4088 4.975 46.9588 5.475C46.5588 5.975 46.3338 6.275 46.2838 6.375L43.6588 9.3C41.7588 11.4 39.9588 13.25 38.2588 14.85C38.1588 14.95 37.9588 15.175 37.6588 15.525C37.3588 15.825 37.0838 15.975 36.8338 15.975C36.5338 15.975 36.0588 15.65 35.4088 15L33.7588 12.975C33.0588 12.075 32.3588 11.225 31.6588 10.425C29.7588 8.425 28.1588 6.95 26.8588 6C25.3088 4.9 23.5838 4.35 21.6838 4.35C19.5338 4.35 17.6338 5.1 15.9838 6.6C14.6838 7.8 14.0338 9.15 14.0338 10.65C14.0338 10.9 14.0838 11.325 14.1838 11.925C14.4338 13.325 15.0088 14.35 15.9088 15C17.1088 15.85 18.0088 16.425 18.6088 16.725C22.8588 18.975 26.7338 20.45 30.2338 21.15C33.2338 21.7 35.9338 22.55 38.3338 23.7C42.2838 25.4 45.2088 28.225 47.1088 32.175ZM103.512 3.9C104.412 6.85 104.862 9.6 104.862 12.15C104.862 14 104.662 15.65 104.262 17.1C104.012 18.3 103.762 19.325 103.512 20.175C102.862 23.075 102.362 25.125 102.012 26.325C101.162 29.275 100.737 32.5 100.737 36C100.787 38.95 100.812 43.325 100.812 49.125C100.812 50.325 100.787 51.225 100.737 51.825V52.2C100.737 52.8 100.537 53.175 100.137 53.325C100.087 53.325 99.9873 53.375 99.8373 53.475C99.6873 53.525 99.5373 53.55 99.3873 53.55L82.9623 53.7C82.1623 53.7 81.8373 53.425 81.9873 52.875C82.1373 52.375 82.3623 51.95 82.6623 51.6C83.3623 50.65 83.7623 49.8 83.8623 49.05C83.8623 48.95 83.8873 48.775 83.9373 48.525C84.0373 48.225 84.0123 48.05 83.8623 48H83.6373C83.2873 48 83.0623 48.025 82.9623 48.075L80.8623 49.05C77.5623 50.65 75.0873 51.8 73.4373 52.5C71.6373 53.3 69.7373 53.7 67.7373 53.7C66.0373 53.7 64.3123 53.4 62.5623 52.8C60.4623 52.1 58.9623 50.75 58.0623 48.75C56.7623 46 56.1123 42.95 56.1123 39.6C56.1123 35.05 56.8373 30.525 58.2873 26.025C58.8873 24.025 59.3623 21.975 59.7123 19.875C60.1123 17.775 60.4623 15.325 60.7623 12.525C60.8123 12.125 60.8373 11.525 60.8373 10.725C60.8373 9.625 60.8123 8.8 60.7623 8.25C60.7123 7.95 60.6373 7.475 60.5373 6.825C60.4873 6.125 60.3873 5.525 60.2373 5.025C60.1873 4.825 59.9373 4.425 59.4873 3.825C59.0873 3.175 58.9373 2.675 59.0373 2.325V2.25C59.2873 1.9 60.1373 1.725 61.5873 1.725C66.9373 1.725 70.9373 1.675 73.5873 1.575C74.3373 1.525 74.8623 1.6 75.1623 1.8C75.5123 2 75.8623 2.425 76.2123 3.075C77.3123 5.175 77.8623 7.175 77.8623 9.075C77.8623 11.775 76.9623 14.4 75.1623 16.95C74.2123 18.3 73.1373 19.625 71.9373 20.925C70.7373 22.225 70.0373 22.975 69.8373 23.175C67.6373 25.525 65.3873 28.475 63.0873 32.025C62.1373 33.525 61.4373 35.175 60.9873 36.975C60.5373 38.725 60.2123 40.7 60.0123 42.9V43.275C60.1123 45.625 60.7373 47.475 61.8873 48.825C63.0373 50.175 64.6123 50.85 66.6123 50.85C67.5623 50.85 68.6873 50.65 69.9873 50.25C72.7373 49.4 75.2373 47.875 77.4873 45.675C80.9373 42.175 83.6873 37.875 85.7373 32.775C87.4873 28.175 88.6873 23.775 89.3373 19.575C89.5373 18.425 89.6373 17.125 89.6373 15.675C89.6373 13.825 89.4123 12 88.9623 10.2C88.5623 8.6 87.9623 7.15 87.1623 5.85C87.0123 5.6 86.6373 5.075 86.0373 4.275C85.4373 3.475 85.1373 2.85 85.1373 2.4C85.1373 1.95 85.5373 1.725 86.3373 1.725C89.4873 1.675 94.1873 1.65 100.437 1.65C101.487 1.65 102.187 1.775 102.537 2.025C102.887 2.275 103.212 2.9 103.512 3.9ZM159.612 26.925C161.512 28.025 162.962 29.575 163.962 31.575C164.962 33.575 165.462 35.7 165.462 37.95C165.462 39.5 165.187 41 164.637 42.45C164.137 43.85 163.387 45.075 162.387 46.125C157.987 50.525 153.112 52.925 147.762 53.325C144.712 53.575 140.237 53.8 134.337 54C133.287 54.05 131.662 54.025 129.462 53.925L127.812 53.85L119.712 53.625C119.312 53.575 118.787 53.575 118.137 53.625C117.537 53.675 117.012 53.7 116.562 53.7C115.412 53.7 114.412 53.525 113.562 53.175C113.462 53.175 113.362 53.125 113.262 53.025C112.662 52.625 112.362 51.925 112.362 50.925C112.362 50.475 112.387 50.05 112.437 49.65C112.537 49.25 112.587 48.85 112.587 48.45L112.662 41.925V28.875C112.662 22.475 112.637 17.675 112.587 14.475V7.2L112.512 4.275C112.512 3.125 112.612 2.4 112.812 2.1C113.062 1.75 113.487 1.575 114.087 1.575C114.937 1.575 116.262 1.625 118.062 1.725C119.362 1.875 120.662 1.95 121.962 1.95C124.362 1.95 128.012 1.85 132.912 1.65C134.112 1.6 135.612 1.55 137.412 1.5C139.212 1.45 141.312 1.425 143.712 1.425C146.462 1.425 148.837 1.65 150.837 2.1C152.237 2.5 153.262 2.85 153.912 3.15C155.512 3.9 156.762 4.975 157.662 6.375C158.562 7.725 159.012 9.225 159.012 10.875C159.012 11.625 158.887 12.5 158.637 13.5C157.787 16.45 156.037 18.575 153.387 19.875C151.487 20.775 149.287 21.425 146.787 21.825L138.087 23.325C136.937 23.475 136.062 23.65 135.462 23.85C134.862 24 134.312 24.3 133.812 24.75C133.512 25.05 133.362 25.4 133.362 25.8C133.362 26.1 133.462 26.35 133.662 26.55C133.862 26.7 134.137 26.75 134.487 26.7C135.737 26.5 136.787 26.25 137.637 25.95C140.987 24.85 144.512 24.3 148.212 24.3C149.562 24.3 150.912 24.375 152.262 24.525C154.862 24.725 157.312 25.525 159.612 26.925ZM151.512 46.125C152.662 44.825 153.237 43.375 153.237 41.775C153.237 40.725 152.987 39.725 152.487 38.775C151.987 37.825 151.287 37 150.387 36.3C148.737 35.05 147.037 34.4 145.287 34.35C143.987 34.25 143.012 34.225 142.362 34.275C139.962 34.425 137.512 33.975 135.012 32.925C133.862 32.525 132.837 31.925 131.937 31.125C130.637 29.975 129.987 28.75 129.987 27.45C129.987 26.15 130.612 24.925 131.862 23.775C132.262 23.375 132.787 22.975 133.437 22.575C134.087 22.175 134.562 21.875 134.862 21.675L136.587 20.475C137.987 19.575 139.012 18.85 139.662 18.3C141.312 16.8 142.137 15.025 142.137 12.975C142.137 12.025 141.962 11.125 141.612 10.275C140.862 8.475 139.437 7.2 137.337 6.45C135.237 5.8 133.162 5.475 131.112 5.475C130.262 5.475 129.637 5.5 129.237 5.55C128.487 5.65 127.987 5.975 127.737 6.525C127.487 7.075 127.362 7.8 127.362 8.7C127.362 10.5 127.312 13.15 127.212 16.65C127.112 22.25 127.062 26.425 127.062 29.175V33.825C127.062 35.725 127.112 38.575 127.212 42.375C127.212 44.225 127.237 45.6 127.287 46.5C127.287 47.7 127.312 48.6 127.362 49.2C127.362 49.65 127.387 50 127.437 50.25C127.437 50.45 127.512 50.625 127.662 50.775C127.862 50.975 128.212 51.1 128.712 51.15C129.262 51.15 129.637 51.15 129.837 51.15C134.637 51.15 138.237 51.2 140.637 51.3C144.637 51.45 148.262 49.725 151.512 46.125ZM220.034 32.175C221.034 34.125 221.534 36.175 221.534 38.325C221.534 40.825 220.809 43.25 219.359 45.6C215.459 51.75 209.884 54.825 202.634 54.825C199.234 54.825 195.059 54.15 190.109 52.8C187.309 52.1 185.184 51.6 183.734 51.3C183.084 51.1 182.309 51 181.409 51C179.609 51 177.934 51.625 176.384 52.875C175.984 53.175 175.609 53.325 175.259 53.325C174.959 53.325 174.734 53.225 174.584 53.025C173.484 51.475 172.934 49.825 172.934 48.075C172.934 47.175 173.109 46.125 173.459 44.925C174.359 42.025 176.534 40.25 179.984 39.6C181.284 39.4 182.259 39.3 182.909 39.3C186.159 39.3 189.184 40.4 191.984 42.6C194.134 44.35 196.059 46 197.759 47.55L198.884 48.6C199.984 49.6 200.809 50.325 201.359 50.775C202.609 51.825 204.234 52.35 206.234 52.35C207.384 52.35 208.409 52.05 209.309 51.45C210.209 50.85 210.884 50 211.334 48.9C211.734 47.95 211.934 46.9 211.934 45.75C211.934 44.85 211.809 44.025 211.559 43.275C211.459 42.825 211.209 42.3 210.809 41.7C210.409 41.1 210.009 40.6 209.609 40.2C208.859 39.5 208.059 38.925 207.209 38.475C206.409 38.025 205.559 37.625 204.659 37.275C203.809 36.875 203.209 36.6 202.859 36.45C201.509 35.8 200.059 35.325 198.509 35.025C194.959 34.275 191.309 33.6 187.559 33C184.809 32.5 182.584 31.625 180.884 30.375C179.684 29.525 178.784 28.75 178.184 28.05C176.084 25.3 174.809 22.2 174.359 18.75C174.259 17.95 174.209 17.325 174.209 16.875C174.209 13.825 175.384 11.05 177.734 8.55C179.784 6.4 181.984 4.775 184.334 3.675C186.684 2.525 189.309 1.9 192.209 1.8C197.609 1.65 203.334 2.225 209.384 3.525C211.234 3.925 212.959 4.125 214.559 4.125C215.759 4.125 216.634 4.1 217.184 4.05C217.584 4 218.084 3.95 218.684 3.9C219.334 3.8 219.909 3.775 220.409 3.825C220.609 3.875 220.709 4 220.709 4.2C220.609 4.55 220.334 4.975 219.884 5.475C219.484 5.975 219.259 6.275 219.209 6.375L216.584 9.3C214.684 11.4 212.884 13.25 211.184 14.85C211.084 14.95 210.884 15.175 210.584 15.525C210.284 15.825 210.009 15.975 209.759 15.975C209.459 15.975 208.984 15.65 208.334 15L206.684 12.975C205.984 12.075 205.284 11.225 204.584 10.425C202.684 8.425 201.084 6.95 199.784 6C198.234 4.9 196.509 4.35 194.609 4.35C192.459 4.35 190.559 5.1 188.909 6.6C187.609 7.8 186.959 9.15 186.959 10.65C186.959 10.9 187.009 11.325 187.109 11.925C187.359 13.325 187.934 14.35 188.834 15C190.034 15.85 190.934 16.425 191.534 16.725C195.784 18.975 199.659 20.45 203.159 21.15C206.159 21.7 208.859 22.55 211.259 23.7C215.209 25.4 218.134 28.225 220.034 32.175ZM299.747 10.125C301.897 15.275 302.872 19.7 302.672 23.4C302.672 27.45 302.147 31.175 301.097 34.575C300.047 37.925 298.447 41.075 296.297 44.025C292.197 49.675 286.547 53 279.347 54C277.197 54.35 275.022 54.65 272.822 54.9C272.372 54.95 271.697 54.975 270.797 54.975C266.647 54.975 262.972 53.775 259.772 51.375C256.622 48.925 254.447 45.75 253.247 41.85C252.097 37.85 251.522 33.925 251.522 30.075C251.522 26.025 252.147 22.125 253.397 18.375C256.197 10.075 261.847 4.6 270.347 1.95C273.497 0.999997 276.722 0.524996 280.022 0.524996C282.672 0.524996 285.397 0.824996 288.197 1.425C291.047 1.975 293.997 3.525 297.047 6.075C297.997 6.825 298.897 8.175 299.747 10.125ZM295.847 12.6C296.047 12.15 296.147 11.625 296.147 11.025C296.147 10.125 295.847 9.375 295.247 8.775C294.647 8.175 293.822 7.825 292.772 7.725C292.022 7.725 291.472 7.75 291.122 7.8C290.672 7.9 289.947 8.025 288.947 8.175C287.947 8.325 287.072 8.525 286.322 8.775C276.122 11.925 267.922 17.575 261.722 25.725C259.072 29.225 257.822 33.15 257.972 37.5C257.772 39.8 258.247 42.525 259.397 45.675C260.597 48.825 262.772 50.4 265.922 50.4C267.972 50.4 270.172 49.9 272.522 48.9C277.322 46.75 280.747 43.55 282.797 39.3C283.697 37.5 284.997 34.75 286.697 31.05L287.822 28.425C288.972 25.475 290.047 22.95 291.047 20.85C292.097 18.75 293.297 16.775 294.647 14.925C294.947 14.575 295.197 14.15 295.397 13.65C295.597 13.1 295.747 12.75 295.847 12.6ZM352.939 1.8C353.239 2.4 353.714 4.625 354.364 8.475C355.014 12.275 355.289 14.325 355.189 14.625L355.039 14.85C354.689 15.35 353.789 15.85 352.339 16.35C350.589 16.95 348.814 17.175 347.014 17.025C341.514 16.525 336.964 15.125 333.364 12.825C332.164 12.025 331.264 11.4 330.664 10.95L327.889 9.15L326.389 8.175L321.139 4.575C320.389 4.025 319.564 3.75 318.664 3.75C317.564 3.75 316.614 4.225 315.814 5.175C315.064 6.075 314.689 7.15 314.689 8.4C314.689 9.8 314.939 11.175 315.439 12.525C315.939 13.825 316.664 15.2 317.614 16.65C318.014 17.3 318.714 18.275 319.714 19.575C320.764 20.875 321.564 22.025 322.114 23.025C322.364 23.425 322.564 23.775 322.714 24.075C322.914 24.375 323.089 24.65 323.239 24.9L324.139 26.625C324.189 26.675 324.289 26.85 324.439 27.15C324.589 27.45 324.814 27.6 325.114 27.6L325.789 27.45L327.364 27C328.614 26.6 329.989 26.1 331.489 25.5L334.939 24.15L339.289 22.425C339.389 22.375 339.564 22.3 339.814 22.2C340.114 22.05 340.389 21.975 340.639 21.975C341.039 21.975 341.239 22.625 341.239 23.925C341.239 25.425 340.989 27.475 340.489 30.075C340.039 32.625 339.739 33.925 339.589 33.975C339.339 34.025 339.039 33.775 338.689 33.225C338.189 32.825 337.814 32.55 337.564 32.4C335.614 30.9 333.364 30.075 330.814 29.925C329.414 29.925 328.189 30.025 327.139 30.225C326.489 30.325 326.139 30.6 326.089 31.05V31.275C326.089 31.625 326.164 32 326.314 32.4C326.514 33.25 326.939 34.95 327.589 37.5C328.039 39.6 328.264 41.7 328.264 43.8C328.264 46.25 327.939 48.9 327.289 51.75C327.139 52.5 326.914 53.025 326.614 53.325C326.314 53.575 325.839 53.7 325.189 53.7C322.089 53.7 319.789 53.675 318.289 53.625L313.939 53.55L311.764 53.475H311.464C310.814 53.475 310.464 53.3 310.414 52.95C310.414 52.8 310.439 52.675 310.489 52.575C310.589 52.425 310.664 52.3 310.714 52.2L311.164 51.075C312.814 48.225 313.639 45.125 313.639 41.775C313.639 40.025 313.439 37.4 313.039 33.9C312.839 32.5 312.489 30.45 311.989 27.75C311.689 26.25 311.364 24.325 311.014 21.975C310.664 19.825 310.414 17.425 310.264 14.775C310.214 14.475 310.189 14.075 310.189 13.575C310.189 11.425 310.814 8.875 312.064 5.925C313.314 3.225 315.439 1.75 318.439 1.5C320.239 1.35 322.039 1.275 323.839 1.275C327.689 1.275 331.214 1.65 334.414 2.4C337.614 3.2 340.639 3.6 343.489 3.6C345.739 3.6 347.414 3.45 348.514 3.15C349.364 2.9 350.089 2.575 350.689 2.175C350.839 2.075 351.089 1.875 351.439 1.575C351.789 1.275 352.064 1.125 352.264 1.125C352.564 1.125 352.789 1.35 352.939 1.8ZM428.389 9.75C428.389 10.1 428.439 10.525 428.539 11.025C428.639 11.525 428.689 11.9 428.689 12.15C428.689 12.75 428.464 13.15 428.014 13.35C427.614 13.55 427.089 13.65 426.439 13.65C423.389 13.65 421.089 13.675 419.539 13.725L412.564 13.8H410.464C409.514 13.8 408.789 13.825 408.289 13.875C407.189 13.925 406.289 14.3 405.589 15C404.939 15.7 404.614 16.55 404.614 17.55C404.614 18 404.689 18.45 404.839 18.9C405.489 20.8 406.589 22.525 408.139 24.075C410.689 26.775 412.939 29.275 414.889 31.575C417.539 34.925 419.414 38.575 420.514 42.525C420.814 43.725 420.964 44.925 420.964 46.125C420.964 47.175 420.814 48.2 420.514 49.2C420.414 49.55 420.214 50.025 419.914 50.625C419.814 50.825 419.714 51.05 419.614 51.3C419.564 51.5 419.464 51.725 419.314 51.975C419.214 52.125 419.089 52.375 418.939 52.725C418.789 53.025 418.589 53.275 418.339 53.475C418.139 53.625 417.889 53.7 417.589 53.7H415.189C412.639 53.75 410.039 53.8 407.389 53.85C404.739 53.85 402.814 53.825 401.614 53.775C401.564 53.775 401.439 53.8 401.239 53.85C401.039 53.85 400.889 53.8 400.789 53.7C400.639 53.55 400.564 53.375 400.564 53.175C400.564 52.925 400.639 52.625 400.789 52.275C400.989 51.875 401.114 51.625 401.164 51.525C402.314 49.025 402.939 45.975 403.039 42.375C403.089 41.625 403.114 40.525 403.114 39.075C403.114 35.125 402.689 31.375 401.839 27.825C401.739 27.525 401.639 26.975 401.539 26.175C401.339 25.075 401.164 24.25 401.014 23.7C400.764 22.45 400.639 21.35 400.639 20.4C400.639 18.95 400.839 17.475 401.239 15.975C401.289 15.825 401.439 15.15 401.689 13.95C400.989 13.9 399.939 13.875 398.539 13.875C396.739 13.875 395.139 13.975 393.739 14.175C392.539 14.325 390.914 14.5 388.864 14.7H388.639C387.939 14.7 387.464 14.4 387.214 13.8C386.564 11.9 386.039 9.95 385.639 7.95C385.589 7.55 385.489 6.975 385.339 6.225C385.239 5.475 385.189 4.825 385.189 4.275C385.239 3.475 385.464 2.95 385.864 2.7C386.264 2.4 386.914 2.225 387.814 2.175C390.264 2.025 397.114 1.825 408.364 1.575C419.614 1.275 425.564 1.175 426.214 1.275C426.714 1.375 427.064 1.625 427.264 2.025C427.464 2.375 427.639 2.95 427.789 3.75C427.989 4.55 428.139 5.725 428.239 7.275L428.389 9.75ZM484.466 48.3C484.466 48.55 484.466 49.15 484.466 50.1C484.516 51 484.416 51.8 484.166 52.5C484.016 52.9 483.691 53.15 483.191 53.25C482.741 53.35 482.166 53.4 481.466 53.4L478.391 53.475C476.491 53.575 475.066 53.6 474.116 53.55C473.916 53.55 473.341 53.575 472.391 53.625C471.491 53.625 470.766 53.45 470.216 53.1C469.716 52.75 469.466 52.175 469.466 51.375L469.541 48.075C469.591 47.375 469.616 46.3 469.616 44.85V34.05C469.616 31.65 469.591 29.825 469.541 28.575L469.616 27.675C469.616 27.225 469.466 26.9 469.166 26.7C469.066 26.6 468.866 26.55 468.566 26.55C468.266 26.55 467.966 26.625 467.666 26.775C465.216 27.725 462.441 28.325 459.341 28.575H459.266C457.666 28.675 456.116 28.975 454.616 29.475C453.816 29.725 453.091 30.025 452.441 30.375L451.466 31.05L450.941 31.425C450.891 31.525 450.866 31.7 450.866 31.95V32.475V33.675V36C450.916 36.65 450.941 37.65 450.941 39L450.866 42.825C450.866 43.575 450.916 44.75 451.016 46.35L451.091 49.875C451.091 50.425 451.041 51.3 450.941 52.5C450.891 52.9 450.666 53.125 450.266 53.175C450.066 53.275 449.716 53.325 449.216 53.325L445.616 53.4C442.416 53.5 440.016 53.55 438.416 53.55C437.466 53.5 436.841 53.35 436.541 53.1C436.291 52.8 436.166 52.15 436.166 51.15C436.166 48.95 436.191 47.3 436.241 46.2V36.825V32.175C436.241 20.075 436.216 11 436.166 4.95C436.166 4.05 436.291 3.325 436.541 2.775C436.791 2.175 437.291 1.85 438.041 1.8H438.491C440.141 1.8 441.391 1.825 442.241 1.875L445.991 1.95L448.166 1.875C448.766 1.875 449.216 1.925 449.516 2.025C450.216 2.175 450.641 2.5 450.791 3C450.991 3.5 451.066 4.025 451.016 4.575C451.016 5.125 451.016 5.5 451.016 5.7L450.791 21.45C450.791 21.85 450.766 22.35 450.716 22.95C450.716 23.5 450.741 24.15 450.791 24.9V25.575C450.791 26.025 450.841 26.35 450.941 26.55C451.041 26.85 451.241 27 451.541 27C451.691 27 451.841 26.975 451.991 26.925C452.141 26.875 452.266 26.825 452.366 26.775C453.366 26.475 454.341 26.25 455.291 26.1C456.641 25.9 458.141 25.8 459.791 25.8C462.641 25.8 464.866 25.525 466.466 24.975C467.416 24.625 468.191 24.25 468.791 23.85C468.991 23.75 469.141 23.65 469.241 23.55C469.341 23.4 469.416 23.2 469.466 22.95C469.516 22.75 469.566 22.525 469.616 22.275C469.666 21.975 469.691 21.65 469.691 21.3L469.616 15.9C469.516 11.1 469.466 7.5 469.466 5.1C469.466 3.95 469.616 3.05 469.916 2.4C470.116 1.9 471.016 1.65 472.616 1.65C473.866 1.65 474.866 1.725 475.616 1.875C477.316 1.875 479.866 1.925 483.266 2.025C483.566 2.025 483.791 2.15 483.941 2.4C484.191 2.7 484.316 3.175 484.316 3.825C484.366 4.625 484.366 5.325 484.316 5.925C484.316 6.525 484.316 7.025 484.316 7.425C484.366 13.275 484.391 22.1 484.391 33.9V43.5C484.441 44.55 484.466 46.15 484.466 48.3ZM536.977 52.65C536.977 53.3 536.927 53.8 536.827 54.15C536.777 54.5 536.602 54.675 536.302 54.675C536.152 54.675 536.002 54.65 535.852 54.6C535.702 54.55 535.577 54.5 535.477 54.45L533.902 54C530.302 52.5 526.377 51.7 522.127 51.6L519.877 51.525C516.577 51.525 512.202 51.9 506.752 52.65C502.252 53.25 497.702 53.775 493.102 54.225H492.877C492.277 54.225 491.977 53.925 491.977 53.325C491.977 52.975 492.102 52.625 492.352 52.275C494.402 49.075 495.427 45.275 495.427 40.875C495.427 39.525 495.352 38.175 495.202 36.825C494.702 33.075 493.977 28.675 493.027 23.625C492.327 19.775 491.977 16.425 491.977 13.575C491.977 12.225 492.152 10.925 492.502 9.675C492.902 8.375 493.452 6.95 494.152 5.4C495.152 3.45 496.777 2.275 499.027 1.875C500.427 1.575 502.202 1.425 504.352 1.425C509.002 1.425 513.302 1.875 517.252 2.775C519.602 3.325 521.652 3.65 523.402 3.75C523.902 3.8 524.652 3.825 525.652 3.825C527.002 3.825 528.177 3.725 529.177 3.525C530.177 3.375 531.077 3.075 531.877 2.625C532.177 2.475 532.627 2.2 533.227 1.8C533.277 1.75 533.402 1.625 533.602 1.425C533.852 1.175 534.077 1.125 534.277 1.275C534.327 1.325 534.377 1.5 534.427 1.8C534.527 2.1 534.602 2.3 534.652 2.4C534.802 2.85 534.952 3.4 535.102 4.05C535.302 4.7 535.452 5.175 535.552 5.475L535.852 6.975C536.252 8.675 536.502 9.95 536.602 10.8C536.602 10.95 536.652 11.325 536.752 11.925C536.852 12.475 536.902 13 536.902 13.5C536.902 14.4 536.727 14.975 536.377 15.225C536.177 15.425 535.927 15.6 535.627 15.75C534.927 16.15 534.402 16.4 534.052 16.5C533.402 16.75 532.752 16.925 532.102 17.025C531.452 17.075 530.627 17.1 529.627 17.1C524.877 17.1 520.552 16 516.652 13.8C515.302 13.1 513.652 12.05 511.702 10.65L509.827 9.375C508.177 8.275 507.252 7.65 507.052 7.5C505.152 6.2 503.702 5.25 502.702 4.65C501.852 4.15 501.027 3.9 500.227 3.9C499.327 3.9 498.527 4.225 497.827 4.875C497.177 5.475 496.752 6.325 496.552 7.425C496.452 8.025 496.402 8.525 496.402 8.925C496.402 9.525 496.477 10.1 496.627 10.65C497.277 12.9 497.977 14.6 498.727 15.75L500.977 19.05C503.077 21.95 504.552 24.2 505.402 25.8L506.002 27C506.052 27.05 506.102 27.175 506.152 27.375C506.252 27.575 506.352 27.725 506.452 27.825C506.552 27.875 506.677 27.9 506.827 27.9C507.077 27.9 507.352 27.85 507.652 27.75C508.002 27.65 508.252 27.575 508.402 27.525L512.002 26.175C513.302 25.675 514.277 25.275 514.927 24.975L519.127 23.325C519.277 23.275 519.927 23.025 521.077 22.575C522.227 22.075 522.902 22.025 523.102 22.425C523.152 22.525 523.177 22.75 523.177 23.1C523.177 23.7 523.102 24.6 522.952 25.8C522.802 26.95 522.702 27.7 522.652 28.05C522.352 30.05 522.102 31.65 521.902 32.85C521.852 33 521.802 33.25 521.752 33.6C521.702 33.95 521.552 34.125 521.302 34.125C521.052 34.125 520.777 33.95 520.477 33.6C520.227 33.25 520.002 33 519.802 32.85C519.102 32.3 518.402 31.85 517.702 31.5C516.302 30.75 514.727 30.3 512.977 30.15C512.627 30.15 512.152 30.15 511.552 30.15C511.002 30.1 510.502 30.1 510.052 30.15C509.652 30.15 509.177 30.225 508.627 30.375C508.127 30.525 507.852 30.725 507.802 30.975V31.125C507.802 31.325 507.877 31.725 508.027 32.325L508.777 35.325C509.277 37.425 509.602 39 509.752 40.05C509.902 41.05 509.977 42.6 509.977 44.7V49.65C510.177 49.65 510.402 49.675 510.652 49.725C510.952 49.725 511.277 49.7 511.627 49.65L513.727 49.275C517.927 48.575 521.102 47.975 523.252 47.475C527.002 46.625 530.327 45.075 533.227 42.825C533.427 42.675 533.752 42.425 534.202 42.075C534.652 41.725 535.102 41.475 535.552 41.325C536.152 41.175 536.552 41.2 536.752 41.4C536.902 41.55 536.977 41.85 536.977 42.3V46.725V48.975V51.75V52.65ZM180.902 124.9C180.902 125.7 180.727 126.25 180.377 126.55C180.227 126.65 179.252 126.75 177.452 126.85C175.702 126.9 173.777 126.925 171.677 126.925C165.627 126.925 161.827 126.775 160.277 126.475C160.027 126.075 159.902 125.7 159.902 125.35C159.902 125 160.002 124.525 160.202 123.925L161.102 120.775C161.302 120.025 161.627 118.8 162.077 117.1C162.527 115.4 162.977 113.9 163.427 112.6C165.877 105.1 167.452 98.1 168.152 91.6C168.352 89.6 168.452 87.3 168.452 84.7C168.452 83.9 168.277 83.075 167.927 82.225C167.627 81.425 167.077 81.025 166.277 81.025C165.927 81.025 165.577 81.125 165.227 81.325C163.627 82.275 162.552 83.75 162.002 85.75L161.402 88.075C161.252 88.675 161.027 89.575 160.727 90.775C160.427 91.975 160.202 93.05 160.052 94C159.402 97.15 158.877 100.125 158.477 102.925L157.427 108.85L156.227 114.25C155.877 115.8 155.077 117.35 153.827 118.9C151.927 121.15 149.477 122.275 146.477 122.275C146.077 122.275 145.477 122.225 144.677 122.125C142.527 121.825 140.877 120.675 139.727 118.675C139.127 117.675 138.627 116.6 138.227 115.45C136.677 111 135.577 106.125 134.927 100.825C134.727 98.925 134.327 95.875 133.727 91.675C133.377 89.075 132.402 86.55 130.802 84.1C130.352 83.35 129.827 82.675 129.227 82.075C128.577 81.525 128.002 81.25 127.502 81.25C126.602 81.25 125.977 81.8 125.627 82.9C124.927 84.8 124.577 86.85 124.577 89.05C124.577 90.35 124.627 91.325 124.727 91.975C125.977 100.575 128.527 109.125 132.377 117.625L133.352 119.8L135.302 124.15C135.652 124.85 135.827 125.45 135.827 125.95C135.727 126.3 135.577 126.525 135.377 126.625C135.277 126.675 132.052 126.7 125.702 126.7H114.377C113.777 126.7 113.327 126.675 113.027 126.625C112.727 126.575 112.502 126.45 112.352 126.25C112.202 126.05 112.052 125.725 111.902 125.275C111.602 124.375 111.402 122.95 111.302 121C111.252 120.45 111.227 119.625 111.227 118.525C111.227 114.625 111.802 110.375 112.952 105.775C114.152 101.075 115.202 96.4 116.102 91.75C116.452 90.15 116.627 88.45 116.627 86.65C116.627 83.25 115.802 80.075 114.152 77.125C113.952 76.725 113.827 76.425 113.777 76.225V75.55C113.927 75.3 114.102 75.15 114.302 75.1C114.502 75 114.777 74.95 115.127 74.95L139.802 74.725L141.452 74.65C142.802 74.65 143.477 75.175 143.477 76.225C143.477 76.675 143.452 77.05 143.402 77.35C143.352 77.65 143.302 77.9 143.252 78.1C142.602 82.35 142.277 86.8 142.277 91.45C142.277 94.8 142.477 98.4 142.877 102.25C143.027 103.45 143.277 104.725 143.627 106.075C144.027 107.425 144.277 108.25 144.377 108.55C144.477 109.1 144.827 109.775 145.427 110.575C145.877 111.225 146.427 111.55 147.077 111.55C147.677 111.55 148.202 111.25 148.652 110.65C149.452 109.65 149.977 108.525 150.227 107.275C150.477 105.975 150.602 104.425 150.602 102.625C150.602 100.575 150.577 99.025 150.527 97.975L150.002 88.825C149.752 85.025 149.277 81.8 148.577 79.15C148.527 78.9 148.402 78.5 148.202 77.95C148.052 77.35 147.977 76.825 147.977 76.375C147.977 75.625 148.177 75.15 148.577 74.95C148.977 74.75 149.577 74.65 150.377 74.65C152.627 74.6 157.627 74.575 165.377 74.575C172.427 74.575 176.302 74.6 177.002 74.65C177.902 74.65 178.502 74.775 178.802 75.025C179.052 75.275 179.177 75.5 179.177 75.7C179.177 75.9 179.127 76.125 179.027 76.375C178.927 76.575 178.852 76.725 178.802 76.825C177.002 81.375 176.102 85.825 176.102 90.175C176.102 92.375 176.377 94.775 176.927 97.375C178.227 103.575 179.227 109.025 179.927 113.725C180.177 115.175 180.352 116.8 180.452 118.6C180.602 120.35 180.702 121.525 180.752 122.125C180.752 122.875 180.777 123.45 180.827 123.85L180.902 124.9ZM236.649 83.125C238.799 88.275 239.774 92.7 239.574 96.4C239.574 100.45 239.049 104.175 237.999 107.575C236.949 110.925 235.349 114.075 233.199 117.025C229.099 122.675 223.449 126 216.249 127C214.099 127.35 211.924 127.65 209.724 127.9C209.274 127.95 208.599 127.975 207.699 127.975C203.549 127.975 199.874 126.775 196.674 124.375C193.524 121.925 191.349 118.75 190.149 114.85C188.999 110.85 188.424 106.925 188.424 103.075C188.424 99.025 189.049 95.125 190.299 91.375C193.099 83.075 198.749 77.6 207.249 74.95C210.399 74 213.624 73.525 216.924 73.525C219.574 73.525 222.299 73.825 225.099 74.425C227.949 74.975 230.899 76.525 233.949 79.075C234.899 79.825 235.799 81.175 236.649 83.125ZM232.749 85.6C232.949 85.15 233.049 84.625 233.049 84.025C233.049 83.125 232.749 82.375 232.149 81.775C231.549 81.175 230.724 80.825 229.674 80.725C228.924 80.725 228.374 80.75 228.024 80.8C227.574 80.9 226.849 81.025 225.849 81.175C224.849 81.325 223.974 81.525 223.224 81.775C213.024 84.925 204.824 90.575 198.624 98.725C195.974 102.225 194.724 106.15 194.874 110.5C194.674 112.8 195.149 115.525 196.299 118.675C197.499 121.825 199.674 123.4 202.824 123.4C204.874 123.4 207.074 122.9 209.424 121.9C214.224 119.75 217.649 116.55 219.699 112.3C220.599 110.5 221.899 107.75 223.599 104.05L224.724 101.425C225.874 98.475 226.949 95.95 227.949 93.85C228.999 91.75 230.199 89.775 231.549 87.925C231.849 87.575 232.099 87.15 232.299 86.65C232.499 86.1 232.649 85.75 232.749 85.6ZM247.616 75.775C247.716 75.625 247.966 75.5 248.366 75.4C250.816 75.35 254.516 75.425 259.466 75.625C260.566 75.625 261.641 76.15 262.691 77.2C263.091 77.6 263.491 78.3 263.891 79.3C264.341 80.25 264.641 80.875 264.791 81.175C265.041 81.625 265.291 82.225 265.541 82.975C265.841 83.675 266.091 84.25 266.291 84.7C267.091 86.7 268.341 89.7 270.041 93.7L271.091 95.95C272.691 99.65 273.991 102.35 274.991 104.05C275.791 105.45 276.766 107 277.916 108.7C277.966 108.75 278.191 109.125 278.591 109.825C279.041 110.475 279.441 110.8 279.791 110.8C280.691 110.85 281.141 108.525 281.141 103.825C281.141 101.975 281.091 100.1 280.991 98.2C280.941 97.65 280.916 97.075 280.916 96.475V93.4C280.916 89.25 280.841 85.725 280.691 82.825C280.591 79.875 280.316 77.925 279.866 76.975C279.766 76.775 279.691 76.575 279.641 76.375C279.591 76.125 279.616 75.925 279.716 75.775C279.916 75.375 280.816 75.175 282.416 75.175C283.116 75.175 283.741 75.2 284.291 75.25C284.891 75.3 285.366 75.325 285.716 75.325C287.166 75.325 289.341 75.275 292.241 75.175H293.516C294.266 75.275 294.766 75.6 295.016 76.15C295.266 76.7 295.391 77.425 295.391 78.325C295.341 84.375 295.316 93.45 295.316 105.55C295.316 111.8 295.341 116.475 295.391 119.575V124.525C295.391 125.525 295.241 126.175 294.941 126.475C294.691 126.775 294.091 126.925 293.141 126.925C290.541 126.925 288.566 126.9 287.216 126.85C286.816 126.85 286.316 126.875 285.716 126.925C285.166 126.975 284.566 127 283.916 127C282.966 127 282.291 126.9 281.891 126.7C281.191 126.35 280.716 125.775 280.466 124.975C280.216 124.125 280.041 123.025 279.941 121.675C279.841 120.675 279.741 119.95 279.641 119.5C279.291 118.15 278.591 116.525 277.541 114.625L270.041 100.975C268.991 99.125 267.991 97.55 267.041 96.25C266.141 94.9 265.241 94.225 264.341 94.225C263.541 94.225 262.941 94.85 262.541 96.1C262.091 97.5 261.866 99.375 261.866 101.725C261.866 102.775 261.891 103.575 261.941 104.125C261.941 104.525 261.941 105 261.941 105.55C261.991 106.1 261.991 106.725 261.941 107.425V118.225L262.016 121.525C262.066 122.275 262.091 123.375 262.091 124.825C262.091 125.725 261.766 126.325 261.116 126.625C260.516 126.875 259.691 127 258.641 127L254.366 126.925C253.416 126.875 251.991 126.85 250.091 126.85C249.941 126.85 249.641 126.85 249.191 126.85C248.741 126.8 248.341 126.7 247.991 126.55C247.691 126.4 247.491 126.175 247.391 125.875C247.141 125.175 247.016 124.375 247.016 123.475C247.066 122.525 247.091 121.925 247.091 121.675L247.166 116.95V107.275L247.241 80.8C247.241 80.4 247.216 79.9 247.166 79.3C247.166 78.7 247.191 78 247.241 77.2C247.241 76.55 247.366 76.075 247.616 75.775ZM346.102 82.75C346.102 83.1 346.152 83.525 346.252 84.025C346.352 84.525 346.402 84.9 346.402 85.15C346.402 85.75 346.177 86.15 345.727 86.35C345.327 86.55 344.802 86.65 344.152 86.65C341.102 86.65 338.802 86.675 337.252 86.725L330.277 86.8H328.177C327.227 86.8 326.502 86.825 326.002 86.875C324.902 86.925 324.002 87.3 323.302 88C322.652 88.7 322.327 89.55 322.327 90.55C322.327 91 322.402 91.45 322.552 91.9C323.202 93.8 324.302 95.525 325.852 97.075C328.402 99.775 330.652 102.275 332.602 104.575C335.252 107.925 337.127 111.575 338.227 115.525C338.527 116.725 338.677 117.925 338.677 119.125C338.677 120.175 338.527 121.2 338.227 122.2C338.127 122.55 337.927 123.025 337.627 123.625C337.527 123.825 337.427 124.05 337.327 124.3C337.277 124.5 337.177 124.725 337.027 124.975C336.927 125.125 336.802 125.375 336.652 125.725C336.502 126.025 336.302 126.275 336.052 126.475C335.852 126.625 335.602 126.7 335.302 126.7H332.902C330.352 126.75 327.752 126.8 325.102 126.85C322.452 126.85 320.527 126.825 319.327 126.775C319.277 126.775 319.152 126.8 318.952 126.85C318.752 126.85 318.602 126.8 318.502 126.7C318.352 126.55 318.277 126.375 318.277 126.175C318.277 125.925 318.352 125.625 318.502 125.275C318.702 124.875 318.827 124.625 318.877 124.525C320.027 122.025 320.652 118.975 320.752 115.375C320.802 114.625 320.827 113.525 320.827 112.075C320.827 108.125 320.402 104.375 319.552 100.825C319.452 100.525 319.352 99.975 319.252 99.175C319.052 98.075 318.877 97.25 318.727 96.7C318.477 95.45 318.352 94.35 318.352 93.4C318.352 91.95 318.552 90.475 318.952 88.975C319.002 88.825 319.152 88.15 319.402 86.95C318.702 86.9 317.652 86.875 316.252 86.875C314.452 86.875 312.852 86.975 311.452 87.175C310.252 87.325 308.627 87.5 306.577 87.7H306.352C305.652 87.7 305.177 87.4 304.927 86.8C304.277 84.9 303.752 82.95 303.352 80.95C303.302 80.55 303.202 79.975 303.052 79.225C302.952 78.475 302.902 77.825 302.902 77.275C302.952 76.475 303.177 75.95 303.577 75.7C303.977 75.4 304.627 75.225 305.527 75.175C307.977 75.025 314.827 74.825 326.077 74.575C337.327 74.275 343.277 74.175 343.927 74.275C344.427 74.375 344.777 74.625 344.977 75.025C345.177 75.375 345.352 75.95 345.502 76.75C345.702 77.55 345.852 78.725 345.952 80.275L346.102 82.75ZM402.178 121.3C402.178 121.55 402.178 122.15 402.178 123.1C402.228 124 402.128 124.8 401.878 125.5C401.728 125.9 401.403 126.15 400.903 126.25C400.453 126.35 399.878 126.4 399.178 126.4L396.103 126.475C394.203 126.575 392.778 126.6 391.828 126.55C391.628 126.55 391.053 126.575 390.103 126.625C389.203 126.625 388.478 126.45 387.928 126.1C387.428 125.75 387.178 125.175 387.178 124.375L387.253 121.075C387.303 120.375 387.328 119.3 387.328 117.85V107.05C387.328 104.65 387.303 102.825 387.253 101.575L387.328 100.675C387.328 100.225 387.178 99.9 386.878 99.7C386.778 99.6 386.578 99.55 386.278 99.55C385.978 99.55 385.678 99.625 385.378 99.775C382.928 100.725 380.153 101.325 377.053 101.575H376.978C375.378 101.675 373.828 101.975 372.328 102.475C371.528 102.725 370.803 103.025 370.153 103.375L369.178 104.05L368.653 104.425C368.603 104.525 368.578 104.7 368.578 104.95V105.475V106.675V109C368.628 109.65 368.653 110.65 368.653 112L368.578 115.825C368.578 116.575 368.628 117.75 368.728 119.35L368.803 122.875C368.803 123.425 368.753 124.3 368.653 125.5C368.603 125.9 368.378 126.125 367.978 126.175C367.778 126.275 367.428 126.325 366.928 126.325L363.328 126.4C360.128 126.5 357.728 126.55 356.128 126.55C355.178 126.5 354.553 126.35 354.253 126.1C354.003 125.8 353.878 125.15 353.878 124.15C353.878 121.95 353.903 120.3 353.953 119.2V109.825V105.175C353.953 93.075 353.928 84 353.878 77.95C353.878 77.05 354.003 76.325 354.253 75.775C354.503 75.175 355.003 74.85 355.753 74.8H356.203C357.853 74.8 359.103 74.825 359.953 74.875L363.703 74.95L365.878 74.875C366.478 74.875 366.928 74.925 367.228 75.025C367.928 75.175 368.353 75.5 368.503 76C368.703 76.5 368.778 77.025 368.728 77.575C368.728 78.125 368.728 78.5 368.728 78.7L368.503 94.45C368.503 94.85 368.478 95.35 368.428 95.95C368.428 96.5 368.453 97.15 368.503 97.9V98.575C368.503 99.025 368.553 99.35 368.653 99.55C368.753 99.85 368.953 100 369.253 100C369.403 100 369.553 99.975 369.703 99.925C369.853 99.875 369.978 99.825 370.078 99.775C371.078 99.475 372.053 99.25 373.003 99.1C374.353 98.9 375.853 98.8 377.503 98.8C380.353 98.8 382.578 98.525 384.178 97.975C385.128 97.625 385.903 97.25 386.503 96.85C386.703 96.75 386.853 96.65 386.953 96.55C387.053 96.4 387.128 96.2 387.178 95.95C387.228 95.75 387.278 95.525 387.328 95.275C387.378 94.975 387.403 94.65 387.403 94.3L387.328 88.9C387.228 84.1 387.178 80.5 387.178 78.1C387.178 76.95 387.328 76.05 387.628 75.4C387.828 74.9 388.728 74.65 390.328 74.65C391.578 74.65 392.578 74.725 393.328 74.875C395.028 74.875 397.578 74.925 400.978 75.025C401.278 75.025 401.503 75.15 401.653 75.4C401.903 75.7 402.028 76.175 402.028 76.825C402.078 77.625 402.078 78.325 402.028 78.925C402.028 79.525 402.028 80.025 402.028 80.425C402.078 86.275 402.103 95.1 402.103 106.9V116.5C402.153 117.55 402.178 119.15 402.178 121.3ZM425.664 84.175C425.714 84.675 425.739 85.425 425.739 86.425C425.739 88.125 425.589 89.525 425.289 90.625C424.689 92.975 424.064 94.95 423.414 96.55L422.964 97.6L420.639 103.225L419.889 104.95C419.489 105.8 418.939 107.075 418.239 108.775C417.889 109.475 417.614 110.125 417.414 110.725C417.364 110.775 417.314 110.85 417.264 110.95C417.264 111 417.239 111.025 417.189 111.025C417.089 111.025 417.039 110.95 417.039 110.8L416.814 110.275C416.764 110.075 416.714 109.9 416.664 109.75C416.614 109.6 416.564 109.45 416.514 109.3L415.764 107.425L414.414 103.825C412.964 100.425 411.714 96.6 410.664 92.35C410.014 89.55 409.689 87.25 409.689 85.45C409.689 83.65 409.939 82.1 410.439 80.8C410.989 79.5 411.939 78.45 413.289 77.65C414.539 76.9 415.914 76.525 417.414 76.525C418.564 76.525 419.639 76.75 420.639 77.2C421.689 77.65 422.614 78.3 423.414 79.15C424.714 80.6 425.464 82.275 425.664 84.175ZM418.014 114.775C419.714 114.825 421.164 115.475 422.364 116.725C423.614 117.925 424.239 119.325 424.239 120.925C424.239 122.775 423.564 124.325 422.214 125.575C420.864 126.825 419.164 127.45 417.114 127.45C415.614 127.45 414.239 126.825 412.989 125.575C411.739 124.275 411.114 122.85 411.114 121.3C411.114 119.6 411.814 118.1 413.214 116.8C414.614 115.45 416.214 114.775 418.014 114.775Z" fill="white"/>
</svg>
