<svg width="169" height="111" viewBox="0 0 169 111" fill="none" xmlns="http://www.w3.org/2000/svg">
<path d="M12.2496 58.6471L15.06 54.1749C16.0519 52.4634 18.8623 47.9471 22.1686 43.5743M12.2496 58.6471L9.10861 64.7755L6.9595 69.082M12.2496 58.6471C14.7928 59.135 20.5026 60.5172 23.3376 62.1979M43.9904 98.7307L41.18 100.718L33.5755 105.19L29.4425 107.344L28.0813 107.831C25.9191 108.604 23.6397 109 21.3431 109H19.6889H19.5171C17.5484 109 15.5905 108.709 13.7067 108.137L12.1543 107.666C11.448 107.452 10.7641 107.17 10.1121 106.824V106.824C8.90184 106.182 7.81641 105.328 6.90724 104.303L5.63696 102.872L5.45178 102.602C4.37031 101.026 3.55597 99.282 3.04151 97.4411V97.4411C2.78843 96.5355 2.60919 95.6109 2.50555 94.6763L2.22699 92.1645C2.07606 90.8035 2.0653 89.4307 2.19488 88.0675L2.66127 83.161L3.81848 78.0263L5.66166 72.2223C5.97536 71.2345 6.36535 70.2726 6.82813 69.3453L6.9595 69.082M43.9904 98.7307L50.7684 94.0929L60.522 86.3081M43.9904 98.7307C43.9904 99.3932 44.5855 101.149 46.9661 102.872C49.9418 105.025 69.2838 108.669 114.581 108.669C144.183 108.669 158.002 99.9733 163.032 93.2375C164.867 90.7789 166.764 87.978 166.982 84.9173C167.489 77.7636 157.425 69.0044 150.467 64.3239C149.583 63.729 148.744 63.0777 147.884 62.4489C144.685 60.1113 140.057 58.2466 134.749 56.7713M60.522 86.3081L66.1428 80.6765L72.7555 73.9476M60.522 86.3081C61.3486 87.9644 63.8284 91.0783 67.1347 90.2833C71.2676 89.2895 74.2433 78.8131 72.7555 73.9476M61.6793 9.95046L65.0434 8.3233C65.9952 7.86288 66.9822 7.47867 67.9948 7.17429L71.4329 6.14087L75.7312 4.31889L78.9108 3.11345C80.8527 2.37728 82.9122 2 84.9889 2V2H90.1137H91.0212C92.0678 2 93.1127 2.08214 94.1464 2.24567L94.525 2.30557C97.3896 2.75874 100.118 3.84241 102.512 5.47833V5.47833L103.882 6.28919C105.374 7.17274 106.648 8.38141 107.609 9.82529V9.82529C108.176 10.6779 108.628 11.6023 108.951 12.574L109.088 12.9845C109.442 14.0502 109.674 15.1528 109.779 16.2711L109.952 18.121C110.062 19.2964 110.054 20.4799 109.928 21.6537V21.6537C109.725 23.5562 109.214 25.4132 108.417 27.1523L106.811 30.6548L99.5367 42.9118L93.143 51.6904M61.6793 9.95046L48.9499 19.0604M61.6793 9.95046L62.1771 10.0502C63.495 10.3143 64.783 10.7106 66.0214 11.233L67.3 11.7724L72.1033 14.4722C73.4156 15.2097 74.6404 16.0931 75.7544 17.1055L81.1866 22.0418L82.4217 23.2793C84.3337 25.1949 86.0907 27.4498 86.3298 30.1457C86.4438 31.4314 86.2967 32.5082 85.9978 33.3947C85.0748 36.1328 82.0187 38.2282 79.1505 37.8784C78.7324 37.8274 78.3229 37.7458 77.9392 37.6473C76.8902 37.3782 76.0003 36.7216 75.2352 35.9551V35.9551L74.5953 35.2224C74.2512 34.8284 73.8703 34.4682 73.4576 34.1466V34.1466C72.8819 33.6979 72.3685 33.1745 71.9311 32.5901L71.6181 32.172C71.2747 31.7132 70.8991 31.2794 70.4943 30.8738L69.4491 29.8266L67.3 27.839L64.9856 26.1827L62.1093 24.6457C60.7253 23.9061 59.2591 23.332 57.7409 22.9352L56.2238 22.5387L55.1686 22.1863C53.8915 21.7598 52.6608 21.2054 51.4952 20.5316L48.9499 19.0604M48.9499 19.0604C45.1605 22.2473 39.2609 27.3094 33.9061 32.1142M22.1686 43.5743C23.8154 41.3964 28.5925 36.8819 33.9061 32.1142M22.1686 43.5743C27.1832 45.4515 38.039 49.1396 41.3453 48.8746C45.4782 48.5433 49.7765 58.8127 56.0585 60.8003C60.1251 62.087 62.3011 59.4115 63.217 57.0565C63.6083 56.0505 63.9044 54.9932 64.054 53.9242C65.2913 45.0855 49.8237 39.6737 47.7927 38.1084C46.0734 36.7833 37.8186 33.5601 33.9061 32.1142M23.3376 62.1979C23.3898 62.2289 23.441 62.2599 23.4911 62.291C25.0335 63.2477 25.1881 63.344 24.8137 63.1123M23.3376 62.1979C23.8749 62.5309 24.5139 62.9267 24.8137 63.1123M24.8137 63.1123L32.973 70.0868C34.2512 71.1794 35.3984 72.4209 36.3097 73.8341C36.9264 74.7903 37.5585 75.8249 38.0419 76.728C38.8156 78.1733 38.9547 79.8876 38.4334 81.442C37.7512 83.4757 36.1811 85.3755 33.1206 85.2309C29.4292 85.0566 26.9107 81.7144 24.5832 78.8439C23.7475 77.8132 22.8541 76.8562 22.0033 76.2043C17.8153 73.8302 8.94329 69.082 6.9595 69.082M93.143 51.6904L90.6097 55.1687L76.7231 69.9102L72.7555 73.9476M93.143 51.6904C94.7045 51.7024 96.4663 51.7427 98.3795 51.8168M87.7993 59.9721C89.9095 61.5226 93.8156 67.6553 94.9328 80.5546C95.3455 85.3201 97.3898 92.1527 101.786 90.2674C102.662 89.8915 103.53 89.1686 104.331 87.9644C107.505 83.1941 106.976 72.3947 106.315 67.5913C105.013 62.9274 101.604 53.243 98.3795 51.8168M98.3795 51.8168C104.387 52.0494 111.888 52.6149 119.375 53.682M119.375 53.682C122.02 56.6069 127.409 65.0074 127.806 75.2105C127.49 79.5572 127.711 86.7942 130.044 89.9262C131.78 92.2571 135.862 91.8834 137.921 89.8328C139.912 87.851 141.416 83.5772 140.37 75.2105C138.63 61.2972 135.898 57.1205 134.749 56.7713M119.375 53.682C124.687 54.4391 129.991 55.4488 134.749 56.7713" stroke="white" stroke-width="4"/>
</svg>
